<?xml version="1.0" encoding="utf-8" standalone="no"?>
<!DOCTYPE svg PUBLIC "-//W3C//DTD SVG 1.1//EN"
  "http://www.w3.org/Graphics/SVG/1.1/DTD/svg11.dtd">
<svg xmlns:xlink="http://www.w3.org/1999/xlink" width="508.55574pt" height="350.813067pt" viewBox="0 0 508.55574 350.813067" xmlns="http://www.w3.org/2000/svg" version="1.1">
 <metadata>
  <rdf:RDF xmlns:dc="http://purl.org/dc/elements/1.1/" xmlns:cc="http://creativecommons.org/ns#" xmlns:rdf="http://www.w3.org/1999/02/22-rdf-syntax-ns#">
   <cc:Work>
    <dc:type rdf:resource="http://purl.org/dc/dcmitype/StillImage"/>
    <dc:date>2026-06-29T16:59:08.521226</dc:date>
    <dc:format>image/svg+xml</dc:format>
    <dc:creator>
     <cc:Agent>
      <dc:title>Matplotlib v3.9.2, https://matplotlib.org/</dc:title>
     </cc:Agent>
    </dc:creator>
   </cc:Work>
  </rdf:RDF>
 </metadata>
 <defs>
  <style type="text/css">*{stroke-linejoin: round; stroke-linecap: butt}</style>
 </defs>
 <g id="figure_1">
  <g id="patch_1">
   <path d="M 0 350.813067 
L 508.55574 350.813067 
L 508.55574 0 
L 0 0 
z
" style="fill: #ffffff"/>
  </g>
  <g id="axes_1">
   <g id="patch_2">
    <path d="M 29.662172 108.959152 
L 258.17334 108.959152 
L 258.17334 19.702103 
L 29.662172 19.702103 
z
" style="fill: #ffffff"/>
   </g>
   <g id="line2d_1">
    <path d="M 29.662172 97.40538 
L 258.17334 97.40538 
" clip-path="url(#p77901fc9d6)" style="fill: none; stroke: #bbbbbb; stroke-width: 0.5; stroke-linecap: square"/>
   </g>
   <g id="PolyCollection_1">
    <defs>
     <path id="mcbb0ee82ef" d="M 40.049043 -294.076924 
L 40.049043 -277.347875 
L 58.113167 -257.979936 
L 61.123854 -253.471469 
L 64.134542 -251.522456 
L 67.145229 -252.380917 
L 70.155916 -252.16514 
L 73.166604 -253.66776 
L 76.177291 -255.226015 
L 79.187978 -255.96256 
L 82.198666 -255.198295 
L 85.209353 -254.330199 
L 88.22004 -255.44378 
L 91.230728 -254.065509 
L 94.241415 -256.01725 
L 97.252102 -254.472497 
L 100.26279 -257.580497 
L 103.273477 -257.633295 
L 106.284164 -257.239804 
L 109.294852 -254.865823 
L 112.305539 -252.550393 
L 115.316226 -252.315201 
L 118.326914 -252.58892 
L 121.337601 -251.683644 
L 124.348288 -250.356301 
L 127.358976 -249.231925 
L 130.369663 -248.5398 
L 133.38035 -248.548829 
L 136.391038 -248.469643 
L 139.401725 -248.392405 
L 142.412412 -247.531056 
L 145.4231 -247.102425 
L 148.433787 -249.489939 
L 151.444474 -250.830609 
L 154.455162 -252.180845 
L 157.465849 -252.184179 
L 160.476536 -257.192894 
L 163.487224 -254.107767 
L 166.497911 -252.606761 
L 169.508598 -258.320996 
L 172.519286 -267.254823 
L 175.529973 -275.655324 
L 178.54066 -283.941155 
L 181.551348 -292.578833 
L 184.562035 -302.618355 
L 187.572722 -299.924938 
L 190.58341 -286.199279 
L 193.594097 -270.320885 
L 196.604784 -260.861001 
L 199.615471 -257.825081 
L 202.626159 -254.308945 
L 205.636846 -253.849205 
L 208.647533 -251.910443 
L 211.658221 -250.633024 
L 214.668908 -246.550384 
L 217.679595 -248.622434 
L 220.690283 -263.080859 
L 223.70097 -246.915822 
L 226.711657 -245.911054 
L 229.722345 -248.064772 
L 232.733032 -251.636603 
L 235.743719 -253.308917 
L 238.754407 -253.269463 
L 238.754407 -262.082145 
L 238.754407 -262.082145 
L 235.743719 -261.25144 
L 232.733032 -259.408587 
L 229.722345 -254.543812 
L 226.711657 -251.566387 
L 223.70097 -253.647395 
L 220.690283 -272.382512 
L 217.679595 -258.232498 
L 214.668908 -257.791849 
L 211.658221 -263.28308 
L 208.647533 -266.193204 
L 205.636846 -268.86718 
L 202.626159 -269.71765 
L 199.615471 -274.428103 
L 196.604784 -279.132761 
L 193.594097 -290.980303 
L 190.58341 -309.241042 
L 187.572722 -324.439196 
L 184.562035 -327.053825 
L 181.551348 -313.111289 
L 178.54066 -301.472414 
L 175.529973 -291.085914 
L 172.519286 -280.975945 
L 169.508598 -269.866967 
L 166.497911 -262.367831 
L 163.487224 -262.636815 
L 160.476536 -265.016514 
L 157.465849 -259.402395 
L 154.455162 -259.107128 
L 151.444474 -257.360239 
L 148.433787 -255.671218 
L 145.4231 -253.051776 
L 142.412412 -253.336361 
L 139.401725 -253.807014 
L 136.391038 -253.531818 
L 133.38035 -253.177812 
L 130.369663 -253.616594 
L 127.358976 -254.585152 
L 124.348288 -256.023217 
L 121.337601 -257.867874 
L 118.326914 -258.940457 
L 115.316226 -258.813615 
L 112.305539 -259.522416 
L 109.294852 -262.541309 
L 106.284164 -265.091536 
L 103.273477 -265.372481 
L 100.26279 -264.925317 
L 97.252102 -261.102688 
L 94.241415 -263.114775 
L 91.230728 -259.995001 
L 88.22004 -261.067244 
L 85.209353 -259.52523 
L 82.198666 -260.882373 
L 79.187978 -262.450218 
L 76.177291 -263.595509 
L 73.166604 -264.184465 
L 70.155916 -265.100058 
L 67.145229 -267.487111 
L 64.134542 -269.280449 
L 61.123854 -273.213681 
L 58.113167 -279.354337 
L 40.049043 -294.076924 
z
"/>
    </defs>
    <g clip-path="url(#p77901fc9d6)">
     <use xlink:href="#mcbb0ee82ef" x="0" y="350.813067" style="fill: #a6cee3; fill-opacity: 0.45"/>
    </g>
   </g>
   <g id="matplotlib.axis_1">
    <g id="xtick_1">
     <g id="line2d_2">
      <defs>
       <path id="m6d6d2ae504" d="M 0 0 
L 0 2.5 
" style="stroke: #000000; stroke-width: 0.6"/>
      </defs>
      <g>
       <use xlink:href="#m6d6d2ae504" x="40.90924" y="108.959152" style="stroke: #000000; stroke-width: 0.6"/>
      </g>
     </g>
    </g>
    <g id="xtick_2">
     <g id="line2d_3">
      <g>
       <use xlink:href="#m6d6d2ae504" x="118.757012" y="108.959152" style="stroke: #000000; stroke-width: 0.6"/>
      </g>
     </g>
    </g>
    <g id="xtick_3">
     <g id="line2d_4">
      <g>
       <use xlink:href="#m6d6d2ae504" x="197.895079" y="108.959152" style="stroke: #000000; stroke-width: 0.6"/>
      </g>
     </g>
    </g>
   </g>
   <g id="matplotlib.axis_2">
    <g id="ytick_1">
     <g id="line2d_5">
      <path d="M 29.662172 97.40538 
L 258.17334 97.40538 
" clip-path="url(#p77901fc9d6)" style="fill: none; stroke: #eaeaea; stroke-width: 0.5; stroke-linecap: square"/>
     </g>
     <g id="line2d_6">
      <defs>
       <path id="m7cb700c62a" d="M 0 0 
L -2.5 0 
" style="stroke: #000000; stroke-width: 0.6"/>
      </defs>
      <g>
       <use xlink:href="#m7cb700c62a" x="29.662172" y="97.40538" style="stroke: #000000; stroke-width: 0.6"/>
      </g>
     </g>
     <g id="text_1">
      <text style="font: 6.5px 'Arial'; text-anchor: end" x="23.662172" y="99.731669" transform="rotate(-0 23.662172 99.731669)">0</text>
     </g>
    </g>
    <g id="ytick_2">
     <g id="line2d_7">
      <path d="M 29.662172 74.442671 
L 258.17334 74.442671 
" clip-path="url(#p77901fc9d6)" style="fill: none; stroke: #eaeaea; stroke-width: 0.5; stroke-linecap: square"/>
     </g>
     <g id="line2d_8">
      <g>
       <use xlink:href="#m7cb700c62a" x="29.662172" y="74.442671" style="stroke: #000000; stroke-width: 0.6"/>
      </g>
     </g>
     <g id="text_2">
      <text style="font: 6.5px 'Arial'; text-anchor: end" x="23.662172" y="76.76896" transform="rotate(-0 23.662172 76.76896)">2</text>
     </g>
    </g>
    <g id="ytick_3">
     <g id="line2d_9">
      <path d="M 29.662172 51.479962 
L 258.17334 51.479962 
" clip-path="url(#p77901fc9d6)" style="fill: none; stroke: #eaeaea; stroke-width: 0.5; stroke-linecap: square"/>
     </g>
     <g id="line2d_10">
      <g>
       <use xlink:href="#m7cb700c62a" x="29.662172" y="51.479962" style="stroke: #000000; stroke-width: 0.6"/>
      </g>
     </g>
     <g id="text_3">
      <text style="font: 6.5px 'Arial'; text-anchor: end" x="23.662172" y="53.806251" transform="rotate(-0 23.662172 53.806251)">4</text>
     </g>
    </g>
    <g id="ytick_4">
     <g id="line2d_11">
      <path d="M 29.662172 28.517252 
L 258.17334 28.517252 
" clip-path="url(#p77901fc9d6)" style="fill: none; stroke: #eaeaea; stroke-width: 0.5; stroke-linecap: square"/>
     </g>
     <g id="line2d_12">
      <g>
       <use xlink:href="#m7cb700c62a" x="29.662172" y="28.517252" style="stroke: #000000; stroke-width: 0.6"/>
      </g>
     </g>
     <g id="text_4">
      <text style="font: 6.5px 'Arial'; text-anchor: end" x="23.662172" y="30.843541" transform="rotate(-0 23.662172 30.843541)">6</text>
     </g>
    </g>
    <g id="text_5">
     <text style="font: 7px 'Arial'" transform="translate(7.170469 73.474924) rotate(-90)">China</text>
     <text style="font: 7px 'Arial'" transform="translate(14.574281 75.026956) rotate(-90)">activity</text>
    </g>
   </g>
   <g id="line2d_13">
    <path d="M 40.049043 60.263161 
L 58.113167 90.118236 
L 61.123854 93.530353 
L 64.134542 94.095877 
L 67.145229 95.409105 
L 70.155916 94.843582 
L 73.166604 93.894717 
L 76.177291 93.511376 
L 79.187978 94.642423 
L 82.198666 95.409105 
L 85.209353 93.894717 
L 88.22004 95.025764 
L 91.230728 92.945853 
L 94.241415 94.6614 
L 97.252102 91.26826 
L 100.26279 90.884919 
L 103.273477 90.702737 
L 106.284164 92.399307 
L 109.294852 94.297036 
L 112.305539 94.297036 
L 115.316226 93.913695 
L 118.326914 94.862559 
L 121.337601 96.760289 
L 124.348288 98.274676 
L 127.358976 99.405723 
L 130.369663 99.971246 
L 133.38035 100.354588 
L 136.391038 100.920111 
L 139.401725 102.051157 
L 142.412412 102.616681 
L 145.4231 100.153428 
L 148.433787 98.63904 
L 151.444474 97.124653 
L 154.455162 97.124653 
L 157.465849 92.198148 
L 160.476536 95.811424 
L 163.487224 97.891335 
L 166.497911 92.744694 
L 169.508598 84.166958 
L 172.519286 75.243835 
L 175.529973 65.007484 
L 178.54066 52.653267 
L 181.551348 36.598478 
L 184.562035 36.674387 
L 187.572722 50.725174 
L 190.58341 67.967941 
L 193.594097 79.13418 
L 196.604784 83.476184 
L 199.615471 88.402689 
L 202.626159 89.734895 
L 205.636846 92.38033 
L 208.647533 94.460241 
L 211.658221 99.568928 
L 214.668908 98.255699 
L 217.679595 83.802594 
L 220.690283 101.265498 
L 223.70097 103.163227 
L 226.711657 101.265498 
L 229.722345 97.652221 
L 232.733032 96.137833 
L 235.743719 95.57231 
L 238.754407 95.006787 
" clip-path="url(#p77901fc9d6)" style="fill: none; stroke: #111111; stroke-width: 0.9; stroke-linecap: square"/>
   </g>
   <g id="line2d_14">
    <path d="M 40.049043 68.908255 
L 58.113167 85.951522 
L 61.123854 90.934731 
L 64.134542 92.486858 
L 67.145229 92.182295 
L 70.155916 93.218134 
L 73.166604 92.826018 
L 76.177291 92.317699 
L 79.187978 92.020349 
L 82.198666 92.993633 
L 85.209353 93.829107 
L 88.22004 92.469727 
L 91.230728 93.528228 
L 94.241415 91.610128 
L 97.252102 93.383715 
L 100.26279 90.148649 
L 103.273477 90.003087 
L 106.284164 90.218055 
L 109.294852 92.355256 
L 112.305539 94.615499 
L 115.316226 94.931728 
L 118.326914 94.572487 
L 121.337601 95.234572 
L 124.348288 96.574282 
L 127.358976 97.870636 
L 130.369663 99.004609 
L 133.38035 99.591054 
L 136.391038 99.618395 
L 139.401725 99.804733 
L 142.412412 100.627495 
L 145.4231 101.077126 
L 148.433787 98.557216 
L 151.444474 96.956858 
L 154.455162 95.405755 
L 157.465849 95.372083 
L 160.476536 90.316335 
L 163.487224 93.446871 
L 166.497911 94.621973 
L 169.508598 88.27817 
L 172.519286 78.491366 
L 175.529973 69.016953 
L 178.54066 59.688699 
L 181.551348 50.527932 
L 184.562035 39.157018 
L 187.572722 41.593404 
L 190.58341 55.864196 
L 193.594097 72.468628 
L 196.604784 82.649882 
L 199.615471 86.939164 
L 202.626159 91.189214 
L 205.636846 92.003122 
L 208.647533 94.088794 
L 211.658221 95.39159 
L 214.668908 99.977032 
L 217.679595 98.377647 
L 220.690283 83.695455 
L 223.70097 100.760593 
L 226.711657 102.085675 
L 229.722345 99.433304 
L 232.733032 95.68889 
L 235.743719 94.12449 
L 238.754407 93.694012 
" clip-path="url(#p77901fc9d6)" style="fill: none; stroke: #0072b2; stroke-width: 1.05; stroke-linecap: square"/>
   </g>
   <g id="patch_3">
    <path d="M 29.662172 108.959152 
L 29.662172 19.702103 
" style="fill: none; stroke: #000000; stroke-width: 0.6; stroke-linejoin: miter; stroke-linecap: square"/>
   </g>
   <g id="patch_4">
    <path d="M 29.662172 108.959152 
L 258.17334 108.959152 
" style="fill: none; stroke: #000000; stroke-width: 0.6; stroke-linejoin: miter; stroke-linecap: square"/>
   </g>
   <g id="text_6">
    <text style="font: 700 8px 'Arial'; text-anchor: start" x="15.951502" y="14.553071" transform="rotate(-0 15.951502 14.553071)">a</text>
   </g>
   <g id="text_7">
    <text style="font: 7px 'Arial'; text-anchor: middle" x="143.917756" y="17.702103" transform="rotate(-0 143.917756 17.702103)">1-week ahead</text>
   </g>
  </g>
  <g id="axes_2">
   <g id="patch_5">
    <path d="M 277.884572 108.959152 
L 506.39574 108.959152 
L 506.39574 19.702103 
L 277.884572 19.702103 
z
" style="fill: #ffffff"/>
   </g>
   <g id="line2d_15">
    <path d="M 277.884572 93.978937 
L 506.39574 93.978937 
" clip-path="url(#p941b1a07d8)" style="fill: none; stroke: #bbbbbb; stroke-width: 0.5; stroke-linecap: square"/>
   </g>
   <g id="PolyCollection_2">
    <defs>
     <path id="m8d27b849c3" d="M 297.303506 -299.827543 
L 297.303506 -270.891585 
L 315.36763 -252.398786 
L 318.378317 -249.290246 
L 321.389004 -250.216364 
L 324.399692 -253.123449 
L 327.410379 -253.636974 
L 330.421066 -255.177036 
L 333.431754 -256.102647 
L 336.442441 -257.278367 
L 339.453128 -256.811678 
L 342.463816 -256.512565 
L 345.474503 -257.903588 
L 348.48519 -256.83138 
L 351.495877 -257.93516 
L 354.506565 -256.432154 
L 357.517252 -258.69134 
L 360.527939 -258.214924 
L 363.538627 -257.340944 
L 366.549314 -255.078456 
L 369.560001 -253.140627 
L 372.570689 -252.965305 
L 375.581376 -253.203808 
L 378.592063 -252.53298 
L 381.602751 -251.139355 
L 384.613438 -250.197556 
L 387.624125 -249.92999 
L 390.634813 -250.441819 
L 393.6455 -250.16078 
L 396.656187 -249.94398 
L 399.666875 -249.133632 
L 402.677562 -248.962435 
L 405.688249 -251.395363 
L 408.698937 -252.657827 
L 411.709624 -254.048165 
L 414.720311 -254.339261 
L 417.730999 -258.575896 
L 420.741686 -255.439137 
L 423.752373 -253.529996 
L 426.763061 -258.00425 
L 429.773748 -265.163845 
L 432.784435 -273.629336 
L 435.795123 -278.941184 
L 438.80581 -284.117188 
L 441.816497 -290.554484 
L 444.827185 -287.472662 
L 447.837872 -276.097554 
L 450.848559 -263.206684 
L 453.859247 -255.90332 
L 456.869934 -252.839798 
L 459.880621 -252.879032 
L 462.891309 -254.676221 
L 465.901996 -248.467213 
L 468.912683 -248.529185 
L 471.923371 -245.911054 
L 474.934058 -248.516434 
L 477.944745 -261.784348 
L 480.955433 -247.715364 
L 483.96612 -247.434383 
L 486.976807 -249.955212 
L 489.987495 -252.494676 
L 492.998182 -254.48698 
L 496.008869 -254.407968 
L 496.008869 -269.082811 
L 496.008869 -269.082811 
L 492.998182 -268.481687 
L 489.987495 -266.11804 
L 486.976807 -261.943906 
L 483.96612 -259.460098 
L 480.955433 -262.029011 
L 477.944745 -279.801814 
L 474.934058 -268.344151 
L 471.923371 -267.743324 
L 468.912683 -271.533127 
L 465.901996 -271.827431 
L 462.891309 -281.303374 
L 459.880621 -279.330113 
L 456.869934 -275.533444 
L 453.859247 -279.593275 
L 450.848559 -289.049633 
L 447.837872 -304.881749 
L 444.827185 -319.181182 
L 441.816497 -327.053825 
L 438.80581 -323.239086 
L 435.795123 -318.385551 
L 432.784435 -311.106474 
L 429.773748 -294.748634 
L 426.763061 -283.45782 
L 423.752373 -275.782019 
L 420.741686 -275.320664 
L 417.730999 -276.52221 
L 414.720311 -270.593987 
L 411.709624 -269.811824 
L 408.698937 -267.47589 
L 405.688249 -266.638569 
L 402.677562 -264.168633 
L 399.666875 -264.10812 
L 396.656187 -263.967022 
L 393.6455 -262.889778 
L 390.634813 -261.556444 
L 387.624125 -261.522792 
L 384.613438 -262.136697 
L 381.602751 -263.032142 
L 378.592063 -264.710707 
L 375.581376 -265.688291 
L 372.570689 -265.890451 
L 369.560001 -266.910585 
L 366.549314 -270.173007 
L 363.538627 -273.054512 
L 360.527939 -273.798205 
L 357.517252 -273.545918 
L 354.506565 -270.018966 
L 351.495877 -271.834672 
L 348.48519 -268.545214 
L 345.474503 -269.486951 
L 342.463816 -268.250663 
L 339.453128 -270.023755 
L 336.442441 -272.54634 
L 333.431754 -274.575733 
L 330.421066 -276.250306 
L 327.410379 -277.117327 
L 324.399692 -278.590681 
L 321.389004 -278.058313 
L 318.378317 -277.87682 
L 315.36763 -280.186042 
L 297.303506 -299.827543 
z
"/>
    </defs>
    <g clip-path="url(#p941b1a07d8)">
     <use xlink:href="#m8d27b849c3" x="0" y="350.813067" style="fill: #a6cee3; fill-opacity: 0.45"/>
    </g>
   </g>
   <g id="matplotlib.axis_3">
    <g id="xtick_4">
     <g id="line2d_16">
      <g>
       <use xlink:href="#m6d6d2ae504" x="289.13164" y="108.959152" style="stroke: #000000; stroke-width: 0.6"/>
      </g>
     </g>
    </g>
    <g id="xtick_5">
     <g id="line2d_17">
      <g>
       <use xlink:href="#m6d6d2ae504" x="366.979412" y="108.959152" style="stroke: #000000; stroke-width: 0.6"/>
      </g>
     </g>
    </g>
    <g id="xtick_6">
     <g id="line2d_18">
      <g>
       <use xlink:href="#m6d6d2ae504" x="446.117479" y="108.959152" style="stroke: #000000; stroke-width: 0.6"/>
      </g>
     </g>
    </g>
   </g>
   <g id="matplotlib.axis_4">
    <g id="ytick_5">
     <g id="line2d_19">
      <path d="M 277.884572 93.978937 
L 506.39574 93.978937 
" clip-path="url(#p941b1a07d8)" style="fill: none; stroke: #eaeaea; stroke-width: 0.5; stroke-linecap: square"/>
     </g>
     <g id="line2d_20">
      <g>
       <use xlink:href="#m7cb700c62a" x="277.884572" y="93.978937" style="stroke: #000000; stroke-width: 0.6"/>
      </g>
     </g>
     <g id="text_8">
      <text style="font: 6.5px 'Arial'; text-anchor: end" x="271.884572" y="96.305226" transform="rotate(-0 271.884572 96.305226)">0</text>
     </g>
    </g>
    <g id="ytick_6">
     <g id="line2d_21">
      <path d="M 277.884572 73.235403 
L 506.39574 73.235403 
" clip-path="url(#p941b1a07d8)" style="fill: none; stroke: #eaeaea; stroke-width: 0.5; stroke-linecap: square"/>
     </g>
     <g id="line2d_22">
      <g>
       <use xlink:href="#m7cb700c62a" x="277.884572" y="73.235403" style="stroke: #000000; stroke-width: 0.6"/>
      </g>
     </g>
     <g id="text_9">
      <text style="font: 6.5px 'Arial'; text-anchor: end" x="271.884572" y="75.561693" transform="rotate(-0 271.884572 75.561693)">2</text>
     </g>
    </g>
    <g id="ytick_7">
     <g id="line2d_23">
      <path d="M 277.884572 52.49187 
L 506.39574 52.49187 
" clip-path="url(#p941b1a07d8)" style="fill: none; stroke: #eaeaea; stroke-width: 0.5; stroke-linecap: square"/>
     </g>
     <g id="line2d_24">
      <g>
       <use xlink:href="#m7cb700c62a" x="277.884572" y="52.49187" style="stroke: #000000; stroke-width: 0.6"/>
      </g>
     </g>
     <g id="text_10">
      <text style="font: 6.5px 'Arial'; text-anchor: end" x="271.884572" y="54.818159" transform="rotate(-0 271.884572 54.818159)">4</text>
     </g>
    </g>
    <g id="ytick_8">
     <g id="line2d_25">
      <path d="M 277.884572 31.748337 
L 506.39574 31.748337 
" clip-path="url(#p941b1a07d8)" style="fill: none; stroke: #eaeaea; stroke-width: 0.5; stroke-linecap: square"/>
     </g>
     <g id="line2d_26">
      <g>
       <use xlink:href="#m7cb700c62a" x="277.884572" y="31.748337" style="stroke: #000000; stroke-width: 0.6"/>
      </g>
     </g>
     <g id="text_11">
      <text style="font: 6.5px 'Arial'; text-anchor: end" x="271.884572" y="34.074626" transform="rotate(-0 271.884572 34.074626)">6</text>
     </g>
    </g>
   </g>
   <g id="line2d_27">
    <path d="M 297.303506 81.56047 
L 315.36763 92.175587 
L 318.378317 91.664717 
L 321.389004 90.807553 
L 324.399692 90.461259 
L 327.410379 91.482998 
L 330.421066 92.175587 
L 333.431754 90.807553 
L 336.442441 91.829293 
L 339.453128 89.95039 
L 342.463816 91.500142 
L 345.474503 88.434924 
L 348.48519 88.08863 
L 351.495877 87.924054 
L 354.506565 89.456663 
L 357.517252 91.170991 
L 360.527939 91.170991 
L 363.538627 90.824697 
L 366.549314 91.68186 
L 369.560001 93.396188 
L 372.570689 94.764222 
L 375.581376 95.785961 
L 378.592063 96.296831 
L 381.602751 96.643125 
L 384.613438 97.153994 
L 387.624125 98.175734 
L 390.634813 98.686603 
L 393.6455 96.461406 
L 396.656187 95.093373 
L 399.666875 93.725339 
L 402.677562 93.725339 
L 405.688249 89.274944 
L 408.698937 92.539024 
L 411.709624 94.417927 
L 414.720311 89.768671 
L 417.730999 82.01991 
L 420.741686 73.959141 
L 423.752373 64.712057 
L 426.763061 53.551784 
L 429.773748 39.048572 
L 432.784435 39.117145 
L 435.795123 51.810027 
L 438.80581 67.386409 
L 441.816497 77.473513 
L 444.827185 81.395894 
L 447.837872 85.846289 
L 450.848559 87.049747 
L 453.859247 89.43952 
L 456.869934 91.318423 
L 459.880621 95.933393 
L 462.891309 94.747078 
L 465.901996 81.690759 
L 468.912683 97.466002 
L 471.923371 99.18033 
L 474.934058 97.466002 
L 477.944745 94.201922 
L 480.955433 92.833889 
L 483.96612 92.323019 
L 486.976807 91.812149 
L 489.987495 92.158444 
L 492.998182 90.444116 
L 496.008869 90.807553 
" clip-path="url(#p941b1a07d8)" style="fill: none; stroke: #111111; stroke-width: 0.9; stroke-linecap: square"/>
   </g>
   <g id="line2d_28">
    <path d="M 297.303506 64.393369 
L 315.36763 85.889476 
L 318.378317 87.18869 
L 321.389004 86.183634 
L 324.399692 84.338509 
L 327.410379 84.453466 
L 330.421066 84.109192 
L 333.431754 85.264395 
L 336.442441 85.951484 
L 339.453128 87.770509 
L 342.463816 88.988849 
L 345.474503 87.435327 
L 348.48519 88.176173 
L 351.495877 85.524555 
L 354.506565 87.262205 
L 357.517252 84.572742 
L 360.527939 84.773554 
L 363.538627 85.679373 
L 366.549314 88.407847 
L 369.560001 91.167165 
L 372.570689 91.927093 
L 375.581376 91.969919 
L 378.592063 92.739525 
L 381.602751 94.002684 
L 384.613438 94.744579 
L 387.624125 95.055365 
L 390.634813 95.000243 
L 393.6455 94.361243 
L 396.656187 93.595032 
L 399.666875 93.722894 
L 402.677562 93.801944 
L 405.688249 91.455165 
L 408.698937 90.718177 
L 411.709624 88.859937 
L 414.720311 88.282054 
L 417.730999 83.391274 
L 420.741686 85.117412 
L 423.752373 85.210222 
L 426.763061 78.341165 
L 429.773748 69.000495 
L 432.784435 55.357541 
L 435.795123 50.353972 
L 438.80581 48.342752 
L 441.816497 46.162792 
L 444.827185 52.628858 
L 447.837872 65.46636 
L 450.848559 79.423353 
L 453.859247 86.943928 
L 456.869934 89.885269 
L 459.880621 85.969406 
L 462.891309 83.753452 
L 465.901996 92.10712 
L 468.912683 91.941351 
L 471.923371 94.562349 
L 474.934058 92.612315 
L 477.944745 80.398516 
L 480.955433 96.186837 
L 483.96612 97.763943 
L 486.976807 94.819086 
L 489.987495 91.063296 
L 492.998182 88.739164 
L 496.008869 88.277777 
" clip-path="url(#p941b1a07d8)" style="fill: none; stroke: #0072b2; stroke-width: 1.05; stroke-linecap: square"/>
   </g>
   <g id="patch_6">
    <path d="M 277.884572 108.959152 
L 277.884572 19.702103 
" style="fill: none; stroke: #000000; stroke-width: 0.6; stroke-linejoin: miter; stroke-linecap: square"/>
   </g>
   <g id="patch_7">
    <path d="M 277.884572 108.959152 
L 506.39574 108.959152 
" style="fill: none; stroke: #000000; stroke-width: 0.6; stroke-linejoin: miter; stroke-linecap: square"/>
   </g>
   <g id="text_12">
    <text style="font: 700 8px 'Arial'; text-anchor: start" x="264.173902" y="14.553071" transform="rotate(-0 264.173902 14.553071)">b</text>
   </g>
   <g id="text_13">
    <text style="font: 7px 'Arial'; text-anchor: middle" x="392.140156" y="17.702103" transform="rotate(-0 392.140156 17.702103)">4-week ahead</text>
   </g>
  </g>
  <g id="axes_3">
   <g id="patch_8">
    <path d="M 29.662172 217.592008 
L 258.17334 217.592008 
L 258.17334 128.33496 
L 29.662172 128.33496 
z
" style="fill: #ffffff"/>
   </g>
   <g id="line2d_29">
    <path d="M 29.662172 201.393345 
L 258.17334 201.393345 
" clip-path="url(#pd48a8d3e90)" style="fill: none; stroke: #bbbbbb; stroke-width: 0.5; stroke-linecap: square"/>
   </g>
   <g id="PolyCollection_3">
    <defs>
     <path id="m8970b2386a" d="M 40.049043 -203.276714 
L 40.049043 -188.703633 
L 43.05973 -183.822939 
L 46.070418 -174.261709 
L 49.081105 -177.715432 
L 52.091792 -190.190587 
L 55.10248 -195.751292 
L 58.113167 -194.293461 
L 61.123854 -185.838257 
L 64.134542 -177.258082 
L 67.145229 -167.449942 
L 70.155916 -162.601205 
L 73.166604 -158.990498 
L 76.177291 -154.365729 
L 79.187978 -151.580616 
L 82.198666 -148.739729 
L 85.209353 -147.625575 
L 88.22004 -146.59927 
L 91.230728 -145.975443 
L 94.241415 -144.556297 
L 97.252102 -143.706043 
L 100.26279 -143.483197 
L 103.273477 -143.075795 
L 106.284164 -143.249365 
L 109.294852 -141.171755 
L 112.305539 -139.533458 
L 115.316226 -138.961108 
L 118.326914 -137.837414 
L 121.337601 -137.427226 
L 124.348288 -138.154054 
L 127.358976 -137.344221 
L 130.369663 -137.278198 
L 133.38035 -137.743089 
L 136.391038 -138.871409 
L 139.401725 -139.451978 
L 142.412412 -141.798417 
L 145.4231 -145.026335 
L 148.433787 -145.085479 
L 151.444474 -144.603888 
L 154.455162 -144.28838 
L 157.465849 -143.913881 
L 160.476536 -143.197939 
L 163.487224 -143.38926 
L 166.497911 -143.973245 
L 169.508598 -144.400289 
L 172.519286 -145.255099 
L 175.529973 -148.234719 
L 178.54066 -149.714567 
L 181.551348 -152.221592 
L 184.562035 -156.445877 
L 187.572722 -159.514483 
L 190.58341 -167.625748 
L 193.594097 -185.509535 
L 196.604784 -203.821933 
L 199.615471 -192.413639 
L 202.626159 -174.303677 
L 205.636846 -165.095367 
L 208.647533 -169.231611 
L 211.658221 -167.055048 
L 214.668908 -168.903814 
L 217.679595 -168.543833 
L 220.690283 -167.047759 
L 223.70097 -161.366862 
L 226.711657 -160.117394 
L 229.722345 -154.947337 
L 232.733032 -151.505557 
L 235.743719 -149.599831 
L 238.754407 -147.353898 
L 238.754407 -151.631793 
L 238.754407 -151.631793 
L 235.743719 -154.533261 
L 232.733032 -157.177615 
L 229.722345 -161.122839 
L 226.711657 -165.918091 
L 223.70097 -168.919263 
L 220.690283 -175.144665 
L 217.679595 -177.351197 
L 214.668908 -178.108642 
L 211.658221 -175.60026 
L 208.647533 -180.429004 
L 205.636846 -176.905394 
L 202.626159 -190.137616 
L 199.615471 -208.821629 
L 196.604784 -218.420969 
L 193.594097 -199.099571 
L 190.58341 -180.147534 
L 187.572722 -170.483643 
L 184.562035 -165.749979 
L 181.551348 -160.289117 
L 178.54066 -156.701069 
L 175.529973 -154.54936 
L 172.519286 -151.070488 
L 169.508598 -149.744192 
L 166.497911 -148.854498 
L 163.487224 -147.745224 
L 160.476536 -147.084272 
L 157.465849 -147.465003 
L 154.455162 -147.670214 
L 151.444474 -147.861577 
L 148.433787 -148.273496 
L 145.4231 -148.112247 
L 142.412412 -144.711497 
L 139.401725 -142.098276 
L 136.391038 -141.193045 
L 133.38035 -140.013104 
L 130.369663 -139.458208 
L 127.358976 -139.441862 
L 124.348288 -140.179984 
L 121.337601 -139.566444 
L 118.326914 -140.233073 
L 115.316226 -141.600505 
L 112.305539 -142.42868 
L 109.294852 -144.320882 
L 106.284164 -146.414021 
L 103.273477 -146.259526 
L 100.26279 -146.709038 
L 97.252102 -147.055337 
L 94.241415 -148.056157 
L 91.230728 -149.748141 
L 88.22004 -150.824056 
L 85.209353 -152.311306 
L 82.198666 -153.901932 
L 79.187978 -157.323771 
L 76.177291 -161.006369 
L 73.166604 -166.665638 
L 70.155916 -171.517284 
L 67.145229 -177.908319 
L 64.134542 -187.677581 
L 61.123854 -197.703813 
L 58.113167 -207.130377 
L 55.10248 -207.459744 
L 52.091792 -200.925464 
L 49.081105 -191.009804 
L 46.070418 -188.977663 
L 43.05973 -198.58558 
L 40.049043 -203.276714 
z
"/>
    </defs>
    <g clip-path="url(#pd48a8d3e90)">
     <use xlink:href="#m8970b2386a" x="0" y="350.813067" style="fill: #a6cee3; fill-opacity: 0.45"/>
    </g>
   </g>
   <g id="matplotlib.axis_5">
    <g id="xtick_7">
     <g id="line2d_30">
      <g>
       <use xlink:href="#m6d6d2ae504" x="40.90924" y="217.592008" style="stroke: #000000; stroke-width: 0.6"/>
      </g>
     </g>
    </g>
    <g id="xtick_8">
     <g id="line2d_31">
      <g>
       <use xlink:href="#m6d6d2ae504" x="118.757012" y="217.592008" style="stroke: #000000; stroke-width: 0.6"/>
      </g>
     </g>
    </g>
    <g id="xtick_9">
     <g id="line2d_32">
      <g>
       <use xlink:href="#m6d6d2ae504" x="197.895079" y="217.592008" style="stroke: #000000; stroke-width: 0.6"/>
      </g>
     </g>
    </g>
   </g>
   <g id="matplotlib.axis_6">
    <g id="ytick_9">
     <g id="line2d_33">
      <path d="M 29.662172 201.393345 
L 258.17334 201.393345 
" clip-path="url(#pd48a8d3e90)" style="fill: none; stroke: #eaeaea; stroke-width: 0.5; stroke-linecap: square"/>
     </g>
     <g id="line2d_34">
      <g>
       <use xlink:href="#m7cb700c62a" x="29.662172" y="201.393345" style="stroke: #000000; stroke-width: 0.6"/>
      </g>
     </g>
     <g id="text_14">
      <text style="font: 6.5px 'Arial'; text-anchor: end" x="23.662172" y="203.719634" transform="rotate(-0 23.662172 203.719634)">0</text>
     </g>
    </g>
    <g id="ytick_10">
     <g id="line2d_35">
      <path d="M 29.662172 172.819952 
L 258.17334 172.819952 
" clip-path="url(#pd48a8d3e90)" style="fill: none; stroke: #eaeaea; stroke-width: 0.5; stroke-linecap: square"/>
     </g>
     <g id="line2d_36">
      <g>
       <use xlink:href="#m7cb700c62a" x="29.662172" y="172.819952" style="stroke: #000000; stroke-width: 0.6"/>
      </g>
     </g>
     <g id="text_15">
      <text style="font: 6.5px 'Arial'; text-anchor: end" x="23.662172" y="175.146241" transform="rotate(-0 23.662172 175.146241)">2</text>
     </g>
    </g>
    <g id="ytick_11">
     <g id="line2d_37">
      <path d="M 29.662172 144.246559 
L 258.17334 144.246559 
" clip-path="url(#pd48a8d3e90)" style="fill: none; stroke: #eaeaea; stroke-width: 0.5; stroke-linecap: square"/>
     </g>
     <g id="line2d_38">
      <g>
       <use xlink:href="#m7cb700c62a" x="29.662172" y="144.246559" style="stroke: #000000; stroke-width: 0.6"/>
      </g>
     </g>
     <g id="text_16">
      <text style="font: 6.5px 'Arial'; text-anchor: end" x="23.662172" y="146.572848" transform="rotate(-0 23.662172 146.572848)">4</text>
     </g>
    </g>
    <g id="text_17">
     <text style="font: 7px 'Arial'" transform="translate(7.170469 193.974421) rotate(-90)">United States</text>
     <text style="font: 7px 'Arial'" transform="translate(14.574281 183.659812) rotate(-90)">activity</text>
    </g>
   </g>
   <g id="line2d_39">
    <path d="M 40.049043 161.34828 
L 43.05973 170.649596 
L 46.070418 166.331933 
L 49.081105 154.163447 
L 52.091792 146.203228 
L 55.10248 145.76407 
L 58.113167 154.653677 
L 61.123854 164.811154 
L 64.134542 174.875114 
L 67.145229 180.827953 
L 70.155916 185.305104 
L 73.166604 190.772419 
L 76.177291 194.226177 
L 79.187978 197.545051 
L 82.198666 199.022894 
L 85.209353 200.405064 
L 88.22004 201.41591 
L 91.230728 203.052556 
L 94.241415 204.062324 
L 97.252102 204.3814 
L 100.26279 204.851141 
L 103.273477 204.752625 
L 106.284164 206.928317 
L 109.294852 208.88198 
L 112.305539 209.71432 
L 115.316226 211.087668 
L 118.326914 211.792378 
L 121.337601 211.318128 
L 124.348288 212.288783 
L 127.358976 212.533261 
L 130.369663 212.279373 
L 133.38035 211.384099 
L 136.391038 210.753791 
L 139.401725 208.364891 
L 142.412412 205.095913 
L 145.4231 204.978085 
L 148.433787 205.456551 
L 151.444474 205.780626 
L 154.455162 206.163811 
L 157.465849 206.828722 
L 160.476536 206.589735 
L 163.487224 205.978835 
L 166.497911 205.575849 
L 169.508598 204.730177 
L 172.519286 201.828895 
L 175.529973 200.439863 
L 178.54066 197.86295 
L 181.551348 193.553521 
L 184.562035 190.396685 
L 187.572722 182.211299 
L 190.58341 163.753549 
L 193.594097 141.483559 
L 196.604784 152.385742 
L 199.615471 170.752915 
L 202.626159 179.706925 
L 205.636846 176.29326 
L 208.647533 179.294038 
L 211.658221 177.473299 
L 214.668908 177.860307 
L 217.679595 179.339621 
L 220.690283 184.685089 
L 223.70097 186.35673 
L 226.711657 190.576661 
L 229.722345 194.234999 
L 232.733032 196.627623 
L 235.743719 199.446073 
L 238.754407 202.20061 
" clip-path="url(#pd48a8d3e90)" style="fill: none; stroke: #111111; stroke-width: 0.9; stroke-linecap: square"/>
   </g>
   <g id="line2d_40">
    <path d="M 40.049043 154.214417 
L 43.05973 159.65277 
L 46.070418 169.865476 
L 49.081105 167.1594 
L 52.091792 156.094537 
L 55.10248 150.267413 
L 58.113167 151.408413 
L 61.123854 160.370003 
L 64.134542 169.28519 
L 67.145229 178.941996 
L 70.155916 184.246381 
L 73.166604 188.141066 
L 76.177291 192.965597 
L 79.187978 195.866655 
L 82.198666 198.85509 
L 85.209353 200.241945 
L 88.22004 201.500783 
L 91.230728 202.282067 
L 94.241415 203.739982 
L 97.252102 204.658691 
L 100.26279 204.963527 
L 103.273477 205.432388 
L 106.284164 205.352794 
L 109.294852 207.504491 
L 112.305539 209.362459 
L 115.316226 210.212833 
L 118.326914 211.560669 
L 121.337601 212.15025 
L 124.348288 211.55507 
L 127.358976 212.339248 
L 130.369663 212.384632 
L 133.38035 212.052545 
L 136.391038 211.119454 
L 139.401725 210.437957 
L 142.412412 207.915211 
L 145.4231 204.570196 
L 148.433787 204.405725 
L 151.444474 204.768086 
L 154.455162 204.913582 
L 157.465849 205.057636 
L 160.476536 205.469818 
L 163.487224 204.996905 
L 166.497911 204.152638 
L 169.508598 203.540289 
L 172.519286 202.537168 
L 175.529973 199.435568 
L 178.54066 197.805284 
L 181.551348 194.921369 
L 184.562035 190.205757 
L 187.572722 186.346496 
L 190.58341 177.22243 
L 193.594097 158.27782 
L 196.604784 139.052419 
L 199.615471 150.619395 
L 202.626159 169.667855 
L 205.636846 180.986032 
L 208.647533 176.314071 
L 211.658221 180.005756 
L 214.668908 177.80824 
L 217.679595 178.336396 
L 220.690283 179.910501 
L 223.70097 185.524067 
L 226.711657 187.985518 
L 229.722345 192.309856 
L 232.733032 195.789014 
L 235.743719 198.007573 
L 238.754407 200.668387 
" clip-path="url(#pd48a8d3e90)" style="fill: none; stroke: #0072b2; stroke-width: 1.05; stroke-linecap: square"/>
   </g>
   <g id="patch_9">
    <path d="M 29.662172 217.592008 
L 29.662172 128.33496 
" style="fill: none; stroke: #000000; stroke-width: 0.6; stroke-linejoin: miter; stroke-linecap: square"/>
   </g>
   <g id="patch_10">
    <path d="M 29.662172 217.592008 
L 258.17334 217.592008 
" style="fill: none; stroke: #000000; stroke-width: 0.6; stroke-linejoin: miter; stroke-linecap: square"/>
   </g>
   <g id="text_18">
    <text style="font: 700 8px 'Arial'; text-anchor: start" x="15.951502" y="123.185928" transform="rotate(-0 15.951502 123.185928)">c</text>
   </g>
  </g>
  <g id="axes_4">
   <g id="patch_11">
    <path d="M 277.884572 217.592008 
L 506.39574 217.592008 
L 506.39574 128.33496 
L 277.884572 128.33496 
z
" style="fill: #ffffff"/>
   </g>
   <g id="line2d_41">
    <path d="M 277.884572 201.627432 
L 506.39574 201.627432 
" clip-path="url(#p1860ab7581)" style="fill: none; stroke: #bbbbbb; stroke-width: 0.5; stroke-linecap: square"/>
   </g>
   <g id="PolyCollection_4">
    <defs>
     <path id="m83fd09c8ec" d="M 297.303506 -205.196507 
L 297.303506 -179.158867 
L 300.314193 -173.685624 
L 303.32488 -164.639903 
L 306.335568 -166.823654 
L 309.346255 -174.487118 
L 312.356942 -177.020667 
L 315.36763 -174.282366 
L 318.378317 -168.072899 
L 321.389004 -163.194974 
L 324.399692 -156.010749 
L 327.410379 -153.467992 
L 330.421066 -151.648118 
L 333.431754 -148.753542 
L 336.442441 -144.756458 
L 339.453128 -145.762265 
L 342.463816 -145.176877 
L 345.474503 -143.957636 
L 348.48519 -143.561297 
L 351.495877 -143.31376 
L 354.506565 -142.573697 
L 357.517252 -142.308403 
L 360.527939 -141.906929 
L 363.538627 -142.011448 
L 366.549314 -140.20725 
L 369.560001 -138.764561 
L 372.570689 -138.35417 
L 375.581376 -137.513804 
L 378.592063 -137.278198 
L 381.602751 -138.072809 
L 384.613438 -137.652148 
L 387.624125 -137.938102 
L 390.634813 -138.751061 
L 393.6455 -140.107697 
L 396.656187 -141.009167 
L 399.666875 -143.306233 
L 402.677562 -146.320024 
L 405.688249 -146.5245 
L 408.698937 -146.155188 
L 411.709624 -145.942094 
L 414.720311 -145.741448 
L 417.730999 -145.324563 
L 420.741686 -145.740186 
L 423.752373 -146.446167 
L 426.763061 -146.953064 
L 429.773748 -147.856015 
L 432.784435 -150.570735 
L 435.795123 -152.14789 
L 438.80581 -154.941948 
L 441.816497 -159.405022 
L 444.827185 -162.656018 
L 447.837872 -169.416849 
L 450.848559 -182.98232 
L 453.859247 -191.191719 
L 456.869934 -179.801255 
L 459.880621 -163.597834 
L 462.891309 -157.218379 
L 465.901996 -158.824658 
L 468.912683 -157.247167 
L 471.923371 -159.144905 
L 474.934058 -158.729019 
L 477.944745 -158.816881 
L 480.955433 -153.328795 
L 483.96612 -151.862815 
L 486.976807 -148.319362 
L 489.987495 -146.385994 
L 492.998182 -145.520665 
L 496.008869 -144.348378 
L 496.008869 -151.908908 
L 496.008869 -151.908908 
L 492.998182 -153.318919 
L 489.987495 -154.647176 
L 486.976807 -157.002298 
L 483.96612 -161.121082 
L 480.955433 -163.124029 
L 477.944745 -169.185144 
L 474.934058 -170.008612 
L 471.923371 -171.390641 
L 468.912683 -170.396963 
L 465.901996 -173.413539 
L 462.891309 -178.029613 
L 459.880621 -188.911942 
L 456.869934 -207.369873 
L 453.859247 -218.420969 
L 450.848559 -208.675788 
L 447.837872 -193.737062 
L 444.827185 -184.826766 
L 441.816497 -178.928076 
L 438.80581 -172.229979 
L 435.795123 -167.645819 
L 432.784435 -164.491814 
L 429.773748 -160.474829 
L 426.763061 -158.317815 
L 423.752373 -156.622201 
L 420.741686 -154.886431 
L 417.730999 -153.425718 
L 414.720311 -152.890337 
L 411.709624 -152.446767 
L 408.698937 -152.256345 
L 405.688249 -152.466468 
L 402.677562 -152.256411 
L 399.666875 -149.043079 
L 396.656187 -146.367921 
L 393.6455 -145.232317 
L 390.634813 -143.715572 
L 387.624125 -142.620483 
L 384.613438 -142.088235 
L 381.602751 -142.388107 
L 378.592063 -141.500778 
L 375.581376 -141.697534 
L 372.570689 -142.591224 
L 369.560001 -143.043278 
L 366.549314 -144.465214 
L 363.538627 -146.165056 
L 360.527939 -145.951228 
L 357.517252 -146.295167 
L 354.506565 -146.493667 
L 351.495877 -147.226396 
L 348.48519 -152.211669 
L 345.474503 -152.902701 
L 342.463816 -154.32417 
L 339.453128 -155.106632 
L 336.442441 -154.259442 
L 333.431754 -155.638603 
L 330.421066 -159.873619 
L 327.410379 -163.264401 
L 324.399692 -167.657377 
L 321.389004 -176.786691 
L 318.378317 -184.658735 
L 315.36763 -190.614129 
L 312.356942 -192.318496 
L 309.346255 -190.281676 
L 306.335568 -186.844183 
L 303.32488 -189.155127 
L 300.314193 -199.852141 
L 297.303506 -205.196507 
z
"/>
    </defs>
    <g clip-path="url(#p1860ab7581)">
     <use xlink:href="#m83fd09c8ec" x="0" y="350.813067" style="fill: #a6cee3; fill-opacity: 0.45"/>
    </g>
   </g>
   <g id="matplotlib.axis_7">
    <g id="xtick_10">
     <g id="line2d_42">
      <g>
       <use xlink:href="#m6d6d2ae504" x="289.13164" y="217.592008" style="stroke: #000000; stroke-width: 0.6"/>
      </g>
     </g>
    </g>
    <g id="xtick_11">
     <g id="line2d_43">
      <g>
       <use xlink:href="#m6d6d2ae504" x="366.979412" y="217.592008" style="stroke: #000000; stroke-width: 0.6"/>
      </g>
     </g>
    </g>
    <g id="xtick_12">
     <g id="line2d_44">
      <g>
       <use xlink:href="#m6d6d2ae504" x="446.117479" y="217.592008" style="stroke: #000000; stroke-width: 0.6"/>
      </g>
     </g>
    </g>
   </g>
   <g id="matplotlib.axis_8">
    <g id="ytick_12">
     <g id="line2d_45">
      <path d="M 277.884572 201.627432 
L 506.39574 201.627432 
" clip-path="url(#p1860ab7581)" style="fill: none; stroke: #eaeaea; stroke-width: 0.5; stroke-linecap: square"/>
     </g>
     <g id="line2d_46">
      <g>
       <use xlink:href="#m7cb700c62a" x="277.884572" y="201.627432" style="stroke: #000000; stroke-width: 0.6"/>
      </g>
     </g>
     <g id="text_19">
      <text style="font: 6.5px 'Arial'; text-anchor: end" x="271.884572" y="203.953721" transform="rotate(-0 271.884572 203.953721)">0</text>
     </g>
    </g>
    <g id="ytick_13">
     <g id="line2d_47">
      <path d="M 277.884572 176.670777 
L 506.39574 176.670777 
" clip-path="url(#p1860ab7581)" style="fill: none; stroke: #eaeaea; stroke-width: 0.5; stroke-linecap: square"/>
     </g>
     <g id="line2d_48">
      <g>
       <use xlink:href="#m7cb700c62a" x="277.884572" y="176.670777" style="stroke: #000000; stroke-width: 0.6"/>
      </g>
     </g>
     <g id="text_20">
      <text style="font: 6.5px 'Arial'; text-anchor: end" x="271.884572" y="178.997066" transform="rotate(-0 271.884572 178.997066)">2</text>
     </g>
    </g>
    <g id="ytick_14">
     <g id="line2d_49">
      <path d="M 277.884572 151.714121 
L 506.39574 151.714121 
" clip-path="url(#p1860ab7581)" style="fill: none; stroke: #eaeaea; stroke-width: 0.5; stroke-linecap: square"/>
     </g>
     <g id="line2d_50">
      <g>
       <use xlink:href="#m7cb700c62a" x="277.884572" y="151.714121" style="stroke: #000000; stroke-width: 0.6"/>
      </g>
     </g>
     <g id="text_21">
      <text style="font: 6.5px 'Arial'; text-anchor: end" x="271.884572" y="154.04041" transform="rotate(-0 271.884572 154.04041)">4</text>
     </g>
    </g>
   </g>
   <g id="line2d_51">
    <path d="M 297.303506 160.375759 
L 300.314193 153.423121 
L 303.32488 153.03955 
L 306.335568 160.803936 
L 309.346255 169.675709 
L 312.356942 178.465803 
L 315.36763 183.665148 
L 318.378317 187.575595 
L 321.389004 192.350873 
L 324.399692 195.367464 
L 327.410379 198.266244 
L 330.421066 199.557027 
L 333.431754 200.764245 
L 336.442441 201.647142 
L 339.453128 203.076626 
L 342.463816 203.95858 
L 345.474503 204.237268 
L 348.48519 204.647551 
L 351.495877 204.561505 
L 354.506565 206.461804 
L 357.517252 208.168178 
L 360.527939 208.895163 
L 363.538627 210.094676 
L 366.549314 210.710186 
L 369.560001 210.295965 
L 372.570689 211.143758 
L 375.581376 211.35729 
L 378.592063 211.135538 
L 381.602751 210.353586 
L 384.613438 209.80306 
L 387.624125 207.716541 
L 390.634813 204.86134 
L 393.6455 204.758427 
L 396.656187 205.17633 
L 399.666875 205.459384 
L 402.677562 205.794066 
L 405.688249 206.374816 
L 408.698937 206.166078 
L 411.709624 205.632505 
L 414.720311 205.280528 
L 417.730999 204.541898 
L 420.741686 202.007852 
L 423.752373 200.79464 
L 426.763061 198.543905 
L 429.773748 194.779951 
L 432.784435 192.022698 
L 435.795123 184.873394 
L 438.80581 168.751973 
L 441.816497 149.300854 
L 444.827185 158.82307 
L 447.837872 174.86538 
L 450.848559 182.686017 
L 453.859247 179.704443 
L 456.869934 182.325392 
L 459.880621 180.735117 
L 462.891309 181.073138 
L 465.901996 182.365205 
L 468.912683 187.034059 
L 471.923371 188.494109 
L 474.934058 192.179893 
L 477.944745 195.37517 
L 480.955433 197.464942 
L 483.96612 199.926641 
L 486.976807 202.332517 
L 489.987495 204.126992 
L 492.998182 204.65988 
L 496.008869 205.175645 
" clip-path="url(#p1860ab7581)" style="fill: none; stroke: #111111; stroke-width: 0.9; stroke-linecap: square"/>
   </g>
   <g id="line2d_52">
    <path d="M 297.303506 158.698308 
L 300.314193 164.371494 
L 303.32488 174.133703 
L 306.335568 173.959078 
L 309.346255 168.56326 
L 312.356942 166.618739 
L 315.36763 169.224151 
L 318.378317 175.754239 
L 321.389004 181.522939 
L 324.399692 189.841523 
L 327.410379 192.816972 
L 330.421066 195.161177 
L 333.431754 198.594168 
L 336.442441 201.612681 
L 339.453128 200.770199 
L 342.463816 201.519767 
L 345.474503 202.893261 
L 348.48519 203.390477 
L 351.495877 205.698253 
L 354.506565 206.443725 
L 357.517252 206.675945 
L 360.527939 207.034458 
L 363.538627 206.898228 
L 366.549314 208.703852 
L 369.560001 210.203859 
L 372.570689 210.669646 
L 375.581376 211.524829 
L 378.592063 211.693641 
L 381.602751 210.836252 
L 384.613438 211.14821 
L 387.624125 210.692942 
L 390.634813 209.766568 
L 393.6455 208.405952 
L 396.656187 207.343253 
L 399.666875 204.802234 
L 402.677562 201.729368 
L 405.688249 201.511848 
L 408.698937 201.715153 
L 411.709624 201.602284 
L 414.720311 201.330317 
L 417.730999 201.248555 
L 420.741686 200.254352 
L 423.752373 198.898428 
L 426.763061 197.744413 
L 429.773748 196.182137 
L 432.784435 192.817315 
L 435.795123 190.464557 
L 438.80581 186.79351 
L 441.816497 181.188503 
L 444.827185 176.689802 
L 447.837872 168.869217 
L 450.848559 154.927897 
L 453.859247 146.291455 
L 456.869934 157.722806 
L 459.880621 175.282233 
L 462.891309 183.101747 
L 465.901996 184.275312 
L 468.912683 186.747792 
L 471.923371 185.53844 
L 474.934058 186.509783 
L 477.944745 186.941861 
L 480.955433 192.774203 
L 483.96612 194.505674 
L 486.976807 198.331544 
L 489.987495 200.407149 
L 492.998182 201.489176 
L 496.008869 202.836595 
" clip-path="url(#p1860ab7581)" style="fill: none; stroke: #0072b2; stroke-width: 1.05; stroke-linecap: square"/>
   </g>
   <g id="patch_12">
    <path d="M 277.884572 217.592008 
L 277.884572 128.33496 
" style="fill: none; stroke: #000000; stroke-width: 0.6; stroke-linejoin: miter; stroke-linecap: square"/>
   </g>
   <g id="patch_13">
    <path d="M 277.884572 217.592008 
L 506.39574 217.592008 
" style="fill: none; stroke: #000000; stroke-width: 0.6; stroke-linejoin: miter; stroke-linecap: square"/>
   </g>
   <g id="text_22">
    <text style="font: 700 8px 'Arial'; text-anchor: start" x="264.173902" y="123.185928" transform="rotate(-0 264.173902 123.185928)">d</text>
   </g>
  </g>
  <g id="axes_5">
   <g id="patch_14">
    <path d="M 29.662172 326.224864 
L 258.17334 326.224864 
L 258.17334 236.967816 
L 29.662172 236.967816 
z
" style="fill: #ffffff"/>
   </g>
   <g id="line2d_53">
    <path d="M 29.662172 316.944009 
L 258.17334 316.944009 
" clip-path="url(#p8665d36c82)" style="fill: none; stroke: #bbbbbb; stroke-width: 0.5; stroke-linecap: square"/>
   </g>
   <g id="PolyCollection_5">
    <defs>
     <path id="m2ce9d17d49" d="M 40.049043 -109.788113 
L 40.049043 -98.209396 
L 43.05973 -56.074173 
L 46.070418 -61.80466 
L 49.081105 -41.759843 
L 52.091792 -36.016073 
L 55.10248 -29.634256 
L 58.113167 -29.790174 
L 61.123854 -28.997948 
L 64.134542 -28.703688 
L 67.145229 -28.645342 
L 70.155916 -28.821451 
L 73.166604 -28.865161 
L 76.177291 -28.645342 
L 79.187978 -28.684047 
L 82.198666 -28.645342 
L 85.209353 -28.645342 
L 88.22004 -28.645342 
L 91.230728 -28.645342 
L 94.241415 -28.645342 
L 97.252102 -28.645342 
L 100.26279 -28.645342 
L 103.273477 -28.645342 
L 106.284164 -28.645342 
L 109.294852 -28.645342 
L 112.305539 -28.645342 
L 115.316226 -28.645342 
L 118.326914 -28.645342 
L 121.337601 -28.645342 
L 124.348288 -28.645342 
L 127.358976 -28.645342 
L 130.369663 -28.645342 
L 133.38035 -28.645342 
L 136.391038 -28.645342 
L 139.401725 -28.645342 
L 142.412412 -28.645342 
L 145.4231 -28.645342 
L 148.433787 -28.706197 
L 151.444474 -28.789021 
L 154.455162 -28.799445 
L 157.465849 -28.892569 
L 160.476536 -29.203585 
L 163.487224 -30.143658 
L 166.497911 -31.036676 
L 169.508598 -33.612453 
L 172.519286 -43.080101 
L 175.529973 -49.551204 
L 178.54066 -60.469189 
L 181.551348 -65.428361 
L 184.562035 -63.797766 
L 187.572722 -56.429078 
L 190.58341 -54.06683 
L 193.594097 -49.807852 
L 196.604784 -40.628724 
L 199.615471 -28.750399 
L 202.626159 -30.450105 
L 205.636846 -35.547124 
L 208.647533 -39.954185 
L 211.658221 -50.930691 
L 214.668908 -61.394305 
L 217.679595 -56.6025 
L 220.690283 -48.696047 
L 223.70097 -38.637326 
L 226.711657 -32.705811 
L 229.722345 -31.733519 
L 232.733032 -30.965258 
L 235.743719 -29.227724 
L 238.754407 -28.645342 
L 238.754407 -33.696281 
L 238.754407 -33.696281 
L 235.743719 -36.097336 
L 232.733032 -38.840081 
L 229.722345 -39.975585 
L 226.711657 -41.088663 
L 223.70097 -47.193824 
L 220.690283 -57.409553 
L 217.679595 -65.120222 
L 214.668908 -69.54047 
L 211.658221 -58.908074 
L 208.647533 -48.05588 
L 205.636846 -43.961839 
L 202.626159 -41.360105 
L 199.615471 -39.8984 
L 196.604784 -52.461367 
L 193.594097 -61.87483 
L 190.58341 -66.560512 
L 187.572722 -68.939891 
L 184.562035 -75.75176 
L 181.551348 -72.379551 
L 178.54066 -66.548642 
L 175.529973 -54.766242 
L 172.519286 -47.738835 
L 169.508598 -38.443672 
L 166.497911 -35.334901 
L 163.487224 -34.326342 
L 160.476536 -33.28286 
L 157.465849 -32.984059 
L 154.455162 -32.658103 
L 151.444474 -32.656891 
L 148.433787 -32.359951 
L 145.4231 -32.195673 
L 142.412412 -32.043853 
L 139.401725 -31.717529 
L 136.391038 -31.461628 
L 133.38035 -31.129012 
L 130.369663 -30.858519 
L 127.358976 -30.652465 
L 124.348288 -30.450277 
L 121.337601 -30.477176 
L 118.326914 -30.273558 
L 115.316226 -30.442231 
L 112.305539 -30.804723 
L 109.294852 -30.918436 
L 106.284164 -31.060777 
L 103.273477 -31.116447 
L 100.26279 -31.356312 
L 97.252102 -31.301456 
L 94.241415 -31.205664 
L 91.230728 -31.432093 
L 88.22004 -31.473893 
L 85.209353 -31.51778 
L 82.198666 -31.562026 
L 79.187978 -32.35142 
L 76.177291 -32.166936 
L 73.166604 -32.568819 
L 70.155916 -32.478677 
L 67.145229 -32.191829 
L 64.134542 -32.746406 
L 61.123854 -33.073773 
L 58.113167 -34.400172 
L 55.10248 -35.466024 
L 52.091792 -42.510948 
L 49.081105 -52.445634 
L 46.070418 -72.924522 
L 43.05973 -67.317565 
L 40.049043 -109.788113 
z
"/>
    </defs>
    <g clip-path="url(#p8665d36c82)">
     <use xlink:href="#m2ce9d17d49" x="0" y="350.813067" style="fill: #a6cee3; fill-opacity: 0.45"/>
    </g>
   </g>
   <g id="matplotlib.axis_9">
    <g id="xtick_13">
     <g id="line2d_54">
      <g>
       <use xlink:href="#m6d6d2ae504" x="40.90924" y="326.224864" style="stroke: #000000; stroke-width: 0.6"/>
      </g>
     </g>
     <g id="text_23">
      <text style="font: 6.5px 'Arial'; text-anchor: middle" x="40.90924" y="336.877442" transform="rotate(-0 40.90924 336.877442)">2025-01</text>
     </g>
    </g>
    <g id="xtick_14">
     <g id="line2d_55">
      <g>
       <use xlink:href="#m6d6d2ae504" x="118.757012" y="326.224864" style="stroke: #000000; stroke-width: 0.6"/>
      </g>
     </g>
     <g id="text_24">
      <text style="font: 6.5px 'Arial'; text-anchor: middle" x="118.757012" y="336.877442" transform="rotate(-0 118.757012 336.877442)">2025-07</text>
     </g>
    </g>
    <g id="xtick_15">
     <g id="line2d_56">
      <g>
       <use xlink:href="#m6d6d2ae504" x="197.895079" y="326.224864" style="stroke: #000000; stroke-width: 0.6"/>
      </g>
     </g>
     <g id="text_25">
      <text style="font: 6.5px 'Arial'; text-anchor: middle" x="197.895079" y="336.877442" transform="rotate(-0 197.895079 336.877442)">2026-01</text>
     </g>
    </g>
    <g id="text_26">
     <text style="font: 7px 'Arial'; text-anchor: middle" x="143.917756" y="347.179786" transform="rotate(-0 143.917756 347.179786)">Target week</text>
    </g>
   </g>
   <g id="matplotlib.axis_10">
    <g id="ytick_15">
     <g id="line2d_57">
      <path d="M 29.662172 316.944009 
L 258.17334 316.944009 
" clip-path="url(#p8665d36c82)" style="fill: none; stroke: #eaeaea; stroke-width: 0.5; stroke-linecap: square"/>
     </g>
     <g id="line2d_58">
      <g>
       <use xlink:href="#m7cb700c62a" x="29.662172" y="316.944009" style="stroke: #000000; stroke-width: 0.6"/>
      </g>
     </g>
     <g id="text_27">
      <text style="font: 6.5px 'Arial'; text-anchor: end" x="23.662172" y="319.270298" transform="rotate(-0 23.662172 319.270298)">0</text>
     </g>
    </g>
    <g id="ytick_16">
     <g id="line2d_59">
      <path d="M 29.662172 294.691729 
L 258.17334 294.691729 
" clip-path="url(#p8665d36c82)" style="fill: none; stroke: #eaeaea; stroke-width: 0.5; stroke-linecap: square"/>
     </g>
     <g id="line2d_60">
      <g>
       <use xlink:href="#m7cb700c62a" x="29.662172" y="294.691729" style="stroke: #000000; stroke-width: 0.6"/>
      </g>
     </g>
     <g id="text_28">
      <text style="font: 6.5px 'Arial'; text-anchor: end" x="23.662172" y="297.018018" transform="rotate(-0 23.662172 297.018018)">2</text>
     </g>
    </g>
    <g id="ytick_17">
     <g id="line2d_61">
      <path d="M 29.662172 272.439448 
L 258.17334 272.439448 
" clip-path="url(#p8665d36c82)" style="fill: none; stroke: #eaeaea; stroke-width: 0.5; stroke-linecap: square"/>
     </g>
     <g id="line2d_62">
      <g>
       <use xlink:href="#m7cb700c62a" x="29.662172" y="272.439448" style="stroke: #000000; stroke-width: 0.6"/>
      </g>
     </g>
     <g id="text_29">
      <text style="font: 6.5px 'Arial'; text-anchor: end" x="23.662172" y="274.765737" transform="rotate(-0 23.662172 274.765737)">4</text>
     </g>
    </g>
    <g id="ytick_18">
     <g id="line2d_63">
      <path d="M 29.662172 250.187168 
L 258.17334 250.187168 
" clip-path="url(#p8665d36c82)" style="fill: none; stroke: #eaeaea; stroke-width: 0.5; stroke-linecap: square"/>
     </g>
     <g id="line2d_64">
      <g>
       <use xlink:href="#m7cb700c62a" x="29.662172" y="250.187168" style="stroke: #000000; stroke-width: 0.6"/>
      </g>
     </g>
     <g id="text_30">
      <text style="font: 6.5px 'Arial'; text-anchor: end" x="23.662172" y="252.513457" transform="rotate(-0 23.662172 252.513457)">6</text>
     </g>
    </g>
    <g id="text_31">
     <text style="font: 7px 'Arial'" transform="translate(7.170469 291.131652) rotate(-90)">Japan</text>
     <text style="font: 7px 'Arial'" transform="translate(14.574281 292.292668) rotate(-90)">activity</text>
    </g>
   </g>
   <g id="line2d_65">
    <path d="M 40.049043 289.222814 
L 43.05973 282.165311 
L 46.070418 301.121663 
L 49.081105 309.501389 
L 52.091792 315.452669 
L 55.10248 317.854201 
L 58.113167 319.159952 
L 61.123854 319.646708 
L 64.134542 320.009571 
L 67.145229 319.861317 
L 70.155916 319.624899 
L 73.166604 319.913983 
L 76.177291 320.058061 
L 79.187978 320.852927 
L 82.198666 321.095609 
L 85.209353 321.094217 
L 88.22004 321.191197 
L 91.230728 321.462648 
L 94.241415 321.56914 
L 97.252102 321.492577 
L 100.26279 321.695586 
L 103.273477 321.778645 
L 106.284164 321.839432 
L 109.294852 321.903002 
L 112.305539 321.924579 
L 115.316226 321.930379 
L 118.326914 321.913675 
L 121.337601 321.945924 
L 124.348288 321.901842 
L 127.358976 321.883978 
L 130.369663 321.900218 
L 133.38035 321.905322 
L 136.391038 321.940356 
L 139.401725 321.893258 
L 142.412412 321.855208 
L 145.4231 321.715539 
L 148.433787 321.533875 
L 151.444474 321.45476 
L 154.455162 321.232726 
L 157.465849 320.772651 
L 160.476536 320.06247 
L 163.487224 319.249972 
L 166.497911 316.535458 
L 169.508598 308.844801 
L 172.519286 302.636454 
L 175.529973 288.404284 
L 178.54066 276.486178 
L 181.551348 281.941886 
L 184.562035 287.757441 
L 187.572722 289.121658 
L 190.58341 292.90504 
L 193.594097 301.858989 
L 196.604784 314.46106 
L 199.615471 312.888266 
L 202.626159 312.185045 
L 205.636846 307.47548 
L 208.647533 295.651106 
L 211.658221 283.945521 
L 214.668908 285.576782 
L 217.679595 291.728054 
L 220.690283 302.174291 
L 223.70097 309.519485 
L 226.711657 311.884592 
L 229.722345 313.573391 
L 232.733032 316.475136 
L 235.743719 319.363656 
L 238.754407 320.904665 
" clip-path="url(#p8665d36c82)" style="fill: none; stroke: #111111; stroke-width: 0.9; stroke-linecap: square"/>
   </g>
   <g id="line2d_66">
    <path d="M 40.049043 248.561013 
L 43.05973 290.620377 
L 46.070418 284.417151 
L 49.081105 303.730074 
L 52.091792 311.297789 
L 55.10248 318.2184 
L 58.113167 319.081576 
L 61.123854 320.044233 
L 64.134542 320.037882 
L 67.145229 320.114164 
L 70.155916 319.746086 
L 73.166604 319.621168 
L 76.177291 320.108446 
L 79.187978 320.047867 
L 82.198666 320.722171 
L 85.209353 320.862889 
L 88.22004 320.980595 
L 91.230728 321.118722 
L 94.241415 321.521895 
L 97.252102 321.58407 
L 100.26279 321.544785 
L 103.273477 321.718394 
L 106.284164 321.703635 
L 109.294852 321.818468 
L 112.305539 321.826514 
L 115.316226 321.66491 
L 118.326914 321.67698 
L 121.337601 321.597023 
L 124.348288 321.686909 
L 127.358976 321.597466 
L 130.369663 321.575404 
L 133.38035 321.496391 
L 136.391038 321.367582 
L 139.401725 321.269876 
L 142.412412 321.064199 
L 145.4231 321.019228 
L 148.433787 320.929623 
L 151.444474 320.678972 
L 154.455162 320.688624 
L 157.465849 320.322525 
L 160.476536 320.005479 
L 163.487224 318.967125 
L 166.497911 318.039146 
L 169.508598 315.161257 
L 172.519286 306.028831 
L 175.529973 299.324941 
L 178.54066 288.020072 
L 181.551348 282.581702 
L 184.562035 282.194478 
L 187.572722 288.961678 
L 190.58341 291.050189 
L 193.594097 295.2642 
L 196.604784 304.505556 
L 199.615471 317.243377 
L 202.626159 315.581393 
L 205.636846 311.309936 
L 208.647533 306.858364 
L 211.658221 295.836341 
L 214.668908 285.278528 
L 217.679595 289.708272 
L 220.690283 297.363206 
L 223.70097 307.425939 
L 226.711657 313.451257 
L 229.722345 314.388208 
L 232.733032 315.286257 
L 235.743719 317.781364 
L 238.754407 319.946426 
" clip-path="url(#p8665d36c82)" style="fill: none; stroke: #0072b2; stroke-width: 1.05; stroke-linecap: square"/>
   </g>
   <g id="patch_15">
    <path d="M 29.662172 326.224864 
L 29.662172 236.967816 
" style="fill: none; stroke: #000000; stroke-width: 0.6; stroke-linejoin: miter; stroke-linecap: square"/>
   </g>
   <g id="patch_16">
    <path d="M 29.662172 326.224864 
L 258.17334 326.224864 
" style="fill: none; stroke: #000000; stroke-width: 0.6; stroke-linejoin: miter; stroke-linecap: square"/>
   </g>
   <g id="text_32">
    <text style="font: 700 8px 'Arial'; text-anchor: start" x="15.951502" y="231.818784" transform="rotate(-0 15.951502 231.818784)">e</text>
   </g>
  </g>
  <g id="axes_6">
   <g id="patch_17">
    <path d="M 277.884572 326.224864 
L 506.39574 326.224864 
L 506.39574 236.967816 
L 277.884572 236.967816 
z
" style="fill: #ffffff"/>
   </g>
   <g id="line2d_67">
    <path d="M 277.884572 317.078009 
L 506.39574 317.078009 
" clip-path="url(#p2ba0d3cd09)" style="fill: none; stroke: #bbbbbb; stroke-width: 0.5; stroke-linecap: square"/>
   </g>
   <g id="PolyCollection_6">
    <defs>
     <path id="mf7dd21cd1b" d="M 297.303506 -109.788113 
L 297.303506 -92.438241 
L 300.314193 -49.328137 
L 303.32488 -53.962683 
L 306.335568 -33.668772 
L 309.346255 -28.645342 
L 312.356942 -28.645342 
L 315.36763 -28.645342 
L 318.378317 -28.862238 
L 321.389004 -28.667056 
L 324.399692 -28.645342 
L 327.410379 -28.645342 
L 330.421066 -28.645342 
L 333.431754 -28.645342 
L 336.442441 -28.645342 
L 339.453128 -28.645342 
L 342.463816 -28.645342 
L 345.474503 -28.645342 
L 348.48519 -28.645342 
L 351.495877 -28.645342 
L 354.506565 -28.645342 
L 357.517252 -28.645342 
L 360.527939 -28.645342 
L 363.538627 -28.645342 
L 366.549314 -28.645342 
L 369.560001 -28.645342 
L 372.570689 -28.645342 
L 375.581376 -28.645342 
L 378.592063 -28.645342 
L 381.602751 -28.645342 
L 384.613438 -28.645342 
L 387.624125 -28.645342 
L 390.634813 -28.645342 
L 393.6455 -28.645342 
L 396.656187 -28.645342 
L 399.666875 -28.654373 
L 402.677562 -28.70048 
L 405.688249 -28.796215 
L 408.698937 -28.882046 
L 411.709624 -28.942143 
L 414.720311 -29.040669 
L 417.730999 -29.240688 
L 420.741686 -29.998961 
L 423.752373 -30.414576 
L 426.763061 -33.312711 
L 429.773748 -42.331467 
L 432.784435 -49.762988 
L 435.795123 -56.221933 
L 438.80581 -56.837278 
L 441.816497 -50.74667 
L 444.827185 -47.341831 
L 447.837872 -46.529424 
L 450.848559 -44.869447 
L 453.859247 -39.751888 
L 456.869934 -34.763312 
L 459.880621 -36.266148 
L 462.891309 -33.645678 
L 465.901996 -35.498462 
L 468.912683 -41.874946 
L 471.923371 -47.45184 
L 474.934058 -45.887285 
L 477.944745 -41.420374 
L 480.955433 -36.056761 
L 483.96612 -31.312741 
L 486.976807 -30.335555 
L 489.987495 -28.645342 
L 492.998182 -28.645342 
L 496.008869 -28.645342 
L 496.008869 -34.687699 
L 496.008869 -34.687699 
L 492.998182 -35.600033 
L 489.987495 -37.114899 
L 486.976807 -40.488006 
L 483.96612 -42.805891 
L 480.955433 -48.861158 
L 477.944745 -54.144786 
L 474.934058 -58.56188 
L 471.923371 -60.246642 
L 468.912683 -54.53973 
L 465.901996 -48.382977 
L 462.891309 -45.5776 
L 459.880621 -47.905041 
L 456.869934 -45.9384 
L 453.859247 -54.771856 
L 450.848559 -60.113485 
L 447.837872 -62.029937 
L 444.827185 -63.041935 
L 441.816497 -66.230597 
L 438.80581 -71.658897 
L 435.795123 -70.02408 
L 432.784435 -62.295835 
L 429.773748 -53.840817 
L 426.763061 -43.680454 
L 423.752373 -40.036934 
L 420.741686 -39.136633 
L 417.730999 -37.740261 
L 414.720311 -37.120018 
L 411.709624 -36.697404 
L 408.698937 -36.333191 
L 405.688249 -36.171739 
L 402.677562 -36.083006 
L 399.666875 -35.942189 
L 396.656187 -35.571566 
L 393.6455 -35.18476 
L 390.634813 -34.563388 
L 387.624125 -33.742094 
L 384.613438 -33.072327 
L 381.602751 -32.607553 
L 378.592063 -32.746523 
L 375.581376 -32.371087 
L 372.570689 -33.67758 
L 369.560001 -34.016324 
L 366.549314 -34.319126 
L 363.538627 -34.633853 
L 360.527939 -34.710774 
L 357.517252 -34.831831 
L 354.506565 -34.591243 
L 351.495877 -34.444927 
L 348.48519 -34.327279 
L 345.474503 -34.045287 
L 342.463816 -33.55257 
L 339.453128 -33.591958 
L 336.442441 -33.477733 
L 333.431754 -34.191986 
L 330.421066 -34.872184 
L 327.410379 -35.146774 
L 324.399692 -35.090317 
L 321.389004 -36.063038 
L 318.378317 -35.756512 
L 315.36763 -33.451292 
L 312.356942 -35.670394 
L 309.346255 -42.141855 
L 306.335568 -50.383563 
L 303.32488 -70.856657 
L 300.314193 -66.109096 
L 297.303506 -109.788113 
z
"/>
    </defs>
    <g clip-path="url(#p2ba0d3cd09)">
     <use xlink:href="#mf7dd21cd1b" x="0" y="350.813067" style="fill: #a6cee3; fill-opacity: 0.45"/>
    </g>
   </g>
   <g id="matplotlib.axis_11">
    <g id="xtick_16">
     <g id="line2d_68">
      <g>
       <use xlink:href="#m6d6d2ae504" x="289.13164" y="326.224864" style="stroke: #000000; stroke-width: 0.6"/>
      </g>
     </g>
     <g id="text_33">
      <text style="font: 6.5px 'Arial'; text-anchor: middle" x="289.13164" y="336.877442" transform="rotate(-0 289.13164 336.877442)">2025-01</text>
     </g>
    </g>
    <g id="xtick_17">
     <g id="line2d_69">
      <g>
       <use xlink:href="#m6d6d2ae504" x="366.979412" y="326.224864" style="stroke: #000000; stroke-width: 0.6"/>
      </g>
     </g>
     <g id="text_34">
      <text style="font: 6.5px 'Arial'; text-anchor: middle" x="366.979412" y="336.877442" transform="rotate(-0 366.979412 336.877442)">2025-07</text>
     </g>
    </g>
    <g id="xtick_18">
     <g id="line2d_70">
      <g>
       <use xlink:href="#m6d6d2ae504" x="446.117479" y="326.224864" style="stroke: #000000; stroke-width: 0.6"/>
      </g>
     </g>
     <g id="text_35">
      <text style="font: 6.5px 'Arial'; text-anchor: middle" x="446.117479" y="336.877442" transform="rotate(-0 446.117479 336.877442)">2026-01</text>
     </g>
    </g>
    <g id="text_36">
     <text style="font: 7px 'Arial'; text-anchor: middle" x="392.140156" y="347.179786" transform="rotate(-0 392.140156 347.179786)">Target week</text>
    </g>
   </g>
   <g id="matplotlib.axis_12">
    <g id="ytick_19">
     <g id="line2d_71">
      <path d="M 277.884572 317.078009 
L 506.39574 317.078009 
" clip-path="url(#p2ba0d3cd09)" style="fill: none; stroke: #eaeaea; stroke-width: 0.5; stroke-linecap: square"/>
     </g>
     <g id="line2d_72">
      <g>
       <use xlink:href="#m7cb700c62a" x="277.884572" y="317.078009" style="stroke: #000000; stroke-width: 0.6"/>
      </g>
     </g>
     <g id="text_37">
      <text style="font: 6.5px 'Arial'; text-anchor: end" x="271.884572" y="319.404299" transform="rotate(-0 271.884572 319.404299)">0</text>
     </g>
    </g>
    <g id="ytick_20">
     <g id="line2d_73">
      <path d="M 277.884572 295.39655 
L 506.39574 295.39655 
" clip-path="url(#p2ba0d3cd09)" style="fill: none; stroke: #eaeaea; stroke-width: 0.5; stroke-linecap: square"/>
     </g>
     <g id="line2d_74">
      <g>
       <use xlink:href="#m7cb700c62a" x="277.884572" y="295.39655" style="stroke: #000000; stroke-width: 0.6"/>
      </g>
     </g>
     <g id="text_38">
      <text style="font: 6.5px 'Arial'; text-anchor: end" x="271.884572" y="297.722839" transform="rotate(-0 271.884572 297.722839)">2</text>
     </g>
    </g>
    <g id="ytick_21">
     <g id="line2d_75">
      <path d="M 277.884572 273.715091 
L 506.39574 273.715091 
" clip-path="url(#p2ba0d3cd09)" style="fill: none; stroke: #eaeaea; stroke-width: 0.5; stroke-linecap: square"/>
     </g>
     <g id="line2d_76">
      <g>
       <use xlink:href="#m7cb700c62a" x="277.884572" y="273.715091" style="stroke: #000000; stroke-width: 0.6"/>
      </g>
     </g>
     <g id="text_39">
      <text style="font: 6.5px 'Arial'; text-anchor: end" x="271.884572" y="276.04138" transform="rotate(-0 271.884572 276.04138)">4</text>
     </g>
    </g>
    <g id="ytick_22">
     <g id="line2d_77">
      <path d="M 277.884572 252.033632 
L 506.39574 252.033632 
" clip-path="url(#p2ba0d3cd09)" style="fill: none; stroke: #eaeaea; stroke-width: 0.5; stroke-linecap: square"/>
     </g>
     <g id="line2d_78">
      <g>
       <use xlink:href="#m7cb700c62a" x="277.884572" y="252.033632" style="stroke: #000000; stroke-width: 0.6"/>
      </g>
     </g>
     <g id="text_40">
      <text style="font: 6.5px 'Arial'; text-anchor: end" x="271.884572" y="254.359921" transform="rotate(-0 271.884572 254.359921)">6</text>
     </g>
    </g>
   </g>
   <g id="line2d_79">
    <path d="M 297.303506 309.826309 
L 300.314193 315.624925 
L 303.32488 317.964853 
L 306.335568 319.237108 
L 309.346255 319.711378 
L 312.356942 320.064933 
L 315.36763 319.920482 
L 318.378317 319.690128 
L 321.389004 319.971797 
L 324.399692 320.112179 
L 327.410379 320.886654 
L 330.421066 321.123111 
L 333.431754 321.121755 
L 336.442441 321.216247 
L 339.453128 321.480735 
L 342.463816 321.584495 
L 345.474503 321.509896 
L 348.48519 321.707697 
L 351.495877 321.788626 
L 354.506565 321.847853 
L 357.517252 321.909793 
L 360.527939 321.930817 
L 363.538627 321.936468 
L 366.549314 321.920192 
L 369.560001 321.951614 
L 372.570689 321.908663 
L 375.581376 321.891256 
L 378.592063 321.90708 
L 381.602751 321.912054 
L 384.613438 321.946188 
L 387.624125 321.900299 
L 390.634813 321.863225 
L 393.6455 321.727138 
L 396.656187 321.550135 
L 399.666875 321.473049 
L 402.677562 321.256711 
L 405.688249 320.808438 
L 408.698937 320.116474 
L 411.709624 319.324819 
L 414.720311 316.679939 
L 417.730999 309.186564 
L 420.741686 303.137475 
L 423.752373 289.270392 
L 426.763061 277.658013 
L 429.773748 282.97377 
L 432.784435 288.640142 
L 435.795123 289.969364 
L 438.80581 293.655694 
L 441.816497 302.379954 
L 444.827185 314.658753 
L 447.837872 313.126305 
L 450.848559 312.441123 
L 453.859247 307.852369 
L 456.869934 296.331317 
L 459.880621 284.926007 
L 462.891309 286.515422 
L 465.901996 292.508901 
L 468.912683 302.687167 
L 471.923371 309.843941 
L 474.934058 312.148378 
L 477.944745 313.793855 
L 480.955433 316.621164 
L 483.96612 319.435587 
L 486.976807 320.937065 
L 489.987495 321.386243 
L 492.998182 321.648922 
L 496.008869 321.828638 
" clip-path="url(#p2ba0d3cd09)" style="fill: none; stroke: #111111; stroke-width: 0.9; stroke-linecap: square"/>
   </g>
   <g id="line2d_80">
    <path d="M 297.303506 252.242318 
L 300.314193 295.629685 
L 303.32488 290.549628 
L 306.335568 311.132986 
L 309.346255 319.117203 
L 312.356942 322.167725 
L 315.36763 322.167725 
L 318.378317 319.797524 
L 321.389004 319.653645 
L 324.399692 320.288591 
L 327.410379 320.43242 
L 330.421066 320.664052 
L 333.431754 320.860812 
L 336.442441 320.755076 
L 339.453128 320.950899 
L 342.463816 320.837649 
L 345.474503 320.385465 
L 348.48519 320.023999 
L 351.495877 319.795438 
L 354.506565 319.683765 
L 357.517252 319.671817 
L 360.527939 319.991908 
L 363.538627 320.251811 
L 366.549314 320.687053 
L 369.560001 321.046349 
L 372.570689 321.361575 
L 375.581376 321.534785 
L 378.592063 321.210356 
L 381.602751 321.398059 
L 384.613438 321.219549 
L 387.624125 320.93671 
L 390.634813 320.580044 
L 393.6455 320.276469 
L 396.656187 320.0768 
L 399.666875 319.786605 
L 402.677562 319.653627 
L 405.688249 319.497328 
L 408.698937 319.311163 
L 411.709624 318.941173 
L 414.720311 318.474434 
L 417.730999 317.887564 
L 420.741686 316.604061 
L 423.752373 315.949301 
L 426.763061 312.813574 
L 429.773748 303.532978 
L 432.784435 295.92985 
L 435.795123 288.998591 
L 438.80581 287.943397 
L 441.816497 293.579133 
L 444.827185 296.817042 
L 447.837872 297.69356 
L 450.848559 299.37392 
L 453.859247 304.449478 
L 456.869934 312.866909 
L 459.880621 310.989249 
L 462.891309 312.68594 
L 465.901996 309.491525 
L 468.912683 302.961096 
L 471.923371 297.504498 
L 474.934058 299.20742 
L 477.944745 303.790361 
L 480.955433 309.406399 
L 483.96612 315.504106 
L 486.976807 317.474584 
L 489.987495 320.291626 
L 492.998182 320.893861 
L 496.008869 320.821881 
" clip-path="url(#p2ba0d3cd09)" style="fill: none; stroke: #0072b2; stroke-width: 1.05; stroke-linecap: square"/>
   </g>
   <g id="patch_18">
    <path d="M 277.884572 326.224864 
L 277.884572 236.967816 
" style="fill: none; stroke: #000000; stroke-width: 0.6; stroke-linejoin: miter; stroke-linecap: square"/>
   </g>
   <g id="patch_19">
    <path d="M 277.884572 326.224864 
L 506.39574 326.224864 
" style="fill: none; stroke: #000000; stroke-width: 0.6; stroke-linejoin: miter; stroke-linecap: square"/>
   </g>
   <g id="text_41">
    <text style="font: 700 8px 'Arial'; text-anchor: start" x="264.173902" y="231.818784" transform="rotate(-0 264.173902 231.818784)">f</text>
   </g>
  </g>
  <g id="legend_1">
   <g id="line2d_81">
    <path d="M 177.262105 7.137578 
L 183.762105 7.137578 
L 190.262105 7.137578 
" style="fill: none; stroke: #111111; stroke-linecap: square"/>
   </g>
   <g id="text_42">
    <text style="font: 6.5px 'Arial'; text-anchor: start" x="195.462105" y="9.412578" transform="rotate(-0 195.462105 9.412578)">Observed</text>
   </g>
   <g id="line2d_82">
    <path d="M 236.640621 7.137578 
L 243.140621 7.137578 
L 249.640621 7.137578 
" style="fill: none; stroke: #0072b2; stroke-width: 1.1; stroke-linecap: square"/>
   </g>
   <g id="text_43">
    <text style="font: 6.5px 'Arial'; text-anchor: start" x="254.840621" y="9.412578" transform="rotate(-0 254.840621 9.412578)">SAFE median</text>
   </g>
   <g id="patch_20">
    <path d="M 307.940543 9.412578 
L 320.940543 9.412578 
L 320.940543 4.862578 
L 307.940543 4.862578 
z
" style="fill: #a6cee3; opacity: 0.45"/>
   </g>
   <g id="text_44">
    <text style="font: 6.5px 'Arial'; text-anchor: start" x="326.140543" y="9.412578" transform="rotate(-0 326.140543 9.412578)">80% interval</text>
   </g>
  </g>
 </g>
 <defs>
  <clipPath id="p77901fc9d6">
   <rect x="29.662172" y="19.702103" width="228.511168" height="89.257048"/>
  </clipPath>
  <clipPath id="p941b1a07d8">
   <rect x="277.884572" y="19.702103" width="228.511168" height="89.257048"/>
  </clipPath>
  <clipPath id="pd48a8d3e90">
   <rect x="29.662172" y="128.33496" width="228.511168" height="89.257048"/>
  </clipPath>
  <clipPath id="p1860ab7581">
   <rect x="277.884572" y="128.33496" width="228.511168" height="89.257048"/>
  </clipPath>
  <clipPath id="p8665d36c82">
   <rect x="29.662172" y="236.967816" width="228.511168" height="89.257048"/>
  </clipPath>
  <clipPath id="p2ba0d3cd09">
   <rect x="277.884572" y="236.967816" width="228.511168" height="89.257048"/>
  </clipPath>
 </defs>
</svg>
