<?xml version="1.0" encoding="utf-8" standalone="no"?>
<!DOCTYPE svg PUBLIC "-//W3C//DTD SVG 1.1//EN"
  "http://www.w3.org/Graphics/SVG/1.1/DTD/svg11.dtd">
<svg xmlns:xlink="http://www.w3.org/1999/xlink" width="508.55574pt" height="219.421108pt" viewBox="0 0 508.55574 219.421108" xmlns="http://www.w3.org/2000/svg" version="1.1">
 <metadata>
  <rdf:RDF xmlns:dc="http://purl.org/dc/elements/1.1/" xmlns:cc="http://creativecommons.org/ns#" xmlns:rdf="http://www.w3.org/1999/02/22-rdf-syntax-ns#">
   <cc:Work>
    <dc:type rdf:resource="http://purl.org/dc/dcmitype/StillImage"/>
    <dc:date>2026-07-04T13:54:00.831729</dc:date>
    <dc:format>image/svg+xml</dc:format>
    <dc:creator>
     <cc:Agent>
      <dc:title>Matplotlib v3.10.8, https://matplotlib.org/</dc:title>
     </cc:Agent>
    </dc:creator>
   </cc:Work>
  </rdf:RDF>
 </metadata>
 <defs>
  <style type="text/css">*{stroke-linejoin: round; stroke-linecap: butt}</style>
 </defs>
 <g id="figure_1">
  <g id="patch_1">
   <path d="M 0 219.421108 
L 508.55574 219.421108 
L 508.55574 0 
L 0 0 
z
" style="fill: #ffffff"/>
  </g>
  <g id="axes_1">
   <g id="patch_2">
    <path d="M 31.341563 194.195639 
L 251.27763 194.195639 
L 251.27763 16.990698 
L 31.341563 16.990698 
z
" style="fill: #ffffff"/>
   </g>
   <g id="matplotlib.axis_1">
    <g id="xtick_1">
     <g id="line2d_1">
      <defs>
       <path id="m133171e19a" d="M 0 0 
L 0 2.5 
" style="stroke: #000000; stroke-width: 0.6"/>
      </defs>
      <g>
       <use xlink:href="#m133171e19a" x="41.338656" y="194.195639" style="stroke: #000000; stroke-width: 0.6"/>
      </g>
     </g>
     <g id="text_1">
      <text style="font-size: 6.5px; font-family: 'Arial'; text-anchor: middle" x="41.338656" y="205.134623" transform="rotate(-0 41.338656 205.134623)">1</text>
     </g>
    </g>
    <g id="xtick_2">
     <g id="line2d_2">
      <g>
       <use xlink:href="#m133171e19a" x="107.98595" y="194.195639" style="stroke: #000000; stroke-width: 0.6"/>
      </g>
     </g>
     <g id="text_2">
      <text style="font-size: 6.5px; font-family: 'Arial'; text-anchor: middle" x="107.98595" y="205.134623" transform="rotate(-0 107.98595 205.134623)">2</text>
     </g>
    </g>
    <g id="xtick_3">
     <g id="line2d_3">
      <g>
       <use xlink:href="#m133171e19a" x="174.633243" y="194.195639" style="stroke: #000000; stroke-width: 0.6"/>
      </g>
     </g>
     <g id="text_3">
      <text style="font-size: 6.5px; font-family: 'Arial'; text-anchor: middle" x="174.633243" y="205.134623" transform="rotate(-0 174.633243 205.134623)">3</text>
     </g>
    </g>
    <g id="xtick_4">
     <g id="line2d_4">
      <g>
       <use xlink:href="#m133171e19a" x="241.280536" y="194.195639" style="stroke: #000000; stroke-width: 0.6"/>
      </g>
     </g>
     <g id="text_4">
      <text style="font-size: 6.5px; font-family: 'Arial'; text-anchor: middle" x="241.280536" y="205.134623" transform="rotate(-0 241.280536 205.134623)">4</text>
     </g>
    </g>
    <g id="text_5">
     <text style="font-size: 7px; font-family: 'Arial'; text-anchor: middle" x="141.309596" y="215.805326" transform="rotate(-0 141.309596 215.805326)">Forecast horizon, weeks</text>
    </g>
   </g>
   <g id="matplotlib.axis_2">
    <g id="ytick_1">
     <g id="line2d_5">
      <path d="M 31.341563 180.97139 
L 251.27763 180.97139 
" clip-path="url(#pac21770e3b)" style="fill: none; stroke: #eaeaea; stroke-width: 0.5; stroke-linecap: square"/>
     </g>
     <g id="line2d_6">
      <defs>
       <path id="md57de38b16" d="M 0 0 
L -2.5 0 
" style="stroke: #000000; stroke-width: 0.6"/>
      </defs>
      <g>
       <use xlink:href="#md57de38b16" x="31.341563" y="180.97139" style="stroke: #000000; stroke-width: 0.6"/>
      </g>
     </g>
     <g id="text_6">
      <text style="font-size: 6.5px; font-family: 'Arial'; text-anchor: end" x="25.341563" y="183.440882" transform="rotate(-0 25.341563 183.440882)">40</text>
     </g>
    </g>
    <g id="ytick_2">
     <g id="line2d_7">
      <path d="M 31.341563 154.522891 
L 251.27763 154.522891 
" clip-path="url(#pac21770e3b)" style="fill: none; stroke: #eaeaea; stroke-width: 0.5; stroke-linecap: square"/>
     </g>
     <g id="line2d_8">
      <g>
       <use xlink:href="#md57de38b16" x="31.341563" y="154.522891" style="stroke: #000000; stroke-width: 0.6"/>
      </g>
     </g>
     <g id="text_7">
      <text style="font-size: 6.5px; font-family: 'Arial'; text-anchor: end" x="25.341563" y="156.992383" transform="rotate(-0 25.341563 156.992383)">50</text>
     </g>
    </g>
    <g id="ytick_3">
     <g id="line2d_9">
      <path d="M 31.341563 128.074392 
L 251.27763 128.074392 
" clip-path="url(#pac21770e3b)" style="fill: none; stroke: #eaeaea; stroke-width: 0.5; stroke-linecap: square"/>
     </g>
     <g id="line2d_10">
      <g>
       <use xlink:href="#md57de38b16" x="31.341563" y="128.074392" style="stroke: #000000; stroke-width: 0.6"/>
      </g>
     </g>
     <g id="text_8">
      <text style="font-size: 6.5px; font-family: 'Arial'; text-anchor: end" x="25.341563" y="130.543884" transform="rotate(-0 25.341563 130.543884)">60</text>
     </g>
    </g>
    <g id="ytick_4">
     <g id="line2d_11">
      <path d="M 31.341563 101.625893 
L 251.27763 101.625893 
" clip-path="url(#pac21770e3b)" style="fill: none; stroke: #eaeaea; stroke-width: 0.5; stroke-linecap: square"/>
     </g>
     <g id="line2d_12">
      <g>
       <use xlink:href="#md57de38b16" x="31.341563" y="101.625893" style="stroke: #000000; stroke-width: 0.6"/>
      </g>
     </g>
     <g id="text_9">
      <text style="font-size: 6.5px; font-family: 'Arial'; text-anchor: end" x="25.341563" y="104.095386" transform="rotate(-0 25.341563 104.095386)">70</text>
     </g>
    </g>
    <g id="ytick_5">
     <g id="line2d_13">
      <path d="M 31.341563 75.177395 
L 251.27763 75.177395 
" clip-path="url(#pac21770e3b)" style="fill: none; stroke: #eaeaea; stroke-width: 0.5; stroke-linecap: square"/>
     </g>
     <g id="line2d_14">
      <g>
       <use xlink:href="#md57de38b16" x="31.341563" y="75.177395" style="stroke: #000000; stroke-width: 0.6"/>
      </g>
     </g>
     <g id="text_10">
      <text style="font-size: 6.5px; font-family: 'Arial'; text-anchor: end" x="25.341563" y="77.646887" transform="rotate(-0 25.341563 77.646887)">80</text>
     </g>
    </g>
    <g id="ytick_6">
     <g id="line2d_15">
      <path d="M 31.341563 48.728896 
L 251.27763 48.728896 
" clip-path="url(#pac21770e3b)" style="fill: none; stroke: #eaeaea; stroke-width: 0.5; stroke-linecap: square"/>
     </g>
     <g id="line2d_16">
      <g>
       <use xlink:href="#md57de38b16" x="31.341563" y="48.728896" style="stroke: #000000; stroke-width: 0.6"/>
      </g>
     </g>
     <g id="text_11">
      <text style="font-size: 6.5px; font-family: 'Arial'; text-anchor: end" x="25.341563" y="51.198388" transform="rotate(-0 25.341563 51.198388)">90</text>
     </g>
    </g>
    <g id="ytick_7">
     <g id="line2d_17">
      <path d="M 31.341563 22.280397 
L 251.27763 22.280397 
" clip-path="url(#pac21770e3b)" style="fill: none; stroke: #eaeaea; stroke-width: 0.5; stroke-linecap: square"/>
     </g>
     <g id="line2d_18">
      <g>
       <use xlink:href="#md57de38b16" x="31.341563" y="22.280397" style="stroke: #000000; stroke-width: 0.6"/>
      </g>
     </g>
     <g id="text_12">
      <text style="font-size: 6.5px; font-family: 'Arial'; text-anchor: end" x="25.341563" y="24.74989" transform="rotate(-0 25.341563 24.74989)">100</text>
     </g>
    </g>
    <g id="text_13">
     <text style="font-size: 7px; font-family: 'Arial'; text-anchor: middle" x="7.478906" y="105.593168" transform="rotate(-90 7.478906 105.593168)">Empirical coverage, %</text>
    </g>
   </g>
   <g id="line2d_19">
    <path d="M 31.341563 154.522891 
L 251.27763 154.522891 
" clip-path="url(#pac21770e3b)" style="fill: none; stroke-dasharray: 2.035,0.88; stroke-dashoffset: 0; stroke: #9e9e9e; stroke-opacity: 0.55; stroke-width: 0.55"/>
   </g>
   <g id="line2d_20">
    <path d="M 41.338656 129.776502 
L 107.98595 138.987422 
L 174.633243 150.511684 
L 241.280536 147.200846 
" clip-path="url(#pac21770e3b)" style="fill: none; stroke: #9e9e9e; stroke-linecap: square"/>
    <defs>
     <path id="m1600d813a0" d="M 0 1.75 
C 0.464105 1.75 0.909265 1.565609 1.237437 1.237437 
C 1.565609 0.909265 1.75 0.464105 1.75 0 
C 1.75 -0.464105 1.565609 -0.909265 1.237437 -1.237437 
C 0.909265 -1.565609 0.464105 -1.75 0 -1.75 
C -0.464105 -1.75 -0.909265 -1.565609 -1.237437 -1.237437 
C -1.565609 -0.909265 -1.75 -0.464105 -1.75 0 
C -1.75 0.464105 -1.565609 0.909265 -1.237437 1.237437 
C -0.909265 1.565609 -0.464105 1.75 0 1.75 
z
" style="stroke: #9e9e9e"/>
    </defs>
    <g clip-path="url(#pac21770e3b)">
     <use xlink:href="#m1600d813a0" x="41.338656" y="129.776502" style="fill: #9e9e9e; stroke: #9e9e9e"/>
     <use xlink:href="#m1600d813a0" x="107.98595" y="138.987422" style="fill: #9e9e9e; stroke: #9e9e9e"/>
     <use xlink:href="#m1600d813a0" x="174.633243" y="150.511684" style="fill: #9e9e9e; stroke: #9e9e9e"/>
     <use xlink:href="#m1600d813a0" x="241.280536" y="147.200846" style="fill: #9e9e9e; stroke: #9e9e9e"/>
    </g>
   </g>
   <g id="line2d_21">
    <path d="M 31.341563 75.177395 
L 251.27763 75.177395 
" clip-path="url(#pac21770e3b)" style="fill: none; stroke-dasharray: 2.035,0.88; stroke-dashoffset: 0; stroke: #0072b2; stroke-opacity: 0.55; stroke-width: 0.55"/>
   </g>
   <g id="line2d_22">
    <path d="M 41.338656 66.340005 
L 107.98595 89.133849 
L 174.633243 99.660614 
L 241.280536 103.714268 
" clip-path="url(#pac21770e3b)" style="fill: none; stroke: #0072b2; stroke-linecap: square"/>
    <defs>
     <path id="m7473a2e2d8" d="M 0 1.75 
C 0.464105 1.75 0.909265 1.565609 1.237437 1.237437 
C 1.565609 0.909265 1.75 0.464105 1.75 0 
C 1.75 -0.464105 1.565609 -0.909265 1.237437 -1.237437 
C 0.909265 -1.565609 0.464105 -1.75 0 -1.75 
C -0.464105 -1.75 -0.909265 -1.565609 -1.237437 -1.237437 
C -1.565609 -0.909265 -1.75 -0.464105 -1.75 0 
C -1.75 0.464105 -1.565609 0.909265 -1.237437 1.237437 
C -0.909265 1.565609 -0.464105 1.75 0 1.75 
z
" style="stroke: #0072b2"/>
    </defs>
    <g clip-path="url(#pac21770e3b)">
     <use xlink:href="#m7473a2e2d8" x="41.338656" y="66.340005" style="fill: #0072b2; stroke: #0072b2"/>
     <use xlink:href="#m7473a2e2d8" x="107.98595" y="89.133849" style="fill: #0072b2; stroke: #0072b2"/>
     <use xlink:href="#m7473a2e2d8" x="174.633243" y="99.660614" style="fill: #0072b2; stroke: #0072b2"/>
     <use xlink:href="#m7473a2e2d8" x="241.280536" y="103.714268" style="fill: #0072b2; stroke: #0072b2"/>
    </g>
   </g>
   <g id="line2d_23">
    <path d="M 31.341563 35.504647 
L 251.27763 35.504647 
" clip-path="url(#pac21770e3b)" style="fill: none; stroke-dasharray: 2.035,0.88; stroke-dashoffset: 0; stroke: #d55e00; stroke-opacity: 0.55; stroke-width: 0.55"/>
   </g>
   <g id="line2d_24">
    <path d="M 41.338656 33.019396 
L 107.98595 38.176662 
L 174.633243 45.498707 
L 241.280536 38.813362 
" clip-path="url(#pac21770e3b)" style="fill: none; stroke: #d55e00; stroke-linecap: square"/>
    <defs>
     <path id="m971246b2a7" d="M 0 1.75 
C 0.464105 1.75 0.909265 1.565609 1.237437 1.237437 
C 1.565609 0.909265 1.75 0.464105 1.75 0 
C 1.75 -0.464105 1.565609 -0.909265 1.237437 -1.237437 
C 0.909265 -1.565609 0.464105 -1.75 0 -1.75 
C -0.464105 -1.75 -0.909265 -1.565609 -1.237437 -1.237437 
C -1.565609 -0.909265 -1.75 -0.464105 -1.75 0 
C -1.75 0.464105 -1.565609 0.909265 -1.237437 1.237437 
C -0.909265 1.565609 -0.464105 1.75 0 1.75 
z
" style="stroke: #d55e00"/>
    </defs>
    <g clip-path="url(#pac21770e3b)">
     <use xlink:href="#m971246b2a7" x="41.338656" y="33.019396" style="fill: #d55e00; stroke: #d55e00"/>
     <use xlink:href="#m971246b2a7" x="107.98595" y="38.176662" style="fill: #d55e00; stroke: #d55e00"/>
     <use xlink:href="#m971246b2a7" x="174.633243" y="45.498707" style="fill: #d55e00; stroke: #d55e00"/>
     <use xlink:href="#m971246b2a7" x="241.280536" y="38.813362" style="fill: #d55e00; stroke: #d55e00"/>
    </g>
   </g>
   <g id="patch_3">
    <path d="M 31.341563 194.195639 
L 31.341563 16.990698 
" style="fill: none; stroke: #000000; stroke-width: 0.6; stroke-linejoin: miter; stroke-linecap: square"/>
   </g>
   <g id="patch_4">
    <path d="M 31.341563 194.195639 
L 251.27763 194.195639 
" style="fill: none; stroke: #000000; stroke-width: 0.6; stroke-linejoin: miter; stroke-linecap: square"/>
   </g>
   <g id="text_14">
    <text style="font-weight: 700; font-size: 8px; font-family: 'Arial'; text-anchor: start" x="18.145398" y="8.23875" transform="rotate(-0 18.145398 8.23875)">a</text>
   </g>
   <g id="text_15">
    <text style="font-size: 7px; font-family: 'Arial'; text-anchor: middle" x="141.309596" y="14.990698" transform="rotate(-0 141.309596 14.990698)">Country-balanced coverage</text>
   </g>
   <g id="legend_1">
    <g id="text_16">
     <text style="font-size: 7px; font-family: 'Arial'; text-anchor: start" x="214.627122" y="28.159604" transform="rotate(-0 214.627122 28.159604)">Nominal</text>
    </g>
    <g id="line2d_25">
     <path d="M 212.780365 35.52937 
L 219.280365 35.52937 
L 225.780365 35.52937 
" style="fill: none; stroke: #9e9e9e; stroke-linecap: square"/>
     <g>
      <use xlink:href="#m1600d813a0" x="219.280365" y="35.52937" style="fill: #9e9e9e; stroke: #9e9e9e"/>
     </g>
    </g>
    <g id="text_17">
     <text style="font-size: 6.5px; font-family: 'Arial'; text-anchor: start" x="230.980365" y="37.80437" transform="rotate(-0 230.980365 37.80437)">50%</text>
    </g>
    <g id="line2d_26">
     <path d="M 212.780365 45.070151 
L 219.280365 45.070151 
L 225.780365 45.070151 
" style="fill: none; stroke: #0072b2; stroke-linecap: square"/>
     <g>
      <use xlink:href="#m7473a2e2d8" x="219.280365" y="45.070151" style="fill: #0072b2; stroke: #0072b2"/>
     </g>
    </g>
    <g id="text_18">
     <text style="font-size: 6.5px; font-family: 'Arial'; text-anchor: start" x="230.980365" y="47.345151" transform="rotate(-0 230.980365 47.345151)">80%</text>
    </g>
    <g id="line2d_27">
     <path d="M 212.780365 54.610932 
L 219.280365 54.610932 
L 225.780365 54.610932 
" style="fill: none; stroke: #d55e00; stroke-linecap: square"/>
     <g>
      <use xlink:href="#m971246b2a7" x="219.280365" y="54.610932" style="fill: #d55e00; stroke: #d55e00"/>
     </g>
    </g>
    <g id="text_19">
     <text style="font-size: 6.5px; font-family: 'Arial'; text-anchor: start" x="230.980365" y="56.885932" transform="rotate(-0 230.980365 56.885932)">95%</text>
    </g>
   </g>
  </g>
  <g id="axes_2">
   <g id="patch_5">
    <path d="M 286.459673 194.195639 
L 506.39574 194.195639 
L 506.39574 16.990698 
L 286.459673 16.990698 
z
" style="fill: #ffffff"/>
   </g>
   <g id="matplotlib.axis_3">
    <g id="xtick_5">
     <g id="line2d_28">
      <g>
       <use xlink:href="#m133171e19a" x="296.456767" y="194.195639" style="stroke: #000000; stroke-width: 0.6"/>
      </g>
     </g>
     <g id="text_20">
      <text style="font-size: 6.5px; font-family: 'Arial'; text-anchor: middle" x="296.456767" y="205.134623" transform="rotate(-0 296.456767 205.134623)">1</text>
     </g>
    </g>
    <g id="xtick_6">
     <g id="line2d_29">
      <g>
       <use xlink:href="#m133171e19a" x="363.10406" y="194.195639" style="stroke: #000000; stroke-width: 0.6"/>
      </g>
     </g>
     <g id="text_21">
      <text style="font-size: 6.5px; font-family: 'Arial'; text-anchor: middle" x="363.10406" y="205.134623" transform="rotate(-0 363.10406 205.134623)">2</text>
     </g>
    </g>
    <g id="xtick_7">
     <g id="line2d_30">
      <g>
       <use xlink:href="#m133171e19a" x="429.751353" y="194.195639" style="stroke: #000000; stroke-width: 0.6"/>
      </g>
     </g>
     <g id="text_22">
      <text style="font-size: 6.5px; font-family: 'Arial'; text-anchor: middle" x="429.751353" y="205.134623" transform="rotate(-0 429.751353 205.134623)">3</text>
     </g>
    </g>
    <g id="xtick_8">
     <g id="line2d_31">
      <g>
       <use xlink:href="#m133171e19a" x="496.398646" y="194.195639" style="stroke: #000000; stroke-width: 0.6"/>
      </g>
     </g>
     <g id="text_23">
      <text style="font-size: 6.5px; font-family: 'Arial'; text-anchor: middle" x="496.398646" y="205.134623" transform="rotate(-0 496.398646 205.134623)">4</text>
     </g>
    </g>
    <g id="text_24">
     <text style="font-size: 7px; font-family: 'Arial'; text-anchor: middle" x="396.427707" y="215.805326" transform="rotate(-0 396.427707 215.805326)">Forecast horizon, weeks</text>
    </g>
   </g>
   <g id="matplotlib.axis_4">
    <g id="ytick_8">
     <g id="line2d_32">
      <path d="M 286.459673 180.97139 
L 506.39574 180.97139 
" clip-path="url(#p1d0384602f)" style="fill: none; stroke: #eaeaea; stroke-width: 0.5; stroke-linecap: square"/>
     </g>
     <g id="line2d_33">
      <g>
       <use xlink:href="#md57de38b16" x="286.459673" y="180.97139" style="stroke: #000000; stroke-width: 0.6"/>
      </g>
     </g>
     <g id="text_25">
      <text style="font-size: 6.5px; font-family: 'Arial'; text-anchor: end" x="280.459673" y="183.440882" transform="rotate(-0 280.459673 183.440882)">40</text>
     </g>
    </g>
    <g id="ytick_9">
     <g id="line2d_34">
      <path d="M 286.459673 154.522891 
L 506.39574 154.522891 
" clip-path="url(#p1d0384602f)" style="fill: none; stroke: #eaeaea; stroke-width: 0.5; stroke-linecap: square"/>
     </g>
     <g id="line2d_35">
      <g>
       <use xlink:href="#md57de38b16" x="286.459673" y="154.522891" style="stroke: #000000; stroke-width: 0.6"/>
      </g>
     </g>
     <g id="text_26">
      <text style="font-size: 6.5px; font-family: 'Arial'; text-anchor: end" x="280.459673" y="156.992383" transform="rotate(-0 280.459673 156.992383)">50</text>
     </g>
    </g>
    <g id="ytick_10">
     <g id="line2d_36">
      <path d="M 286.459673 128.074392 
L 506.39574 128.074392 
" clip-path="url(#p1d0384602f)" style="fill: none; stroke: #eaeaea; stroke-width: 0.5; stroke-linecap: square"/>
     </g>
     <g id="line2d_37">
      <g>
       <use xlink:href="#md57de38b16" x="286.459673" y="128.074392" style="stroke: #000000; stroke-width: 0.6"/>
      </g>
     </g>
     <g id="text_27">
      <text style="font-size: 6.5px; font-family: 'Arial'; text-anchor: end" x="280.459673" y="130.543884" transform="rotate(-0 280.459673 130.543884)">60</text>
     </g>
    </g>
    <g id="ytick_11">
     <g id="line2d_38">
      <path d="M 286.459673 101.625893 
L 506.39574 101.625893 
" clip-path="url(#p1d0384602f)" style="fill: none; stroke: #eaeaea; stroke-width: 0.5; stroke-linecap: square"/>
     </g>
     <g id="line2d_39">
      <g>
       <use xlink:href="#md57de38b16" x="286.459673" y="101.625893" style="stroke: #000000; stroke-width: 0.6"/>
      </g>
     </g>
     <g id="text_28">
      <text style="font-size: 6.5px; font-family: 'Arial'; text-anchor: end" x="280.459673" y="104.095386" transform="rotate(-0 280.459673 104.095386)">70</text>
     </g>
    </g>
    <g id="ytick_12">
     <g id="line2d_40">
      <path d="M 286.459673 75.177395 
L 506.39574 75.177395 
" clip-path="url(#p1d0384602f)" style="fill: none; stroke: #eaeaea; stroke-width: 0.5; stroke-linecap: square"/>
     </g>
     <g id="line2d_41">
      <g>
       <use xlink:href="#md57de38b16" x="286.459673" y="75.177395" style="stroke: #000000; stroke-width: 0.6"/>
      </g>
     </g>
     <g id="text_29">
      <text style="font-size: 6.5px; font-family: 'Arial'; text-anchor: end" x="280.459673" y="77.646887" transform="rotate(-0 280.459673 77.646887)">80</text>
     </g>
    </g>
    <g id="ytick_13">
     <g id="line2d_42">
      <path d="M 286.459673 48.728896 
L 506.39574 48.728896 
" clip-path="url(#p1d0384602f)" style="fill: none; stroke: #eaeaea; stroke-width: 0.5; stroke-linecap: square"/>
     </g>
     <g id="line2d_43">
      <g>
       <use xlink:href="#md57de38b16" x="286.459673" y="48.728896" style="stroke: #000000; stroke-width: 0.6"/>
      </g>
     </g>
     <g id="text_30">
      <text style="font-size: 6.5px; font-family: 'Arial'; text-anchor: end" x="280.459673" y="51.198388" transform="rotate(-0 280.459673 51.198388)">90</text>
     </g>
    </g>
    <g id="ytick_14">
     <g id="line2d_44">
      <path d="M 286.459673 22.280397 
L 506.39574 22.280397 
" clip-path="url(#p1d0384602f)" style="fill: none; stroke: #eaeaea; stroke-width: 0.5; stroke-linecap: square"/>
     </g>
     <g id="line2d_45">
      <g>
       <use xlink:href="#md57de38b16" x="286.459673" y="22.280397" style="stroke: #000000; stroke-width: 0.6"/>
      </g>
     </g>
     <g id="text_31">
      <text style="font-size: 6.5px; font-family: 'Arial'; text-anchor: end" x="280.459673" y="24.74989" transform="rotate(-0 280.459673 24.74989)">100</text>
     </g>
    </g>
    <g id="text_32">
     <text style="font-size: 7px; font-family: 'Arial'; text-anchor: middle" x="262.597016" y="105.593168" transform="rotate(-90 262.597016 105.593168)">80% interval coverage, %</text>
    </g>
   </g>
   <g id="line2d_46">
    <path d="M 296.456767 47.875719 
L 363.10406 64.939266 
L 429.751353 64.939266 
L 496.398646 69.205153 
" clip-path="url(#p1d0384602f)" style="fill: none; stroke: #0072b2; stroke-linecap: square"/>
    <g clip-path="url(#p1d0384602f)">
     <use xlink:href="#m7473a2e2d8" x="296.456767" y="47.875719" style="fill: #0072b2; stroke: #0072b2"/>
     <use xlink:href="#m7473a2e2d8" x="363.10406" y="64.939266" style="fill: #0072b2; stroke: #0072b2"/>
     <use xlink:href="#m7473a2e2d8" x="429.751353" y="64.939266" style="fill: #0072b2; stroke: #0072b2"/>
     <use xlink:href="#m7473a2e2d8" x="496.398646" y="69.205153" style="fill: #0072b2; stroke: #0072b2"/>
    </g>
   </g>
   <g id="line2d_47">
    <path d="M 296.456767 81.493454 
L 363.10406 93.336066 
L 429.751353 105.178677 
L 496.398646 109.126214 
" clip-path="url(#p1d0384602f)" style="fill: none; stroke: #d55e00; stroke-linecap: square"/>
    <g clip-path="url(#p1d0384602f)">
     <use xlink:href="#m971246b2a7" x="296.456767" y="81.493454" style="fill: #d55e00; stroke: #d55e00"/>
     <use xlink:href="#m971246b2a7" x="363.10406" y="93.336066" style="fill: #d55e00; stroke: #d55e00"/>
     <use xlink:href="#m971246b2a7" x="429.751353" y="105.178677" style="fill: #d55e00; stroke: #d55e00"/>
     <use xlink:href="#m971246b2a7" x="496.398646" y="109.126214" style="fill: #d55e00; stroke: #d55e00"/>
    </g>
   </g>
   <g id="line2d_48">
    <path d="M 296.456767 69.650843 
L 363.10406 109.126214 
L 429.751353 128.8639 
L 496.398646 132.811437 
" clip-path="url(#p1d0384602f)" style="fill: none; stroke: #7a7a7a; stroke-linecap: square"/>
    <defs>
     <path id="m5747244c6c" d="M 0 1.75 
C 0.464105 1.75 0.909265 1.565609 1.237437 1.237437 
C 1.565609 0.909265 1.75 0.464105 1.75 0 
C 1.75 -0.464105 1.565609 -0.909265 1.237437 -1.237437 
C 0.909265 -1.565609 0.464105 -1.75 0 -1.75 
C -0.464105 -1.75 -0.909265 -1.565609 -1.237437 -1.237437 
C -1.565609 -0.909265 -1.75 -0.464105 -1.75 0 
C -1.75 0.464105 -1.565609 0.909265 -1.237437 1.237437 
C -0.909265 1.565609 -0.464105 1.75 0 1.75 
z
" style="stroke: #7a7a7a"/>
    </defs>
    <g clip-path="url(#p1d0384602f)">
     <use xlink:href="#m5747244c6c" x="296.456767" y="69.650843" style="fill: #7a7a7a; stroke: #7a7a7a"/>
     <use xlink:href="#m5747244c6c" x="363.10406" y="109.126214" style="fill: #7a7a7a; stroke: #7a7a7a"/>
     <use xlink:href="#m5747244c6c" x="429.751353" y="128.8639" style="fill: #7a7a7a; stroke: #7a7a7a"/>
     <use xlink:href="#m5747244c6c" x="496.398646" y="132.811437" style="fill: #7a7a7a; stroke: #7a7a7a"/>
    </g>
   </g>
   <g id="line2d_49">
    <path d="M 286.459673 75.177395 
L 506.39574 75.177395 
" clip-path="url(#p1d0384602f)" style="fill: none; stroke-dasharray: 2.405,1.04; stroke-dashoffset: 0; stroke: #777777; stroke-width: 0.65"/>
   </g>
   <g id="patch_6">
    <path d="M 286.459673 194.195639 
L 286.459673 16.990698 
" style="fill: none; stroke: #000000; stroke-width: 0.6; stroke-linejoin: miter; stroke-linecap: square"/>
   </g>
   <g id="patch_7">
    <path d="M 286.459673 194.195639 
L 506.39574 194.195639 
" style="fill: none; stroke: #000000; stroke-width: 0.6; stroke-linejoin: miter; stroke-linecap: square"/>
   </g>
   <g id="text_33">
    <text style="font-weight: 700; font-size: 8px; font-family: 'Arial'; text-anchor: start" x="273.263509" y="8.23875" transform="rotate(-0 273.263509 8.23875)">b</text>
   </g>
   <g id="text_34">
    <text style="font-size: 7px; font-family: 'Arial'; text-anchor: middle" x="396.427707" y="14.990698" transform="rotate(-0 396.427707 14.990698)">National coverage by country</text>
   </g>
   <g id="legend_2">
    <g id="line2d_50">
     <path d="M 292.309673 165.63728 
L 298.809673 165.63728 
L 305.309673 165.63728 
" style="fill: none; stroke: #0072b2; stroke-linecap: square"/>
     <g>
      <use xlink:href="#m7473a2e2d8" x="298.809673" y="165.63728" style="fill: #0072b2; stroke: #0072b2"/>
     </g>
    </g>
    <g id="text_35">
     <text style="font-size: 6.5px; font-family: 'Arial'; text-anchor: start" x="310.509673" y="167.91228" transform="rotate(-0 310.509673 167.91228)">CHN</text>
    </g>
    <g id="line2d_51">
     <path d="M 292.309673 175.178061 
L 298.809673 175.178061 
L 305.309673 175.178061 
" style="fill: none; stroke: #d55e00; stroke-linecap: square"/>
     <g>
      <use xlink:href="#m971246b2a7" x="298.809673" y="175.178061" style="fill: #d55e00; stroke: #d55e00"/>
     </g>
    </g>
    <g id="text_36">
     <text style="font-size: 6.5px; font-family: 'Arial'; text-anchor: start" x="310.509673" y="177.453061" transform="rotate(-0 310.509673 177.453061)">JPN</text>
    </g>
    <g id="line2d_52">
     <path d="M 292.309673 184.718842 
L 298.809673 184.718842 
L 305.309673 184.718842 
" style="fill: none; stroke: #7a7a7a; stroke-linecap: square"/>
     <g>
      <use xlink:href="#m5747244c6c" x="298.809673" y="184.718842" style="fill: #7a7a7a; stroke: #7a7a7a"/>
     </g>
    </g>
    <g id="text_37">
     <text style="font-size: 6.5px; font-family: 'Arial'; text-anchor: start" x="310.509673" y="186.993842" transform="rotate(-0 310.509673 186.993842)">USA</text>
    </g>
   </g>
  </g>
 </g>
 <defs>
  <clipPath id="pac21770e3b">
   <rect x="31.341563" y="16.990698" width="219.936068" height="177.204941"/>
  </clipPath>
  <clipPath id="p1d0384602f">
   <rect x="286.459673" y="16.990698" width="219.936068" height="177.204941"/>
  </clipPath>
 </defs>
</svg>
