<?xml version="1.0" encoding="utf-8" standalone="no"?>
<!DOCTYPE svg PUBLIC "-//W3C//DTD SVG 1.1//EN"
  "http://www.w3.org/Graphics/SVG/1.1/DTD/svg11.dtd">
<svg xmlns:xlink="http://www.w3.org/1999/xlink" width="508.55574pt" height="350.813067pt" viewBox="0 0 508.55574 350.813067" xmlns="http://www.w3.org/2000/svg" version="1.1">
 <metadata>
  <rdf:RDF xmlns:dc="http://purl.org/dc/elements/1.1/" xmlns:cc="http://creativecommons.org/ns#" xmlns:rdf="http://www.w3.org/1999/02/22-rdf-syntax-ns#">
   <cc:Work>
    <dc:type rdf:resource="http://purl.org/dc/dcmitype/StillImage"/>
    <dc:date>2026-07-04T13:53:43.198082</dc:date>
    <dc:format>image/svg+xml</dc:format>
    <dc:creator>
     <cc:Agent>
      <dc:title>Matplotlib v3.10.8, https://matplotlib.org/</dc:title>
     </cc:Agent>
    </dc:creator>
   </cc:Work>
  </rdf:RDF>
 </metadata>
 <defs>
  <style type="text/css">*{stroke-linejoin: round; stroke-linecap: butt}</style>
 </defs>
 <g id="figure_1">
  <g id="patch_1">
   <path d="M 0 350.813067 
L 508.55574 350.813067 
L 508.55574 0 
L 0 0 
z
" style="fill: #ffffff"/>
  </g>
  <g id="axes_1">
   <g id="patch_2">
    <path d="M 30.908781 108.74673 
L 258.814806 108.74673 
L 258.814806 20.114839 
L 30.908781 20.114839 
z
" style="fill: #ffffff"/>
   </g>
   <g id="line2d_1">
    <path d="M 30.908781 97.273881 
L 258.814806 97.273881 
" clip-path="url(#p3d056c0f79)" style="fill: none; stroke: #bbbbbb; stroke-width: 0.5; stroke-linecap: square"/>
   </g>
   <g id="FillBetweenPolyCollection_1">
    <defs>
     <path id="mc25477e206" d="M 41.268146 -293.923576 
L 41.268146 -277.311697 
L 59.284433 -258.079411 
L 62.287147 -253.602521 
L 65.289861 -251.667159 
L 68.292576 -252.519608 
L 71.29529 -252.305342 
L 74.298005 -253.797438 
L 77.300719 -255.344778 
L 80.303434 -256.076165 
L 83.306148 -255.317253 
L 86.308862 -254.455237 
L 89.311577 -255.561018 
L 92.314291 -254.192401 
L 95.317006 -256.130471 
L 98.31972 -254.596538 
L 101.322435 -257.682769 
L 104.325149 -257.735198 
L 107.327863 -257.344463 
L 110.330578 -254.98711 
L 113.333292 -252.687896 
L 116.336007 -252.454352 
L 119.338721 -252.726154 
L 122.341436 -251.827218 
L 125.34415 -250.509172 
L 128.346864 -249.392672 
L 131.349579 -248.705394 
L 134.352293 -248.71436 
L 137.355008 -248.635728 
L 140.357722 -248.559031 
L 143.360437 -247.703715 
L 146.363151 -247.278087 
L 149.365865 -249.648878 
L 152.36858 -250.980159 
L 155.371294 -252.320937 
L 158.374009 -252.324248 
L 161.376723 -257.297882 
L 164.379438 -254.234363 
L 167.382152 -252.74387 
L 170.384866 -258.418082 
L 173.387581 -267.289337 
L 176.390295 -275.631 
L 179.39301 -283.858798 
L 182.395724 -292.435977 
L 185.398439 -302.405182 
L 188.401153 -299.73063 
L 191.403867 -286.101106 
L 194.406582 -270.333924 
L 197.409296 -260.940297 
L 200.412011 -257.92564 
L 203.414725 -254.434131 
L 206.41744 -253.977612 
L 209.420154 -252.052429 
L 212.422868 -250.783957 
L 215.425583 -246.729912 
L 218.428297 -248.78745 
L 221.431012 -263.144608 
L 224.433726 -247.09279 
L 227.436441 -246.09506 
L 230.439155 -248.233693 
L 233.441869 -251.780507 
L 236.444584 -253.441108 
L 239.447298 -253.40193 
L 239.447298 -262.152888 
L 239.447298 -262.152888 
L 236.444584 -261.328001 
L 233.441869 -259.498056 
L 230.439155 -254.667354 
L 227.436441 -251.710782 
L 224.433726 -253.777215 
L 221.431012 -272.381111 
L 218.428297 -258.330204 
L 215.425583 -257.892641 
L 212.422868 -263.345412 
L 209.420154 -266.235154 
L 206.41744 -268.8904 
L 203.414725 -269.734914 
L 200.412011 -274.412375 
L 197.409296 -279.084082 
L 194.406582 -290.848643 
L 191.403867 -308.981484 
L 188.401153 -324.07319 
L 185.398439 -326.669506 
L 182.395724 -312.824623 
L 179.39301 -301.267267 
L 176.390295 -290.953515 
L 173.387581 -280.914355 
L 170.384866 -269.883185 
L 167.382152 -262.436573 
L 164.379438 -262.703674 
L 161.376723 -265.066704 
L 158.374009 -259.491907 
L 155.371294 -259.198708 
L 152.36858 -257.464054 
L 149.365865 -255.786864 
L 146.363151 -253.185768 
L 143.360437 -253.46836 
L 140.357722 -253.935716 
L 137.355008 -253.662448 
L 134.352293 -253.310921 
L 131.349579 -253.74663 
L 128.346864 -254.708404 
L 125.34415 -256.136397 
L 122.341436 -257.968134 
L 119.338721 -259.033204 
L 116.336007 -258.907251 
L 113.333292 -259.611088 
L 110.330578 -262.608837 
L 107.327863 -265.141201 
L 104.325149 -265.420179 
L 101.322435 -264.976147 
L 98.31972 -261.180291 
L 95.317006 -263.178286 
L 92.314291 -260.080362 
L 89.311577 -261.145096 
L 86.308862 -259.613881 
L 83.306148 -260.961519 
L 80.303434 -262.518383 
L 77.300719 -263.655652 
L 74.298005 -264.240483 
L 71.29529 -265.149663 
L 68.292576 -267.519998 
L 65.289861 -269.300775 
L 62.287147 -273.206459 
L 59.284433 -279.304106 
L 41.268146 -293.923576 
z
"/>
    </defs>
    <g clip-path="url(#p3d056c0f79)">
     <use xlink:href="#mc25477e206" x="0" y="350.813067" style="fill: #a6cee3; fill-opacity: 0.45"/>
    </g>
   </g>
   <g id="matplotlib.axis_1">
    <g id="xtick_1">
     <g id="line2d_2">
      <defs>
       <path id="m49f0dd9f87" d="M 0 0 
L 0 2.5 
" style="stroke: #000000; stroke-width: 0.6"/>
      </defs>
      <g>
       <use xlink:href="#m49f0dd9f87" x="42.126064" y="108.74673" style="stroke: #000000; stroke-width: 0.6"/>
      </g>
     </g>
    </g>
    <g id="xtick_2">
     <g id="line2d_3">
      <g>
       <use xlink:href="#m49f0dd9f87" x="119.76768" y="108.74673" style="stroke: #000000; stroke-width: 0.6"/>
      </g>
     </g>
    </g>
    <g id="xtick_3">
     <g id="line2d_4">
      <g>
       <use xlink:href="#m49f0dd9f87" x="198.696174" y="108.74673" style="stroke: #000000; stroke-width: 0.6"/>
      </g>
     </g>
    </g>
   </g>
   <g id="matplotlib.axis_2">
    <g id="ytick_1">
     <g id="line2d_5">
      <path d="M 30.908781 97.273881 
L 258.814806 97.273881 
" clip-path="url(#p3d056c0f79)" style="fill: none; stroke: #eaeaea; stroke-width: 0.5; stroke-linecap: square"/>
     </g>
     <g id="line2d_6">
      <defs>
       <path id="m9feaca0653" d="M 0 0 
L -2.5 0 
" style="stroke: #000000; stroke-width: 0.6"/>
      </defs>
      <g>
       <use xlink:href="#m9feaca0653" x="30.908781" y="97.273881" style="stroke: #000000; stroke-width: 0.6"/>
      </g>
     </g>
     <g id="text_1">
      <text style="font-size: 6.5px; font-family: 'Arial'; text-anchor: end" x="24.908781" y="99.743373" transform="rotate(-0 24.908781 99.743373)">0</text>
     </g>
    </g>
    <g id="ytick_2">
     <g id="line2d_7">
      <path d="M 30.908781 74.472003 
L 258.814806 74.472003 
" clip-path="url(#p3d056c0f79)" style="fill: none; stroke: #eaeaea; stroke-width: 0.5; stroke-linecap: square"/>
     </g>
     <g id="line2d_8">
      <g>
       <use xlink:href="#m9feaca0653" x="30.908781" y="74.472003" style="stroke: #000000; stroke-width: 0.6"/>
      </g>
     </g>
     <g id="text_2">
      <text style="font-size: 6.5px; font-family: 'Arial'; text-anchor: end" x="24.908781" y="76.941495" transform="rotate(-0 24.908781 76.941495)">2</text>
     </g>
    </g>
    <g id="ytick_3">
     <g id="line2d_9">
      <path d="M 30.908781 51.670124 
L 258.814806 51.670124 
" clip-path="url(#p3d056c0f79)" style="fill: none; stroke: #eaeaea; stroke-width: 0.5; stroke-linecap: square"/>
     </g>
     <g id="line2d_10">
      <g>
       <use xlink:href="#m9feaca0653" x="30.908781" y="51.670124" style="stroke: #000000; stroke-width: 0.6"/>
      </g>
     </g>
     <g id="text_3">
      <text style="font-size: 6.5px; font-family: 'Arial'; text-anchor: end" x="24.908781" y="54.139617" transform="rotate(-0 24.908781 54.139617)">4</text>
     </g>
    </g>
    <g id="ytick_4">
     <g id="line2d_11">
      <path d="M 30.908781 28.868246 
L 258.814806 28.868246 
" clip-path="url(#p3d056c0f79)" style="fill: none; stroke: #eaeaea; stroke-width: 0.5; stroke-linecap: square"/>
     </g>
     <g id="line2d_12">
      <g>
       <use xlink:href="#m9feaca0653" x="30.908781" y="28.868246" style="stroke: #000000; stroke-width: 0.6"/>
      </g>
     </g>
     <g id="text_4">
      <text style="font-size: 6.5px; font-family: 'Arial'; text-anchor: end" x="24.908781" y="31.337738" transform="rotate(-0 24.908781 31.337738)">6</text>
     </g>
    </g>
    <g id="text_5">
     <text style="font-size: 7px; font-family: 'Arial'" transform="translate(7.478906 74.428206) rotate(-90)">China</text>
     <text style="font-size: 7px; font-family: 'Arial'" transform="translate(15.317375 77.332112) rotate(-90)">activity</text>
    </g>
   </g>
   <g id="line2d_13">
    <path d="M 41.268146 60.391806 
L 59.284433 90.037776 
L 62.287147 93.425995 
L 65.289861 93.987557 
L 68.292576 95.291588 
L 71.29529 94.730026 
L 74.298005 93.787807 
L 77.300719 93.407151 
L 80.303434 94.530275 
L 83.306148 95.291588 
L 86.308862 93.787807 
L 89.311577 94.910932 
L 92.314291 92.845588 
L 95.317006 94.54912 
L 98.31972 91.179746 
L 101.322435 90.799089 
L 104.325149 90.618183 
L 107.327863 92.30287 
L 110.330578 94.187308 
L 113.333292 94.187308 
L 116.336007 93.806651 
L 119.338721 94.74887 
L 122.341436 96.633308 
L 125.34415 98.137089 
L 128.346864 99.260213 
L 131.349579 99.821776 
L 134.352293 100.202432 
L 137.355008 100.763995 
L 140.357722 101.887119 
L 143.360437 102.448682 
L 146.363151 100.002682 
L 149.365865 98.498901 
L 152.36858 96.99512 
L 155.371294 96.99512 
L 158.374009 92.10312 
L 161.376723 95.691089 
L 164.379438 97.756432 
L 167.382152 92.645838 
L 170.384866 84.12818 
L 173.387581 75.267555 
L 176.390295 65.1029 
L 179.39301 52.835212 
L 182.395724 36.892871 
L 185.398439 36.968248 
L 188.401153 50.920623 
L 191.403867 68.042622 
L 194.406582 79.130652 
L 197.409296 83.442245 
L 200.412011 88.334245 
L 203.414725 89.65712 
L 206.41744 92.284026 
L 209.420154 94.349369 
L 212.422868 99.422275 
L 215.425583 98.118244 
L 218.428297 83.766368 
L 221.431012 101.106962 
L 224.433726 102.9914 
L 227.436441 101.106962 
L 230.439155 97.518993 
L 233.441869 96.015212 
L 236.444584 95.45365 
L 239.447298 94.892087 
" clip-path="url(#p3d056c0f79)" style="fill: none; stroke: #111111; stroke-width: 0.9; stroke-linecap: square"/>
   </g>
   <g id="line2d_14">
    <path d="M 41.268146 68.97635 
L 59.284433 85.900245 
L 62.287147 90.848552 
L 65.289861 92.389808 
L 68.292576 92.087378 
L 71.29529 93.115962 
L 74.298005 92.726593 
L 77.300719 92.221834 
L 80.303434 91.926567 
L 83.306148 92.893034 
L 86.308862 93.722656 
L 89.311577 92.372797 
L 92.314291 93.423885 
L 95.317006 91.519219 
L 98.31972 93.280384 
L 101.322435 90.067976 
L 104.325149 89.923434 
L 107.327863 90.136896 
L 110.330578 92.259128 
L 113.333292 94.50354 
L 116.336007 94.817554 
L 119.338721 94.460829 
L 122.341436 95.118277 
L 125.34415 96.448603 
L 128.346864 97.735878 
L 131.349579 98.861909 
L 134.352293 99.444247 
L 137.355008 99.471396 
L 140.357722 99.656429 
L 143.360437 100.473428 
L 146.363151 100.91991 
L 149.365865 98.417649 
L 152.36858 96.8285 
L 155.371294 95.288261 
L 158.374009 95.254825 
L 161.376723 90.234487 
L 164.379438 93.343097 
L 167.382152 94.509969 
L 170.384866 88.210598 
L 173.387581 78.49234 
L 176.390295 69.084287 
L 179.39301 59.821367 
L 182.395724 50.724763 
L 185.398439 39.433491 
L 188.401153 41.852812 
L 191.403867 56.023652 
L 194.406582 72.511786 
L 197.409296 82.62173 
L 200.412011 86.88097 
L 203.414725 91.101253 
L 206.41744 91.90946 
L 209.420154 93.980524 
L 212.422868 95.274196 
L 215.425583 99.827521 
L 218.428297 98.239338 
L 221.431012 83.659981 
L 224.433726 100.605594 
L 227.436441 101.921395 
L 230.439155 99.287601 
L 233.441869 95.569413 
L 236.444584 94.01597 
L 239.447298 93.588507 
" clip-path="url(#p3d056c0f79)" style="fill: none; stroke: #0072b2; stroke-width: 1.05; stroke-linecap: square"/>
   </g>
   <g id="patch_3">
    <path d="M 30.908781 108.74673 
L 30.908781 20.114839 
" style="fill: none; stroke: #000000; stroke-width: 0.6; stroke-linejoin: miter; stroke-linecap: square"/>
   </g>
   <g id="patch_4">
    <path d="M 30.908781 108.74673 
L 258.814806 108.74673 
" style="fill: none; stroke: #000000; stroke-width: 0.6; stroke-linejoin: miter; stroke-linecap: square"/>
   </g>
   <g id="text_6">
    <text style="font-weight: 700; font-size: 8px; font-family: 'Arial'; text-anchor: start" x="17.23442" y="14.905813" transform="rotate(-0 17.23442 14.905813)">a</text>
   </g>
   <g id="text_7">
    <text style="font-size: 7px; font-family: 'Arial'; text-anchor: middle" x="144.861794" y="18.114839" transform="rotate(-0 144.861794 18.114839)">1-week ahead</text>
   </g>
  </g>
  <g id="axes_2">
   <g id="patch_5">
    <path d="M 278.489715 108.74673 
L 506.39574 108.74673 
L 506.39574 20.114839 
L 278.489715 20.114839 
z
" style="fill: #ffffff"/>
   </g>
   <g id="line2d_15">
    <path d="M 278.489715 93.871436 
L 506.39574 93.871436 
" clip-path="url(#p23b4b0bd07)" style="fill: none; stroke: #bbbbbb; stroke-width: 0.5; stroke-linecap: square"/>
   </g>
   <g id="FillBetweenPolyCollection_2">
    <defs>
     <path id="mf066b64d90" d="M 297.857223 -299.633917 
L 297.857223 -270.900626 
L 315.87351 -252.537351 
L 318.876224 -249.450584 
L 321.878939 -250.370215 
L 324.881653 -253.256939 
L 327.884368 -253.766867 
L 330.887082 -255.296143 
L 333.889797 -256.215271 
L 336.892511 -257.382756 
L 339.895225 -256.919336 
L 342.89794 -256.622317 
L 345.900654 -258.003597 
L 348.903369 -256.938899 
L 351.906083 -258.034948 
L 354.908798 -256.54247 
L 357.911512 -258.785833 
L 360.914226 -258.312754 
L 363.916941 -257.444895 
L 366.919655 -255.198253 
L 369.92237 -253.273997 
L 372.925084 -253.099903 
L 375.927799 -253.336736 
L 378.930513 -252.670605 
L 381.933227 -251.286742 
L 384.935942 -250.351539 
L 387.938656 -250.085847 
L 390.941371 -250.594091 
L 393.944085 -250.31502 
L 396.9468 -250.099739 
L 399.949514 -249.295067 
L 402.952228 -249.125068 
L 405.954943 -251.540957 
L 408.957657 -252.794578 
L 411.960372 -254.175178 
L 414.963086 -254.464236 
L 417.965801 -258.671197 
L 420.968515 -255.556408 
L 423.971229 -253.660639 
L 426.973944 -258.103554 
L 429.976658 -265.213004 
L 432.979373 -273.619202 
L 435.982087 -278.893846 
L 438.984802 -284.033597 
L 441.987516 -290.425807 
L 444.99023 -287.36557 
L 447.992945 -276.070133 
L 450.995659 -263.26955 
L 453.998374 -256.01734 
L 457.001088 -252.975275 
L 460.003803 -253.014234 
L 463.006517 -254.798836 
L 466.009231 -248.633315 
L 469.011946 -248.694853 
L 472.01466 -246.09506 
L 475.017375 -248.682192 
L 478.020089 -261.857177 
L 481.022804 -247.886732 
L 484.025518 -247.60772 
L 487.028232 -250.110892 
L 490.030947 -252.63257 
L 493.033661 -254.61092 
L 496.036376 -254.532461 
L 496.036376 -269.104521 
L 496.036376 -269.104521 
L 493.033661 -268.507607 
L 490.030947 -266.160516 
L 487.028232 -262.015618 
L 484.025518 -259.549206 
L 481.022804 -262.100126 
L 478.020089 -279.748448 
L 475.017375 -268.371035 
L 472.01466 -267.774416 
L 469.011946 -271.537676 
L 466.009231 -271.829918 
L 463.006517 -281.239491 
L 460.003803 -279.280051 
L 457.001088 -275.509974 
L 453.998374 -279.54137 
L 450.995659 -288.931496 
L 447.992945 -304.652723 
L 444.99023 -318.852004 
L 441.987516 -326.669506 
L 438.984802 -322.881485 
L 435.982087 -318.061945 
L 432.979373 -310.83385 
L 429.976658 -294.590581 
L 426.973944 -283.378848 
L 423.971229 -275.756808 
L 420.968515 -275.298684 
L 417.965801 -276.491815 
L 414.963086 -270.605113 
L 411.960372 -269.828429 
L 408.957657 -267.508855 
L 405.954943 -266.677399 
L 402.952228 -264.224762 
L 399.949514 -264.164673 
L 396.9468 -264.024564 
L 393.944085 -262.954865 
L 390.941371 -261.630869 
L 387.938656 -261.597453 
L 384.935942 -262.207058 
L 381.933227 -263.096231 
L 378.930513 -264.76304 
L 375.927799 -265.733776 
L 372.925084 -265.934521 
L 369.92237 -266.94751 
L 366.919655 -270.187082 
L 363.916941 -273.048404 
L 360.914226 -273.786889 
L 357.911512 -273.536369 
L 354.908798 -270.03412 
L 351.906083 -271.837109 
L 348.903369 -268.57069 
L 345.900654 -269.50583 
L 342.89794 -268.278201 
L 339.895225 -270.038875 
L 336.892511 -272.543791 
L 333.889797 -274.558971 
L 330.887082 -276.221815 
L 327.884368 -277.082763 
L 324.881653 -278.545798 
L 321.878939 -278.017159 
L 318.876224 -277.836937 
L 315.87351 -280.129985 
L 297.857223 -299.633917 
z
"/>
    </defs>
    <g clip-path="url(#p23b4b0bd07)">
     <use xlink:href="#mf066b64d90" x="0" y="350.813067" style="fill: #a6cee3; fill-opacity: 0.45"/>
    </g>
   </g>
   <g id="matplotlib.axis_3">
    <g id="xtick_4">
     <g id="line2d_16">
      <g>
       <use xlink:href="#m49f0dd9f87" x="289.706999" y="108.74673" style="stroke: #000000; stroke-width: 0.6"/>
      </g>
     </g>
    </g>
    <g id="xtick_5">
     <g id="line2d_17">
      <g>
       <use xlink:href="#m49f0dd9f87" x="367.348614" y="108.74673" style="stroke: #000000; stroke-width: 0.6"/>
      </g>
     </g>
    </g>
    <g id="xtick_6">
     <g id="line2d_18">
      <g>
       <use xlink:href="#m49f0dd9f87" x="446.277108" y="108.74673" style="stroke: #000000; stroke-width: 0.6"/>
      </g>
     </g>
    </g>
   </g>
   <g id="matplotlib.axis_4">
    <g id="ytick_5">
     <g id="line2d_19">
      <path d="M 278.489715 93.871436 
L 506.39574 93.871436 
" clip-path="url(#p23b4b0bd07)" style="fill: none; stroke: #eaeaea; stroke-width: 0.5; stroke-linecap: square"/>
     </g>
     <g id="line2d_20">
      <g>
       <use xlink:href="#m9feaca0653" x="278.489715" y="93.871436" style="stroke: #000000; stroke-width: 0.6"/>
      </g>
     </g>
     <g id="text_8">
      <text style="font-size: 6.5px; font-family: 'Arial'; text-anchor: end" x="272.489715" y="96.340928" transform="rotate(-0 272.489715 96.340928)">0</text>
     </g>
    </g>
    <g id="ytick_6">
     <g id="line2d_21">
      <path d="M 278.489715 73.273191 
L 506.39574 73.273191 
" clip-path="url(#p23b4b0bd07)" style="fill: none; stroke: #eaeaea; stroke-width: 0.5; stroke-linecap: square"/>
     </g>
     <g id="line2d_22">
      <g>
       <use xlink:href="#m9feaca0653" x="278.489715" y="73.273191" style="stroke: #000000; stroke-width: 0.6"/>
      </g>
     </g>
     <g id="text_9">
      <text style="font-size: 6.5px; font-family: 'Arial'; text-anchor: end" x="272.489715" y="75.742683" transform="rotate(-0 272.489715 75.742683)">2</text>
     </g>
    </g>
    <g id="ytick_7">
     <g id="line2d_23">
      <path d="M 278.489715 52.674946 
L 506.39574 52.674946 
" clip-path="url(#p23b4b0bd07)" style="fill: none; stroke: #eaeaea; stroke-width: 0.5; stroke-linecap: square"/>
     </g>
     <g id="line2d_24">
      <g>
       <use xlink:href="#m9feaca0653" x="278.489715" y="52.674946" style="stroke: #000000; stroke-width: 0.6"/>
      </g>
     </g>
     <g id="text_10">
      <text style="font-size: 6.5px; font-family: 'Arial'; text-anchor: end" x="272.489715" y="55.144438" transform="rotate(-0 272.489715 55.144438)">4</text>
     </g>
    </g>
    <g id="ytick_8">
     <g id="line2d_25">
      <path d="M 278.489715 32.0767 
L 506.39574 32.0767 
" clip-path="url(#p23b4b0bd07)" style="fill: none; stroke: #eaeaea; stroke-width: 0.5; stroke-linecap: square"/>
     </g>
     <g id="line2d_26">
      <g>
       <use xlink:href="#m9feaca0653" x="278.489715" y="32.0767" style="stroke: #000000; stroke-width: 0.6"/>
      </g>
     </g>
     <g id="text_11">
      <text style="font-size: 6.5px; font-family: 'Arial'; text-anchor: end" x="272.489715" y="34.546193" transform="rotate(-0 272.489715 34.546193)">6</text>
     </g>
    </g>
   </g>
   <g id="line2d_27">
    <path d="M 297.857223 81.539949 
L 315.87351 92.080717 
L 318.876224 91.573426 
L 321.878939 90.722265 
L 324.881653 90.378397 
L 327.884368 91.39298 
L 330.887082 92.080717 
L 333.889797 90.722265 
L 336.892511 91.736848 
L 339.895225 89.871105 
L 342.89794 91.410003 
L 345.900654 88.366254 
L 348.903369 88.022385 
L 351.906083 87.858962 
L 354.908798 89.380837 
L 357.911512 91.083157 
L 360.914226 91.083157 
L 363.916941 90.739289 
L 366.919655 91.590449 
L 369.92237 93.292769 
L 372.925084 94.651221 
L 375.927799 95.665804 
L 378.930513 96.173096 
L 381.933227 96.516964 
L 384.935942 97.024256 
L 387.938656 98.038839 
L 390.941371 98.546131 
L 393.944085 96.336518 
L 396.9468 94.978067 
L 399.949514 93.619615 
L 402.952228 93.619615 
L 405.954943 89.200391 
L 408.957657 92.441609 
L 411.960372 94.307352 
L 414.963086 89.690659 
L 417.965801 81.99617 
L 420.968515 73.991859 
L 423.971229 64.809543 
L 426.973944 53.727436 
L 429.976658 39.325804 
L 432.979373 39.393897 
L 435.982087 51.997878 
L 438.984802 67.465163 
L 441.987516 77.481616 
L 444.99023 81.376526 
L 447.992945 85.79575 
L 450.995659 86.990779 
L 453.998374 89.363814 
L 457.001088 91.229557 
L 460.003803 95.812204 
L 463.006517 94.634198 
L 466.009231 81.669325 
L 469.011946 97.334078 
L 472.01466 99.036399 
L 475.017375 97.334078 
L 478.020089 94.09286 
L 481.022804 92.734408 
L 484.025518 92.227117 
L 487.028232 91.719825 
L 490.030947 92.063694 
L 493.033661 90.361373 
L 496.036376 90.722265 
" clip-path="url(#p23b4b0bd07)" style="fill: none; stroke: #111111; stroke-width: 0.9; stroke-linecap: square"/>
   </g>
   <g id="line2d_28">
    <path d="M 297.857223 64.493087 
L 315.87351 85.838635 
L 318.876224 87.128748 
L 321.878939 86.130732 
L 324.881653 84.29853 
L 327.884368 84.412682 
L 330.887082 84.070819 
L 333.889797 85.217931 
L 336.892511 85.900208 
L 339.895225 87.706492 
L 342.89794 88.916299 
L 345.900654 87.373658 
L 348.903369 88.109316 
L 351.906083 85.476269 
L 354.908798 87.201749 
L 357.911512 84.531122 
L 360.914226 84.730528 
L 363.916941 85.630003 
L 366.919655 88.339367 
L 369.92237 91.079359 
L 372.925084 91.833964 
L 375.927799 91.87649 
L 378.930513 92.640706 
L 381.933227 93.895017 
L 384.935942 94.631716 
L 387.938656 94.940325 
L 390.941371 94.885589 
L 393.944085 94.251065 
L 396.9468 93.490221 
L 399.949514 93.617186 
L 402.952228 93.695683 
L 405.954943 91.365341 
L 408.957657 90.633515 
L 411.960372 88.78829 
L 414.963086 88.214455 
L 417.965801 83.35793 
L 420.968515 85.071978 
L 423.971229 85.164138 
L 426.973944 78.343192 
L 429.976658 69.067944 
L 432.979373 55.520546 
L 435.982087 50.552021 
L 438.984802 48.554888 
L 441.987516 46.390196 
L 444.99023 52.810974 
L 447.992945 65.558562 
L 450.995659 79.4178 
L 453.998374 86.8857 
L 457.001088 89.806441 
L 460.003803 85.918005 
L 463.006517 83.717571 
L 466.009231 92.012729 
L 469.011946 91.848122 
L 472.01466 94.450762 
L 475.017375 92.514386 
L 478.020089 80.386133 
L 481.022804 96.063873 
L 484.025518 97.629933 
L 487.028232 94.705701 
L 490.030947 90.976217 
L 493.033661 88.668363 
L 496.036376 88.210207 
" clip-path="url(#p23b4b0bd07)" style="fill: none; stroke: #0072b2; stroke-width: 1.05; stroke-linecap: square"/>
   </g>
   <g id="patch_6">
    <path d="M 278.489715 108.74673 
L 278.489715 20.114839 
" style="fill: none; stroke: #000000; stroke-width: 0.6; stroke-linejoin: miter; stroke-linecap: square"/>
   </g>
   <g id="patch_7">
    <path d="M 278.489715 108.74673 
L 506.39574 108.74673 
" style="fill: none; stroke: #000000; stroke-width: 0.6; stroke-linejoin: miter; stroke-linecap: square"/>
   </g>
   <g id="text_12">
    <text style="font-weight: 700; font-size: 8px; font-family: 'Arial'; text-anchor: start" x="264.815354" y="14.905813" transform="rotate(-0 264.815354 14.905813)">b</text>
   </g>
   <g id="text_13">
    <text style="font-size: 7px; font-family: 'Arial'; text-anchor: middle" x="392.442728" y="18.114839" transform="rotate(-0 392.442728 18.114839)">4-week ahead</text>
   </g>
  </g>
  <g id="axes_3">
   <g id="patch_8">
    <path d="M 30.908781 217.167164 
L 258.814806 217.167164 
L 258.814806 128.535273 
L 30.908781 128.535273 
z
" style="fill: #ffffff"/>
   </g>
   <g id="line2d_29">
    <path d="M 30.908781 201.081957 
L 258.814806 201.081957 
" clip-path="url(#p919844e646)" style="fill: none; stroke: #bbbbbb; stroke-width: 0.5; stroke-linecap: square"/>
   </g>
   <g id="FillBetweenPolyCollection_3">
    <defs>
     <path id="mbf224a4b93" d="M 41.268146 -203.210888 
L 41.268146 -188.739877 
L 44.27086 -183.893366 
L 47.273575 -174.399104 
L 50.276289 -177.828637 
L 53.279004 -190.216416 
L 56.281718 -195.738173 
L 59.284433 -194.290554 
L 62.287147 -185.894569 
L 65.289861 -177.374491 
L 68.292576 -167.635046 
L 71.29529 -162.82027 
L 74.298005 -159.234853 
L 77.300719 -154.642475 
L 80.303434 -151.876869 
L 83.306148 -149.05588 
L 86.308862 -147.949529 
L 89.311577 -146.930412 
L 92.314291 -146.310955 
L 95.317006 -144.901749 
L 98.31972 -144.05745 
L 101.322435 -143.836164 
L 104.325149 -143.431616 
L 107.327863 -143.603971 
L 110.330578 -141.540912 
L 113.333292 -139.914089 
L 116.336007 -139.345748 
L 119.338721 -138.229925 
L 122.341436 -137.82261 
L 125.34415 -138.544347 
L 128.346864 -137.740186 
L 131.349579 -137.674625 
L 134.352293 -138.136261 
L 137.355008 -139.256678 
L 140.357722 -139.83318 
L 143.360437 -142.163185 
L 146.363151 -145.368495 
L 149.365865 -145.427224 
L 152.36858 -144.949007 
L 155.371294 -144.635708 
L 158.374009 -144.263832 
L 161.376723 -143.552904 
L 164.379438 -143.742886 
L 167.382152 -144.32278 
L 170.384866 -144.746833 
L 173.387581 -145.595656 
L 176.390295 -148.554407 
L 179.39301 -150.02389 
L 182.395724 -152.513356 
L 185.398439 -156.708054 
L 188.401153 -159.755167 
L 191.403867 -167.809621 
L 194.406582 -185.56815 
L 197.409296 -203.752288 
L 200.412011 -192.423898 
L 203.414725 -174.440777 
L 206.41744 -165.296963 
L 209.420154 -169.404237 
L 212.422868 -167.242919 
L 215.425583 -169.078736 
L 218.428297 -168.721276 
L 221.431012 -167.23568 
L 224.433726 -161.594573 
L 227.436441 -160.353855 
L 230.439155 -155.22001 
L 233.441869 -151.802336 
L 236.444584 -149.909958 
L 239.447298 -147.679756 
L 239.447298 -151.927688 
L 239.447298 -151.927688 
L 236.444584 -154.808834 
L 233.441869 -157.434667 
L 230.439155 -161.352259 
L 227.436441 -166.113924 
L 224.433726 -169.094077 
L 221.431012 -175.275876 
L 218.428297 -177.466953 
L 215.425583 -178.219093 
L 212.422868 -175.72828 
L 209.420154 -180.523203 
L 206.41744 -177.024273 
L 203.414725 -190.163816 
L 200.412011 -208.716966 
L 197.409296 -218.249072 
L 194.406582 -199.063001 
L 191.403867 -180.243705 
L 188.401153 -170.6475 
L 185.398439 -165.94699 
L 182.395724 -160.524376 
L 179.39301 -156.961459 
L 176.390295 -154.824821 
L 173.387581 -151.370314 
L 170.384866 -150.053308 
L 167.382152 -149.169845 
L 164.379438 -148.068341 
L 161.376723 -147.412018 
L 158.374009 -147.790082 
L 155.371294 -147.993856 
L 152.36858 -148.183878 
L 149.365865 -148.592912 
L 146.363151 -148.432793 
L 143.360437 -145.055862 
L 140.357722 -142.460944 
L 137.355008 -141.562053 
L 134.352293 -140.390376 
L 131.349579 -139.839366 
L 128.346864 -139.823135 
L 125.34415 -140.556088 
L 122.341436 -139.946844 
L 119.338721 -140.608804 
L 116.336007 -141.966659 
L 113.333292 -142.789033 
L 110.330578 -144.667982 
L 107.327863 -146.746461 
L 104.325149 -146.593048 
L 101.322435 -147.039412 
L 98.31972 -147.383286 
L 95.317006 -148.377096 
L 92.314291 -150.057229 
L 89.311577 -151.125608 
L 86.308862 -152.602441 
L 83.306148 -154.181926 
L 80.303434 -157.579799 
L 77.300719 -161.236604 
L 74.298005 -166.856236 
L 71.29529 -171.673901 
L 68.292576 -178.020173 
L 65.289861 -187.721011 
L 62.287147 -197.677019 
L 59.284433 -207.037559 
L 56.281718 -207.364619 
L 53.279004 -200.876105 
L 50.276289 -191.029895 
L 47.273575 -189.011987 
L 44.27086 -198.55261 
L 41.268146 -203.210888 
z
"/>
    </defs>
    <g clip-path="url(#p919844e646)">
     <use xlink:href="#mbf224a4b93" x="0" y="350.813067" style="fill: #a6cee3; fill-opacity: 0.45"/>
    </g>
   </g>
   <g id="matplotlib.axis_5">
    <g id="xtick_7">
     <g id="line2d_30">
      <g>
       <use xlink:href="#m49f0dd9f87" x="42.126064" y="217.167164" style="stroke: #000000; stroke-width: 0.6"/>
      </g>
     </g>
    </g>
    <g id="xtick_8">
     <g id="line2d_31">
      <g>
       <use xlink:href="#m49f0dd9f87" x="119.76768" y="217.167164" style="stroke: #000000; stroke-width: 0.6"/>
      </g>
     </g>
    </g>
    <g id="xtick_9">
     <g id="line2d_32">
      <g>
       <use xlink:href="#m49f0dd9f87" x="198.696174" y="217.167164" style="stroke: #000000; stroke-width: 0.6"/>
      </g>
     </g>
    </g>
   </g>
   <g id="matplotlib.axis_6">
    <g id="ytick_9">
     <g id="line2d_33">
      <path d="M 30.908781 201.081957 
L 258.814806 201.081957 
" clip-path="url(#p919844e646)" style="fill: none; stroke: #eaeaea; stroke-width: 0.5; stroke-linecap: square"/>
     </g>
     <g id="line2d_34">
      <g>
       <use xlink:href="#m9feaca0653" x="30.908781" y="201.081957" style="stroke: #000000; stroke-width: 0.6"/>
      </g>
     </g>
     <g id="text_14">
      <text style="font-size: 6.5px; font-family: 'Arial'; text-anchor: end" x="24.908781" y="203.551449" transform="rotate(-0 24.908781 203.551449)">0</text>
     </g>
    </g>
    <g id="ytick_10">
     <g id="line2d_35">
      <path d="M 30.908781 172.708692 
L 258.814806 172.708692 
" clip-path="url(#p919844e646)" style="fill: none; stroke: #eaeaea; stroke-width: 0.5; stroke-linecap: square"/>
     </g>
     <g id="line2d_36">
      <g>
       <use xlink:href="#m9feaca0653" x="30.908781" y="172.708692" style="stroke: #000000; stroke-width: 0.6"/>
      </g>
     </g>
     <g id="text_15">
      <text style="font-size: 6.5px; font-family: 'Arial'; text-anchor: end" x="24.908781" y="175.178184" transform="rotate(-0 24.908781 175.178184)">2</text>
     </g>
    </g>
    <g id="ytick_11">
     <g id="line2d_37">
      <path d="M 30.908781 144.335427 
L 258.814806 144.335427 
" clip-path="url(#p919844e646)" style="fill: none; stroke: #eaeaea; stroke-width: 0.5; stroke-linecap: square"/>
     </g>
     <g id="line2d_38">
      <g>
       <use xlink:href="#m9feaca0653" x="30.908781" y="144.335427" style="stroke: #000000; stroke-width: 0.6"/>
      </g>
     </g>
     <g id="text_16">
      <text style="font-size: 6.5px; font-family: 'Arial'; text-anchor: end" x="24.908781" y="146.804919" transform="rotate(-0 24.908781 146.804919)">4</text>
     </g>
    </g>
    <g id="text_17">
     <text style="font-size: 7px; font-family: 'Arial'" transform="translate(7.478906 196.55114) rotate(-90)">United States</text>
     <text style="font-size: 7px; font-family: 'Arial'" transform="translate(15.317375 185.752547) rotate(-90)">activity</text>
    </g>
   </g>
   <g id="line2d_39">
    <path d="M 41.268146 161.317367 
L 44.27086 170.553537 
L 47.273575 166.266115 
L 50.276289 154.182858 
L 53.279004 146.278392 
L 56.281718 145.84231 
L 59.284433 154.669653 
L 62.287147 164.755988 
L 65.289861 174.74946 
L 68.292576 180.660605 
L 71.29529 185.106398 
L 74.298005 190.53542 
L 77.300719 193.964988 
L 80.303434 197.260616 
L 83.306148 198.728109 
L 86.308862 200.100598 
L 89.311577 201.104364 
L 92.314291 202.729547 
L 95.317006 203.732243 
L 98.31972 204.049083 
L 101.322435 204.515535 
L 104.325149 204.417708 
L 107.327863 206.578162 
L 110.330578 208.518141 
L 113.333292 209.344652 
L 116.336007 210.708381 
L 119.338721 211.408155 
L 122.341436 210.937226 
L 125.34415 211.901083 
L 128.346864 212.143848 
L 131.349579 211.891739 
L 134.352293 211.002736 
L 137.355008 210.376842 
L 140.357722 208.004674 
L 143.360437 204.758592 
L 146.363151 204.64159 
L 149.365865 205.116704 
L 152.36858 205.438509 
L 155.371294 205.81901 
L 158.374009 206.479265 
L 161.376723 206.241951 
L 164.379438 205.63533 
L 167.382152 205.235167 
L 170.384866 204.395418 
L 173.387581 201.514456 
L 176.390295 200.135153 
L 179.39301 197.576289 
L 182.395724 193.297043 
L 185.398439 190.162317 
L 188.401153 182.034262 
L 191.403867 163.70579 
L 194.406582 141.59178 
L 197.409296 152.417603 
L 200.412011 170.656133 
L 203.414725 179.547428 
L 206.41744 176.157673 
L 209.420154 179.137434 
L 212.422868 177.329447 
L 215.425583 177.713744 
L 218.428297 179.182697 
L 221.431012 184.490725 
L 224.433726 186.150658 
L 227.436441 190.341033 
L 230.439155 193.973748 
L 233.441869 196.349614 
L 236.444584 199.148324 
L 239.447298 201.883568 
" clip-path="url(#p919844e646)" style="fill: none; stroke: #111111; stroke-width: 0.9; stroke-linecap: square"/>
   </g>
   <g id="line2d_40">
    <path d="M 41.268146 154.23347 
L 44.27086 159.633733 
L 47.273575 169.77491 
L 50.276289 167.087787 
L 53.279004 156.100422 
L 56.281718 150.314111 
L 59.284433 151.44712 
L 62.287147 160.345942 
L 65.289861 169.198687 
L 68.292576 178.787857 
L 71.29529 184.05509 
L 74.298005 187.922497 
L 77.300719 192.713237 
L 80.303434 195.593976 
L 83.306148 198.56148 
L 86.308862 199.938621 
L 89.311577 201.188642 
L 92.314291 201.964455 
L 95.317006 203.412158 
L 98.31972 204.324433 
L 101.322435 204.627133 
L 104.325149 205.092711 
L 107.327863 205.013674 
L 110.330578 207.1503 
L 113.333292 208.995255 
L 116.336007 209.839673 
L 119.338721 211.178069 
L 122.341436 211.763521 
L 125.34415 211.172509 
L 128.346864 211.951194 
L 131.349579 211.996261 
L 134.352293 211.6665 
L 137.355008 210.739945 
L 140.357722 210.06322 
L 143.360437 207.558144 
L 146.363151 204.236557 
L 149.365865 204.073238 
L 152.36858 204.433062 
L 155.371294 204.577538 
L 158.374009 204.720583 
L 161.376723 205.129878 
L 164.379438 204.660278 
L 167.382152 203.821924 
L 170.384866 203.213863 
L 173.387581 202.217769 
L 176.390295 199.137893 
L 179.39301 197.519027 
L 182.395724 194.65531 
L 185.398439 189.972727 
L 188.401153 186.140496 
L 191.403867 177.080335 
L 194.406582 158.268413 
L 197.409296 139.177667 
L 200.412011 150.663627 
L 203.414725 169.578672 
L 206.41744 180.817577 
L 209.420154 176.178339 
L 212.422868 179.844167 
L 215.425583 177.662042 
L 218.428297 178.186498 
L 221.431012 179.749579 
L 224.433726 185.323827 
L 227.436441 187.768038 
L 230.439155 192.062089 
L 233.441869 195.516878 
L 236.444584 197.719899 
L 239.447298 200.362076 
" clip-path="url(#p919844e646)" style="fill: none; stroke: #0072b2; stroke-width: 1.05; stroke-linecap: square"/>
   </g>
   <g id="patch_9">
    <path d="M 30.908781 217.167164 
L 30.908781 128.535273 
" style="fill: none; stroke: #000000; stroke-width: 0.6; stroke-linejoin: miter; stroke-linecap: square"/>
   </g>
   <g id="patch_10">
    <path d="M 30.908781 217.167164 
L 258.814806 217.167164 
" style="fill: none; stroke: #000000; stroke-width: 0.6; stroke-linejoin: miter; stroke-linecap: square"/>
   </g>
   <g id="text_18">
    <text style="font-weight: 700; font-size: 8px; font-family: 'Arial'; text-anchor: start" x="17.23442" y="123.326247" transform="rotate(-0 17.23442 123.326247)">c</text>
   </g>
  </g>
  <g id="axes_4">
   <g id="patch_11">
    <path d="M 278.489715 217.167164 
L 506.39574 217.167164 
L 506.39574 128.535273 
L 278.489715 128.535273 
z
" style="fill: #ffffff"/>
   </g>
   <g id="line2d_41">
    <path d="M 278.489715 201.314405 
L 506.39574 201.314405 
" clip-path="url(#p88d453b882)" style="fill: none; stroke: #bbbbbb; stroke-width: 0.5; stroke-linecap: square"/>
   </g>
   <g id="FillBetweenPolyCollection_4">
    <defs>
     <path id="m8375ab24f2" d="M 297.857223 -205.117234 
L 297.857223 -179.261962 
L 300.859938 -173.827054 
L 303.862652 -164.844689 
L 306.865367 -167.013144 
L 309.868081 -174.622934 
L 312.870796 -177.138738 
L 315.87351 -174.419616 
L 318.876224 -168.25364 
L 321.878939 -163.40988 
L 324.881653 -156.275973 
L 327.884368 -153.751026 
L 330.887082 -151.943898 
L 333.889797 -149.069596 
L 336.892511 -145.100508 
L 339.895225 -146.09927 
L 342.89794 -145.517982 
L 345.900654 -144.307281 
L 348.903369 -143.913717 
L 351.906083 -143.667914 
L 354.908798 -142.933035 
L 357.911512 -142.669599 
L 360.914226 -142.270937 
L 363.916941 -142.374723 
L 366.919655 -140.583162 
L 369.92237 -139.150578 
L 372.925084 -138.743061 
L 375.927799 -137.908581 
L 378.930513 -137.674625 
L 381.933227 -138.463671 
L 384.935942 -138.045956 
L 387.938656 -138.329907 
L 390.941371 -139.137172 
L 393.944085 -140.484306 
L 396.9468 -141.379462 
L 399.949514 -143.66044 
L 402.952228 -146.653123 
L 405.954943 -146.856166 
L 408.957657 -146.489441 
L 411.960372 -146.27784 
L 414.963086 -146.078599 
L 417.965801 -145.664634 
L 420.968515 -146.077345 
L 423.971229 -146.778382 
L 426.973944 -147.281729 
L 429.976658 -148.178356 
L 432.979373 -150.874062 
L 435.982087 -152.44017 
L 438.984802 -155.214658 
L 441.987516 -159.646473 
L 444.99023 -162.874699 
L 447.992945 -169.588177 
L 450.995659 -183.058636 
L 453.998374 -191.210536 
L 457.001088 -179.89985 
L 460.003803 -163.809919 
L 463.006517 -157.475146 
L 466.009231 -159.070174 
L 469.011946 -157.503732 
L 472.01466 -159.388178 
L 475.017375 -158.975204 
L 478.020089 -159.062451 
L 481.022804 -153.612804 
L 484.025518 -152.157092 
L 487.028232 -148.638457 
L 490.030947 -146.718631 
L 493.033661 -145.859363 
L 496.036376 -144.695286 
L 496.036376 -152.202862 
L 496.036376 -152.202862 
L 493.033661 -153.602997 
L 490.030947 -154.921951 
L 487.028232 -157.260578 
L 484.025518 -161.350514 
L 481.022804 -163.339432 
L 478.020089 -169.358095 
L 475.017375 -170.175795 
L 472.01466 -171.548145 
L 469.011946 -170.561427 
L 466.009231 -173.556874 
L 463.006517 -178.140617 
L 460.003803 -188.946727 
L 457.001088 -207.275378 
L 453.998374 -218.249072 
L 450.995659 -208.572146 
L 447.992945 -193.738051 
L 444.99023 -184.890163 
L 441.987516 -179.032787 
L 438.984802 -172.381604 
L 435.982087 -167.829552 
L 432.979373 -164.697637 
L 429.976658 -160.708787 
L 426.973944 -158.566881 
L 423.971229 -156.883143 
L 420.968515 -155.15953 
L 417.965801 -153.709048 
L 414.963086 -153.177417 
L 411.960372 -152.736954 
L 408.957657 -152.547865 
L 405.954943 -152.756517 
L 402.952228 -152.547931 
L 399.949514 -149.357105 
L 396.9468 -146.700684 
L 393.944085 -145.573034 
L 390.941371 -144.066912 
L 387.938656 -142.979493 
L 384.935942 -142.450973 
L 381.933227 -142.748744 
L 378.930513 -141.86763 
L 375.927799 -142.063009 
L 372.925084 -142.950439 
L 369.92237 -143.399327 
L 366.919655 -144.811303 
L 363.916941 -146.49924 
L 360.914226 -146.28691 
L 357.911512 -146.628439 
L 354.908798 -146.82555 
L 351.906083 -147.553146 
L 348.903369 -152.503502 
L 345.900654 -153.189694 
L 342.89794 -154.601207 
L 339.895225 -155.378189 
L 336.892511 -154.536933 
L 333.889797 -155.906434 
L 330.887082 -160.111788 
L 327.884368 -163.478821 
L 324.881653 -167.841029 
L 321.878939 -176.9064 
L 318.876224 -184.723309 
L 315.87351 -190.636991 
L 312.870796 -192.329421 
L 309.868081 -190.306867 
L 306.865367 -186.89345 
L 303.862652 -189.188209 
L 300.859938 -199.8103 
L 297.857223 -205.117234 
z
"/>
    </defs>
    <g clip-path="url(#p88d453b882)">
     <use xlink:href="#m8375ab24f2" x="0" y="350.813067" style="fill: #a6cee3; fill-opacity: 0.45"/>
    </g>
   </g>
   <g id="matplotlib.axis_7">
    <g id="xtick_10">
     <g id="line2d_42">
      <g>
       <use xlink:href="#m49f0dd9f87" x="289.706999" y="217.167164" style="stroke: #000000; stroke-width: 0.6"/>
      </g>
     </g>
    </g>
    <g id="xtick_11">
     <g id="line2d_43">
      <g>
       <use xlink:href="#m49f0dd9f87" x="367.348614" y="217.167164" style="stroke: #000000; stroke-width: 0.6"/>
      </g>
     </g>
    </g>
    <g id="xtick_12">
     <g id="line2d_44">
      <g>
       <use xlink:href="#m49f0dd9f87" x="446.277108" y="217.167164" style="stroke: #000000; stroke-width: 0.6"/>
      </g>
     </g>
    </g>
   </g>
   <g id="matplotlib.axis_8">
    <g id="ytick_12">
     <g id="line2d_45">
      <path d="M 278.489715 201.314405 
L 506.39574 201.314405 
" clip-path="url(#p88d453b882)" style="fill: none; stroke: #eaeaea; stroke-width: 0.5; stroke-linecap: square"/>
     </g>
     <g id="line2d_46">
      <g>
       <use xlink:href="#m9feaca0653" x="278.489715" y="201.314405" style="stroke: #000000; stroke-width: 0.6"/>
      </g>
     </g>
     <g id="text_19">
      <text style="font-size: 6.5px; font-family: 'Arial'; text-anchor: end" x="272.489715" y="203.783897" transform="rotate(-0 272.489715 203.783897)">0</text>
     </g>
    </g>
    <g id="ytick_13">
     <g id="line2d_47">
      <path d="M 278.489715 176.532546 
L 506.39574 176.532546 
" clip-path="url(#p88d453b882)" style="fill: none; stroke: #eaeaea; stroke-width: 0.5; stroke-linecap: square"/>
     </g>
     <g id="line2d_48">
      <g>
       <use xlink:href="#m9feaca0653" x="278.489715" y="176.532546" style="stroke: #000000; stroke-width: 0.6"/>
      </g>
     </g>
     <g id="text_20">
      <text style="font-size: 6.5px; font-family: 'Arial'; text-anchor: end" x="272.489715" y="179.002038" transform="rotate(-0 272.489715 179.002038)">2</text>
     </g>
    </g>
    <g id="ytick_14">
     <g id="line2d_49">
      <path d="M 278.489715 151.750687 
L 506.39574 151.750687 
" clip-path="url(#p88d453b882)" style="fill: none; stroke: #eaeaea; stroke-width: 0.5; stroke-linecap: square"/>
     </g>
     <g id="line2d_50">
      <g>
       <use xlink:href="#m9feaca0653" x="278.489715" y="151.750687" style="stroke: #000000; stroke-width: 0.6"/>
      </g>
     </g>
     <g id="text_21">
      <text style="font-size: 6.5px; font-family: 'Arial'; text-anchor: end" x="272.489715" y="154.220179" transform="rotate(-0 272.489715 154.220179)">4</text>
     </g>
    </g>
   </g>
   <g id="line2d_51">
    <path d="M 297.857223 160.351658 
L 300.859938 153.447716 
L 303.862652 153.066833 
L 306.865367 160.776836 
L 309.868081 169.586472 
L 312.870796 178.314999 
L 315.87351 183.477928 
L 318.876224 187.360986 
L 321.878939 192.102818 
L 324.881653 195.098281 
L 327.884368 197.976758 
L 330.887082 199.2585 
L 333.889797 200.457263 
L 336.892511 201.333976 
L 339.895225 202.753448 
L 342.89794 203.629225 
L 345.900654 203.905961 
L 348.903369 204.31337 
L 351.906083 204.227927 
L 354.908798 206.114916 
L 357.911512 207.809338 
L 360.914226 208.531232 
L 363.916941 209.722344 
L 366.919655 210.333543 
L 369.92237 209.922223 
L 372.925084 210.764077 
L 375.927799 210.976114 
L 378.930513 210.755916 
L 381.933227 209.97944 
L 384.935942 209.43277 
L 387.938656 207.360865 
L 390.941371 204.525662 
L 393.944085 204.42347 
L 396.9468 204.838446 
L 399.949514 205.119517 
L 402.952228 205.451856 
L 405.954943 206.028537 
L 408.957657 205.821262 
L 411.960372 205.291425 
L 414.963086 204.941913 
L 417.965801 204.208457 
L 420.968515 201.69216 
L 423.971229 200.487445 
L 426.973944 198.252474 
L 429.976658 194.514883 
L 432.979373 191.776941 
L 435.982087 184.677712 
L 438.984802 168.669205 
L 441.987516 149.354322 
L 444.99023 158.809844 
L 447.992945 174.739794 
L 450.995659 182.505655 
L 453.998374 179.544964 
L 457.001088 182.147556 
L 460.003803 180.568419 
L 463.006517 180.904073 
L 466.009231 182.18709 
L 469.011946 186.823243 
L 472.01466 188.273067 
L 475.017375 191.933036 
L 478.020089 195.105933 
L 481.022804 197.181069 
L 484.025518 199.625526 
L 487.028232 202.01455 
L 490.030947 203.796457 
L 493.033661 204.325613 
L 496.036376 204.837766 
" clip-path="url(#p88d453b882)" style="fill: none; stroke: #111111; stroke-width: 0.9; stroke-linecap: square"/>
   </g>
   <g id="line2d_52">
    <path d="M 297.857223 158.685956 
L 300.859938 164.319407 
L 303.862652 174.013242 
L 306.865367 173.839839 
L 309.868081 168.481814 
L 312.870796 166.550912 
L 315.87351 169.138076 
L 318.876224 175.622427 
L 321.878939 181.350723 
L 324.881653 189.611043 
L 327.884368 192.565653 
L 330.887082 194.893439 
L 333.889797 198.302385 
L 336.892511 201.299756 
L 339.895225 200.463176 
L 342.89794 201.207494 
L 345.900654 202.571367 
L 348.903369 203.065101 
L 351.906083 205.356713 
L 354.908798 206.096964 
L 357.911512 206.327557 
L 360.914226 206.683559 
L 363.916941 206.548284 
L 366.919655 208.341261 
L 369.92237 209.830762 
L 372.925084 210.293287 
L 375.927799 211.14248 
L 378.930513 211.310109 
L 381.933227 210.458726 
L 384.935942 210.768499 
L 387.938656 210.31642 
L 390.941371 209.396534 
L 393.944085 208.045447 
L 396.9468 206.990192 
L 399.949514 204.46697 
L 402.952228 201.415626 
L 405.954943 201.19963 
L 408.957657 201.401511 
L 411.960372 201.289433 
L 414.963086 201.01937 
L 417.965801 200.938181 
L 420.968515 199.950942 
L 423.971229 198.604514 
L 426.973944 197.458582 
L 429.976658 195.907248 
L 432.979373 192.565993 
L 435.982087 190.229714 
L 438.984802 186.58438 
L 441.987516 181.01863 
L 444.99023 176.551437 
L 447.992945 168.785628 
L 450.995659 154.941953 
L 453.998374 146.366001 
L 457.001088 157.717286 
L 460.003803 175.153727 
L 463.006517 182.918473 
L 466.009231 184.083819 
L 469.011946 186.538981 
L 472.01466 185.3381 
L 475.017375 186.302639 
L 478.020089 186.731691 
L 481.022804 192.523183 
L 484.025518 194.242527 
L 487.028232 198.041601 
L 490.030947 200.102669 
L 493.033661 201.177117 
L 496.036376 202.515099 
" clip-path="url(#p88d453b882)" style="fill: none; stroke: #0072b2; stroke-width: 1.05; stroke-linecap: square"/>
   </g>
   <g id="patch_12">
    <path d="M 278.489715 217.167164 
L 278.489715 128.535273 
" style="fill: none; stroke: #000000; stroke-width: 0.6; stroke-linejoin: miter; stroke-linecap: square"/>
   </g>
   <g id="patch_13">
    <path d="M 278.489715 217.167164 
L 506.39574 217.167164 
" style="fill: none; stroke: #000000; stroke-width: 0.6; stroke-linejoin: miter; stroke-linecap: square"/>
   </g>
   <g id="text_22">
    <text style="font-weight: 700; font-size: 8px; font-family: 'Arial'; text-anchor: start" x="264.815354" y="123.326247" transform="rotate(-0 264.815354 123.326247)">d</text>
   </g>
  </g>
  <g id="axes_5">
   <g id="patch_14">
    <path d="M 30.908781 325.587598 
L 258.814806 325.587598 
L 258.814806 236.955707 
L 30.908781 236.955707 
z
" style="fill: #ffffff"/>
   </g>
   <g id="line2d_53">
    <path d="M 30.908781 316.371747 
L 258.814806 316.371747 
" clip-path="url(#pb99298c990)" style="fill: none; stroke: #bbbbbb; stroke-width: 0.5; stroke-linecap: square"/>
   </g>
   <g id="FillBetweenPolyCollection_5">
    <defs>
     <path id="md47010df1f" d="M 41.268146 -109.828638 
L 41.268146 -98.331019 
L 44.27086 -56.490911 
L 47.273575 -62.181262 
L 50.276289 -42.276838 
L 53.279004 -36.573297 
L 56.281718 -30.236179 
L 59.284433 -30.391005 
L 62.287147 -29.604328 
L 65.289861 -29.312129 
L 68.292576 -29.254191 
L 71.29529 -29.429067 
L 74.298005 -29.472471 
L 77.300719 -29.254191 
L 80.303434 -29.292625 
L 83.306148 -29.254191 
L 86.308862 -29.254191 
L 89.311577 -29.254191 
L 92.314291 -29.254191 
L 95.317006 -29.254191 
L 98.31972 -29.254191 
L 101.322435 -29.254191 
L 104.325149 -29.254191 
L 107.327863 -29.254191 
L 110.330578 -29.254191 
L 113.333292 -29.254191 
L 116.336007 -29.254191 
L 119.338721 -29.254191 
L 122.341436 -29.254191 
L 125.34415 -29.254191 
L 128.346864 -29.254191 
L 131.349579 -29.254191 
L 134.352293 -29.254191 
L 137.355008 -29.254191 
L 140.357722 -29.254191 
L 143.360437 -29.254191 
L 146.363151 -29.254191 
L 149.365865 -29.31462 
L 152.36858 -29.396864 
L 155.371294 -29.407215 
L 158.374009 -29.499687 
L 161.376723 -29.808524 
L 164.379438 -30.742013 
L 167.382152 -31.628777 
L 170.384866 -34.186513 
L 173.387581 -43.587849 
L 176.390295 -50.013628 
L 179.39301 -60.855144 
L 182.395724 -65.779582 
L 185.398439 -64.160408 
L 188.401153 -56.84333 
L 191.403867 -54.497627 
L 194.406582 -50.268479 
L 197.409296 -41.153642 
L 200.412011 -29.358513 
L 203.414725 -31.046313 
L 206.41744 -36.107633 
L 209.420154 -40.483827 
L 212.422868 -51.383454 
L 215.425583 -61.773781 
L 218.428297 -57.015538 
L 221.431012 -49.164461 
L 224.433726 -39.176191 
L 227.436441 -33.286221 
L 230.439155 -32.320739 
L 233.441869 -31.557858 
L 236.444584 -29.832494 
L 239.447298 -29.254191 
L 239.447298 -34.269754 
L 239.447298 -34.269754 
L 236.444584 -36.653991 
L 233.441869 -39.377526 
L 230.439155 -40.505078 
L 227.436441 -41.61036 
L 224.433726 -47.67276 
L 221.431012 -57.816938 
L 218.428297 -65.473601 
L 215.425583 -69.862889 
L 212.422868 -59.304963 
L 209.420154 -48.528778 
L 206.41744 -44.463412 
L 203.414725 -41.8799 
L 200.412011 -40.428432 
L 197.409296 -52.903409 
L 194.406582 -62.25094 
L 191.403867 -66.903803 
L 188.401153 -69.266517 
L 185.398439 -76.030676 
L 182.395724 -72.682086 
L 179.39301 -66.892016 
L 176.390295 -55.19214 
L 173.387581 -48.213953 
L 170.384866 -38.983894 
L 167.382152 -35.896897 
L 164.379438 -34.895402 
L 161.376723 -33.859229 
L 158.374009 -33.56252 
L 155.371294 -33.238847 
L 152.36858 -33.237644 
L 149.365865 -32.942783 
L 146.363151 -32.779656 
L 143.360437 -32.628899 
L 140.357722 -32.304861 
L 137.355008 -32.050752 
L 134.352293 -31.720466 
L 131.349579 -31.451868 
L 128.346864 -31.247256 
L 125.34415 -31.046484 
L 122.341436 -31.073195 
L 119.338721 -30.871003 
L 116.336007 -31.038495 
L 113.333292 -31.398449 
L 110.330578 -31.511364 
L 107.327863 -31.652708 
L 104.325149 -31.707989 
L 101.322435 -31.946173 
L 98.31972 -31.891702 
L 95.317006 -31.79658 
L 92.314291 -32.021424 
L 89.311577 -32.062931 
L 86.308862 -32.10651 
L 83.306148 -32.150447 
L 80.303434 -32.934312 
L 77.300719 -32.75112 
L 74.298005 -33.150188 
L 71.29529 -33.060678 
L 68.292576 -32.775839 
L 65.289861 -33.326531 
L 62.287147 -33.651606 
L 59.284433 -34.968714 
L 56.281718 -36.027101 
L 53.279004 -43.022682 
L 50.276289 -52.887786 
L 47.273575 -73.22324 
L 44.27086 -67.655554 
L 41.268146 -109.828638 
z
"/>
    </defs>
    <g clip-path="url(#pb99298c990)">
     <use xlink:href="#md47010df1f" x="0" y="350.813067" style="fill: #a6cee3; fill-opacity: 0.45"/>
    </g>
   </g>
   <g id="matplotlib.axis_9">
    <g id="xtick_13">
     <g id="line2d_54">
      <g>
       <use xlink:href="#m49f0dd9f87" x="42.126064" y="325.587598" style="stroke: #000000; stroke-width: 0.6"/>
      </g>
     </g>
     <g id="text_23">
      <text style="font-size: 6.5px; font-family: 'Arial'; text-anchor: middle" x="42.126064" y="336.526583" transform="rotate(-0 42.126064 336.526583)">2025-01</text>
     </g>
    </g>
    <g id="xtick_14">
     <g id="line2d_55">
      <g>
       <use xlink:href="#m49f0dd9f87" x="119.76768" y="325.587598" style="stroke: #000000; stroke-width: 0.6"/>
      </g>
     </g>
     <g id="text_24">
      <text style="font-size: 6.5px; font-family: 'Arial'; text-anchor: middle" x="119.76768" y="336.526583" transform="rotate(-0 119.76768 336.526583)">2025-07</text>
     </g>
    </g>
    <g id="xtick_15">
     <g id="line2d_56">
      <g>
       <use xlink:href="#m49f0dd9f87" x="198.696174" y="325.587598" style="stroke: #000000; stroke-width: 0.6"/>
      </g>
     </g>
     <g id="text_25">
      <text style="font-size: 6.5px; font-family: 'Arial'; text-anchor: middle" x="198.696174" y="336.526583" transform="rotate(-0 198.696174 336.526583)">2026-01</text>
     </g>
    </g>
    <g id="text_26">
     <text style="font-size: 7px; font-family: 'Arial'; text-anchor: middle" x="144.861794" y="347.197286" transform="rotate(-0 144.861794 347.197286)">Target week</text>
    </g>
   </g>
   <g id="matplotlib.axis_10">
    <g id="ytick_15">
     <g id="line2d_57">
      <path d="M 30.908781 316.371747 
L 258.814806 316.371747 
" clip-path="url(#pb99298c990)" style="fill: none; stroke: #eaeaea; stroke-width: 0.5; stroke-linecap: square"/>
     </g>
     <g id="line2d_58">
      <g>
       <use xlink:href="#m9feaca0653" x="30.908781" y="316.371747" style="stroke: #000000; stroke-width: 0.6"/>
      </g>
     </g>
     <g id="text_27">
      <text style="font-size: 6.5px; font-family: 'Arial'; text-anchor: end" x="24.908781" y="318.841239" transform="rotate(-0 24.908781 318.841239)">0</text>
     </g>
    </g>
    <g id="ytick_16">
     <g id="line2d_59">
      <path d="M 30.908781 294.275321 
L 258.814806 294.275321 
" clip-path="url(#pb99298c990)" style="fill: none; stroke: #eaeaea; stroke-width: 0.5; stroke-linecap: square"/>
     </g>
     <g id="line2d_60">
      <g>
       <use xlink:href="#m9feaca0653" x="30.908781" y="294.275321" style="stroke: #000000; stroke-width: 0.6"/>
      </g>
     </g>
     <g id="text_28">
      <text style="font-size: 6.5px; font-family: 'Arial'; text-anchor: end" x="24.908781" y="296.744814" transform="rotate(-0 24.908781 296.744814)">2</text>
     </g>
    </g>
    <g id="ytick_17">
     <g id="line2d_61">
      <path d="M 30.908781 272.178896 
L 258.814806 272.178896 
" clip-path="url(#pb99298c990)" style="fill: none; stroke: #eaeaea; stroke-width: 0.5; stroke-linecap: square"/>
     </g>
     <g id="line2d_62">
      <g>
       <use xlink:href="#m9feaca0653" x="30.908781" y="272.178896" style="stroke: #000000; stroke-width: 0.6"/>
      </g>
     </g>
     <g id="text_29">
      <text style="font-size: 6.5px; font-family: 'Arial'; text-anchor: end" x="24.908781" y="274.648388" transform="rotate(-0 24.908781 274.648388)">4</text>
     </g>
    </g>
    <g id="ytick_18">
     <g id="line2d_63">
      <path d="M 30.908781 250.082471 
L 258.814806 250.082471 
" clip-path="url(#pb99298c990)" style="fill: none; stroke: #eaeaea; stroke-width: 0.5; stroke-linecap: square"/>
     </g>
     <g id="line2d_64">
      <g>
       <use xlink:href="#m9feaca0653" x="30.908781" y="250.082471" style="stroke: #000000; stroke-width: 0.6"/>
      </g>
     </g>
     <g id="text_30">
      <text style="font-size: 6.5px; font-family: 'Arial'; text-anchor: end" x="24.908781" y="252.551963" transform="rotate(-0 24.908781 252.551963)">6</text>
     </g>
    </g>
    <g id="text_31">
     <text style="font-size: 7px; font-family: 'Arial'" transform="translate(7.478906 291.033918) rotate(-90)">Japan</text>
     <text style="font-size: 7px; font-family: 'Arial'" transform="translate(15.317375 294.172981) rotate(-90)">activity</text>
    </g>
   </g>
   <g id="line2d_65">
    <path d="M 41.268146 288.844711 
L 44.27086 281.836639 
L 47.273575 300.66022 
L 50.276289 308.981254 
L 53.279004 314.890852 
L 56.281718 317.275564 
L 59.284433 318.572169 
L 62.287147 319.055516 
L 65.289861 319.415838 
L 68.292576 319.268622 
L 71.29529 319.03386 
L 74.298005 319.320919 
L 77.300719 319.463988 
L 80.303434 320.253286 
L 83.306148 320.494268 
L 86.308862 320.492886 
L 89.311577 320.589187 
L 92.314291 320.858737 
L 95.317006 320.964484 
L 98.31972 320.888457 
L 101.322435 321.090043 
L 104.325149 321.172521 
L 107.327863 321.232882 
L 110.330578 321.296007 
L 113.333292 321.317433 
L 116.336007 321.323192 
L 119.338721 321.306605 
L 122.341436 321.338628 
L 125.34415 321.294855 
L 128.346864 321.277116 
L 131.349579 321.293242 
L 134.352293 321.298311 
L 137.355008 321.333099 
L 140.357722 321.286331 
L 143.360437 321.248548 
L 146.363151 321.109856 
L 149.365865 320.929465 
L 152.36858 320.850904 
L 155.371294 320.630426 
L 158.374009 320.173573 
L 161.376723 319.468365 
L 164.379438 318.661558 
L 167.382152 315.966057 
L 170.384866 308.329266 
L 173.387581 302.164402 
L 176.390295 288.031914 
L 179.39301 276.197282 
L 182.395724 281.614778 
L 185.398439 287.389601 
L 188.401153 288.744263 
L 191.403867 292.501146 
L 194.406582 301.392383 
L 197.409296 313.906188 
L 200.412011 312.34441 
L 203.414725 311.646114 
L 206.41744 306.969535 
L 209.420154 295.227979 
L 212.422868 283.604381 
L 215.425583 285.224215 
L 218.428297 291.332405 
L 221.431012 301.705475 
L 224.433726 308.999224 
L 227.436441 311.347766 
L 230.439155 313.024736 
L 233.441869 315.906157 
L 236.444584 318.774447 
L 239.447298 320.304662 
" clip-path="url(#pb99298c990)" style="fill: none; stroke: #111111; stroke-width: 0.9; stroke-linecap: square"/>
   </g>
   <g id="line2d_66">
    <path d="M 41.268146 248.467705 
L 44.27086 290.232485 
L 47.273575 284.072707 
L 50.276289 303.250362 
L 53.279004 310.765072 
L 56.281718 317.637212 
L 59.284433 318.494342 
L 62.287147 319.450257 
L 65.289861 319.44395 
L 68.292576 319.519698 
L 71.29529 319.154197 
L 74.298005 319.030155 
L 77.300719 319.51402 
L 80.303434 319.453865 
L 83.306148 320.123446 
L 86.308862 320.263179 
L 89.311577 320.38006 
L 92.314291 320.51722 
L 95.317006 320.917569 
L 98.31972 320.979309 
L 101.322435 320.940299 
L 104.325149 321.112692 
L 107.327863 321.098036 
L 110.330578 321.212065 
L 113.333292 321.220055 
L 116.336007 321.059583 
L 119.338721 321.071568 
L 122.341436 320.992171 
L 125.34415 321.081427 
L 128.346864 320.992611 
L 131.349579 320.970703 
L 134.352293 320.892244 
L 137.355008 320.764336 
L 140.357722 320.667316 
L 143.360437 320.463079 
L 146.363151 320.418423 
L 149.365865 320.329445 
L 152.36858 320.08055 
L 155.371294 320.090134 
L 158.374009 319.7266 
L 161.376723 319.411774 
L 164.379438 318.380693 
L 167.382152 317.459213 
L 170.384866 314.601481 
L 173.387581 305.533019 
L 176.390295 298.876083 
L 179.39301 287.650393 
L 182.395724 282.250114 
L 185.398439 281.865601 
L 188.401153 288.585404 
L 191.403867 290.659287 
L 194.406582 294.843783 
L 197.409296 304.020413 
L 200.412011 316.669018 
L 203.414725 315.018674 
L 206.41744 310.777134 
L 209.420154 306.356742 
L 212.422868 295.411917 
L 215.425583 284.92805 
L 218.428297 289.326769 
L 221.431012 296.928087 
L 224.433726 306.920341 
L 227.436441 312.903458 
L 230.439155 313.833846 
L 233.441869 314.725606 
L 236.444584 317.203237 
L 239.447298 319.353134 
" clip-path="url(#pb99298c990)" style="fill: none; stroke: #0072b2; stroke-width: 1.05; stroke-linecap: square"/>
   </g>
   <g id="patch_15">
    <path d="M 30.908781 325.587598 
L 30.908781 236.955707 
" style="fill: none; stroke: #000000; stroke-width: 0.6; stroke-linejoin: miter; stroke-linecap: square"/>
   </g>
   <g id="patch_16">
    <path d="M 30.908781 325.587598 
L 258.814806 325.587598 
" style="fill: none; stroke: #000000; stroke-width: 0.6; stroke-linejoin: miter; stroke-linecap: square"/>
   </g>
   <g id="text_32">
    <text style="font-weight: 700; font-size: 8px; font-family: 'Arial'; text-anchor: start" x="17.23442" y="231.746681" transform="rotate(-0 17.23442 231.746681)">e</text>
   </g>
  </g>
  <g id="axes_6">
   <g id="patch_17">
    <path d="M 278.489715 325.587598 
L 506.39574 325.587598 
L 506.39574 236.955707 
L 278.489715 236.955707 
z
" style="fill: #ffffff"/>
   </g>
   <g id="line2d_67">
    <path d="M 278.489715 316.504808 
L 506.39574 316.504808 
" clip-path="url(#p7c0ad94259)" style="fill: none; stroke: #bbbbbb; stroke-width: 0.5; stroke-linecap: square"/>
   </g>
   <g id="FillBetweenPolyCollection_6">
    <defs>
     <path id="mb66f68a4ac" d="M 297.857223 -109.828638 
L 297.857223 -92.600284 
L 300.859938 -49.792124 
L 303.862652 -54.394209 
L 306.865367 -34.242438 
L 309.868081 -29.254191 
L 312.870796 -29.254191 
L 315.87351 -29.254191 
L 318.876224 -29.469568 
L 321.878939 -29.275754 
L 324.881653 -29.254191 
L 327.884368 -29.254191 
L 330.887082 -29.254191 
L 333.889797 -29.254191 
L 336.892511 -29.254191 
L 339.895225 -29.254191 
L 342.89794 -29.254191 
L 345.900654 -29.254191 
L 348.903369 -29.254191 
L 351.906083 -29.254191 
L 354.908798 -29.254191 
L 357.911512 -29.254191 
L 360.914226 -29.254191 
L 363.916941 -29.254191 
L 366.919655 -29.254191 
L 369.92237 -29.254191 
L 372.925084 -29.254191 
L 375.927799 -29.254191 
L 378.930513 -29.254191 
L 381.933227 -29.254191 
L 384.935942 -29.254191 
L 387.938656 -29.254191 
L 390.941371 -29.254191 
L 393.944085 -29.254191 
L 396.9468 -29.254191 
L 399.949514 -29.263159 
L 402.952228 -29.308943 
L 405.954943 -29.404008 
L 408.957657 -29.489238 
L 411.960372 -29.548913 
L 414.963086 -29.64675 
L 417.965801 -29.845368 
L 420.968515 -30.598329 
L 423.971229 -31.011034 
L 426.973944 -33.88887 
L 429.976658 -42.844458 
L 432.979373 -50.22393 
L 435.982087 -56.637636 
L 438.984802 -57.248671 
L 441.987516 -51.200721 
L 444.99023 -47.81973 
L 447.992945 -47.013013 
L 450.995659 -45.364663 
L 453.998374 -40.282947 
L 457.001088 -35.329311 
L 460.003803 -36.821621 
L 463.006517 -34.219505 
L 466.009231 -36.059312 
L 469.011946 -42.391135 
L 472.01466 -47.928968 
L 475.017375 -46.375372 
L 478.020089 -41.939747 
L 481.022804 -36.613701 
L 484.025518 -31.902908 
L 487.028232 -30.932566 
L 490.030947 -29.254191 
L 493.033661 -29.254191 
L 496.036376 -29.254191 
L 496.036376 -35.254228 
L 496.036376 -35.254228 
L 493.033661 -36.160171 
L 490.030947 -37.664427 
L 487.028232 -41.013909 
L 484.025518 -43.315559 
L 481.022804 -49.328416 
L 478.020089 -54.575037 
L 475.017375 -58.961193 
L 472.01466 -60.634156 
L 469.011946 -54.967215 
L 466.009231 -48.853584 
L 463.006517 -46.067856 
L 460.003803 -48.378995 
L 457.001088 -46.426129 
L 453.998374 -55.197715 
L 450.995659 -60.501932 
L 447.992945 -62.40496 
L 444.99023 -63.40987 
L 441.987516 -66.576199 
L 438.984802 -71.966479 
L 435.982087 -70.343113 
L 432.979373 -62.668996 
L 429.976658 -54.273198 
L 426.973944 -44.183998 
L 423.971229 -40.565997 
L 420.968515 -39.672002 
L 417.965801 -38.28541 
L 414.963086 -37.669511 
L 411.960372 -37.249857 
L 408.957657 -36.888194 
L 405.954943 -36.727873 
L 402.952228 -36.639762 
L 399.949514 -36.499931 
L 396.9468 -36.131904 
L 393.944085 -35.747807 
L 390.941371 -35.130787 
L 387.938656 -34.315245 
L 384.935942 -33.65017 
L 381.933227 -33.188651 
L 378.930513 -33.326647 
L 375.927799 -32.953841 
L 372.925084 -34.251184 
L 369.92237 -34.587555 
L 366.919655 -34.888236 
L 363.916941 -35.200759 
L 360.914226 -35.277141 
L 357.911512 -35.397351 
L 354.908798 -35.158447 
L 351.906083 -35.013156 
L 348.903369 -34.896332 
L 345.900654 -34.616315 
L 342.89794 -34.127049 
L 339.895225 -34.166162 
L 336.892511 -34.052736 
L 333.889797 -34.761987 
L 330.887082 -35.437421 
L 327.884368 -35.710088 
L 324.881653 -35.654025 
L 321.878939 -36.619933 
L 318.876224 -36.315555 
L 315.87351 -34.026481 
L 312.870796 -36.23004 
L 309.868081 -42.656174 
L 306.865367 -50.840157 
L 303.862652 -71.169858 
L 300.859938 -66.455549 
L 297.857223 -109.828638 
z
"/>
    </defs>
    <g clip-path="url(#p7c0ad94259)">
     <use xlink:href="#mb66f68a4ac" x="0" y="350.813067" style="fill: #a6cee3; fill-opacity: 0.45"/>
    </g>
   </g>
   <g id="matplotlib.axis_11">
    <g id="xtick_16">
     <g id="line2d_68">
      <g>
       <use xlink:href="#m49f0dd9f87" x="289.706999" y="325.587598" style="stroke: #000000; stroke-width: 0.6"/>
      </g>
     </g>
     <g id="text_33">
      <text style="font-size: 6.5px; font-family: 'Arial'; text-anchor: middle" x="289.706999" y="336.526583" transform="rotate(-0 289.706999 336.526583)">2025-01</text>
     </g>
    </g>
    <g id="xtick_17">
     <g id="line2d_69">
      <g>
       <use xlink:href="#m49f0dd9f87" x="367.348614" y="325.587598" style="stroke: #000000; stroke-width: 0.6"/>
      </g>
     </g>
     <g id="text_34">
      <text style="font-size: 6.5px; font-family: 'Arial'; text-anchor: middle" x="367.348614" y="336.526583" transform="rotate(-0 367.348614 336.526583)">2025-07</text>
     </g>
    </g>
    <g id="xtick_18">
     <g id="line2d_70">
      <g>
       <use xlink:href="#m49f0dd9f87" x="446.277108" y="325.587598" style="stroke: #000000; stroke-width: 0.6"/>
      </g>
     </g>
     <g id="text_35">
      <text style="font-size: 6.5px; font-family: 'Arial'; text-anchor: middle" x="446.277108" y="336.526583" transform="rotate(-0 446.277108 336.526583)">2026-01</text>
     </g>
    </g>
    <g id="text_36">
     <text style="font-size: 7px; font-family: 'Arial'; text-anchor: middle" x="392.442728" y="347.197286" transform="rotate(-0 392.442728 347.197286)">Target week</text>
    </g>
   </g>
   <g id="matplotlib.axis_12">
    <g id="ytick_19">
     <g id="line2d_71">
      <path d="M 278.489715 316.504808 
L 506.39574 316.504808 
" clip-path="url(#p7c0ad94259)" style="fill: none; stroke: #eaeaea; stroke-width: 0.5; stroke-linecap: square"/>
     </g>
     <g id="line2d_72">
      <g>
       <use xlink:href="#m9feaca0653" x="278.489715" y="316.504808" style="stroke: #000000; stroke-width: 0.6"/>
      </g>
     </g>
     <g id="text_37">
      <text style="font-size: 6.5px; font-family: 'Arial'; text-anchor: end" x="272.489715" y="318.974301" transform="rotate(-0 272.489715 318.974301)">0</text>
     </g>
    </g>
    <g id="ytick_20">
     <g id="line2d_73">
      <path d="M 278.489715 294.975206 
L 506.39574 294.975206 
" clip-path="url(#p7c0ad94259)" style="fill: none; stroke: #eaeaea; stroke-width: 0.5; stroke-linecap: square"/>
     </g>
     <g id="line2d_74">
      <g>
       <use xlink:href="#m9feaca0653" x="278.489715" y="294.975206" style="stroke: #000000; stroke-width: 0.6"/>
      </g>
     </g>
     <g id="text_38">
      <text style="font-size: 6.5px; font-family: 'Arial'; text-anchor: end" x="272.489715" y="297.444698" transform="rotate(-0 272.489715 297.444698)">2</text>
     </g>
    </g>
    <g id="ytick_21">
     <g id="line2d_75">
      <path d="M 278.489715 273.445604 
L 506.39574 273.445604 
" clip-path="url(#p7c0ad94259)" style="fill: none; stroke: #eaeaea; stroke-width: 0.5; stroke-linecap: square"/>
     </g>
     <g id="line2d_76">
      <g>
       <use xlink:href="#m9feaca0653" x="278.489715" y="273.445604" style="stroke: #000000; stroke-width: 0.6"/>
      </g>
     </g>
     <g id="text_39">
      <text style="font-size: 6.5px; font-family: 'Arial'; text-anchor: end" x="272.489715" y="275.915096" transform="rotate(-0 272.489715 275.915096)">4</text>
     </g>
    </g>
    <g id="ytick_22">
     <g id="line2d_77">
      <path d="M 278.489715 251.916002 
L 506.39574 251.916002 
" clip-path="url(#p7c0ad94259)" style="fill: none; stroke: #eaeaea; stroke-width: 0.5; stroke-linecap: square"/>
     </g>
     <g id="line2d_78">
      <g>
       <use xlink:href="#m9feaca0653" x="278.489715" y="251.916002" style="stroke: #000000; stroke-width: 0.6"/>
      </g>
     </g>
     <g id="text_40">
      <text style="font-size: 6.5px; font-family: 'Arial'; text-anchor: end" x="272.489715" y="254.385494" transform="rotate(-0 272.489715 254.385494)">6</text>
     </g>
    </g>
   </g>
   <g id="line2d_79">
    <path d="M 297.857223 309.303899 
L 300.859938 315.061902 
L 303.862652 317.38544 
L 306.865367 318.648785 
L 309.868081 319.119733 
L 312.870796 319.470811 
L 315.87351 319.327372 
L 318.876224 319.098632 
L 321.878939 319.378328 
L 324.881653 319.517727 
L 327.884368 320.286777 
L 330.887082 320.521578 
L 333.889797 320.520231 
L 336.892511 320.614062 
L 339.895225 320.876697 
L 342.89794 320.979731 
L 345.900654 320.905654 
L 348.903369 321.10207 
L 351.906083 321.182432 
L 354.908798 321.241244 
L 357.911512 321.30275 
L 360.914226 321.323626 
L 363.916941 321.329238 
L 366.919655 321.313076 
L 369.92237 321.344278 
L 372.925084 321.301628 
L 375.927799 321.284343 
L 378.930513 321.300057 
L 381.933227 321.304995 
L 384.935942 321.338891 
L 387.938656 321.293322 
L 390.941371 321.256508 
L 393.944085 321.121375 
L 396.9468 320.945611 
L 399.949514 320.869065 
L 402.952228 320.654243 
L 405.954943 320.209109 
L 408.957657 319.521992 
L 411.960372 318.735881 
L 414.963086 316.109526 
L 417.965801 308.668635 
L 420.968515 302.661914 
L 423.971229 288.891956 
L 426.973944 277.36091 
L 429.976658 282.639435 
L 432.979373 288.26612 
L 435.982087 289.586032 
L 438.984802 293.246543 
L 441.987516 301.909699 
L 444.99023 314.102497 
L 447.992945 312.580782 
L 450.995659 311.900399 
L 453.998374 307.343785 
L 457.001088 295.903426 
L 460.003803 284.577999 
L 463.006517 286.156282 
L 466.009231 292.107782 
L 469.011946 302.21476 
L 472.01466 309.321408 
L 475.017375 311.609704 
L 478.020089 313.243656 
L 481.022804 316.051162 
L 484.025518 318.845874 
L 487.028232 320.336835 
L 490.030947 320.782867 
L 493.033661 321.043706 
L 496.036376 321.222164 
" clip-path="url(#p7c0ad94259)" style="fill: none; stroke: #111111; stroke-width: 0.9; stroke-linecap: square"/>
   </g>
   <g id="line2d_80">
    <path d="M 297.857223 252.123227 
L 300.859938 295.206709 
L 303.862652 290.162232 
L 306.865367 310.601424 
L 309.868081 318.529719 
L 312.870796 321.558876 
L 315.87351 321.558876 
L 318.876224 319.205276 
L 321.878939 319.062405 
L 324.881653 319.692903 
L 327.884368 319.835725 
L 330.887082 320.065734 
L 333.889797 320.261116 
L 336.892511 320.156121 
L 339.895225 320.350572 
L 342.89794 320.238115 
L 345.900654 319.789099 
L 348.903369 319.430164 
L 351.906083 319.203204 
L 354.908798 319.092314 
L 357.911512 319.080449 
L 360.914226 319.398299 
L 363.916941 319.65638 
L 366.919655 320.088575 
L 369.92237 320.445353 
L 372.925084 320.758372 
L 375.927799 320.930368 
L 378.930513 320.608212 
L 381.933227 320.794601 
L 384.935942 320.617341 
L 387.938656 320.336483 
L 390.941371 319.982315 
L 393.944085 319.680866 
L 396.9468 319.482596 
L 399.949514 319.194433 
L 402.952228 319.062386 
L 405.954943 318.907182 
L 408.957657 318.722321 
L 411.960372 318.354922 
L 414.963086 317.891452 
L 417.965801 317.308693 
L 420.968515 316.034179 
L 423.971229 315.384005 
L 426.973944 312.270241 
L 429.976658 303.054646 
L 432.979373 295.50477 
L 435.982087 288.622058 
L 438.984802 287.574255 
L 441.987516 293.170518 
L 444.99023 296.385749 
L 447.992945 297.256128 
L 450.995659 298.924719 
L 453.998374 303.964728 
L 457.001088 312.323203 
L 460.003803 310.458694 
L 463.006517 312.143501 
L 466.009231 308.97146 
L 469.011946 302.48677 
L 472.01466 297.06839 
L 475.017375 298.759385 
L 478.020089 303.310227 
L 481.022804 308.88693 
L 484.025518 314.941929 
L 487.028232 316.898605 
L 490.030947 319.695917 
L 493.033661 320.293934 
L 496.036376 320.222458 
" clip-path="url(#p7c0ad94259)" style="fill: none; stroke: #0072b2; stroke-width: 1.05; stroke-linecap: square"/>
   </g>
   <g id="patch_18">
    <path d="M 278.489715 325.587598 
L 278.489715 236.955707 
" style="fill: none; stroke: #000000; stroke-width: 0.6; stroke-linejoin: miter; stroke-linecap: square"/>
   </g>
   <g id="patch_19">
    <path d="M 278.489715 325.587598 
L 506.39574 325.587598 
" style="fill: none; stroke: #000000; stroke-width: 0.6; stroke-linejoin: miter; stroke-linecap: square"/>
   </g>
   <g id="text_41">
    <text style="font-weight: 700; font-size: 8px; font-family: 'Arial'; text-anchor: start" x="264.815354" y="231.746681" transform="rotate(-0 264.815354 231.746681)">f</text>
   </g>
  </g>
  <g id="legend_1">
   <g id="line2d_81">
    <path d="M 171.514683 7.423984 
L 178.014683 7.423984 
L 184.514683 7.423984 
" style="fill: none; stroke: #111111; stroke-linecap: square"/>
   </g>
   <g id="text_42">
    <text style="font-size: 6.5px; font-family: 'Arial'; text-anchor: start" x="189.714683" y="9.698984" transform="rotate(-0 189.714683 9.698984)">Observed</text>
   </g>
   <g id="line2d_82">
    <path d="M 233.988824 7.423984 
L 240.488824 7.423984 
L 246.988824 7.423984 
" style="fill: none; stroke: #0072b2; stroke-width: 1.1; stroke-linecap: square"/>
   </g>
   <g id="text_43">
    <text style="font-size: 6.5px; font-family: 'Arial'; text-anchor: start" x="252.188824" y="9.698984" transform="rotate(-0 252.188824 9.698984)">SAFE median</text>
   </g>
   <g id="patch_20">
    <path d="M 308.160933 9.698984 
L 321.160933 9.698984 
L 321.160933 5.148984 
L 308.160933 5.148984 
z
" style="fill: #a6cee3; opacity: 0.45"/>
   </g>
   <g id="text_44">
    <text style="font-size: 6.5px; font-family: 'Arial'; text-anchor: start" x="326.360933" y="9.698984" transform="rotate(-0 326.360933 9.698984)">80% interval</text>
   </g>
  </g>
 </g>
 <defs>
  <clipPath id="p3d056c0f79">
   <rect x="30.908781" y="20.114839" width="227.906025" height="88.631891"/>
  </clipPath>
  <clipPath id="p23b4b0bd07">
   <rect x="278.489715" y="20.114839" width="227.906025" height="88.631891"/>
  </clipPath>
  <clipPath id="p919844e646">
   <rect x="30.908781" y="128.535273" width="227.906025" height="88.631891"/>
  </clipPath>
  <clipPath id="p88d453b882">
   <rect x="278.489715" y="128.535273" width="227.906025" height="88.631891"/>
  </clipPath>
  <clipPath id="pb99298c990">
   <rect x="30.908781" y="236.955707" width="227.906025" height="88.631891"/>
  </clipPath>
  <clipPath id="p7c0ad94259">
   <rect x="278.489715" y="236.955707" width="227.906025" height="88.631891"/>
  </clipPath>
 </defs>
</svg>
